<?xml version="1.0" encoding="UTF-8"?>
<svg width="64px" height="41px" viewBox="0 0 64 41" version="1.1" xmlns="http://www.w3.org/2000/svg" xmlns:xlink="http://www.w3.org/1999/xlink">
    <!-- Generator: Sketch 57.1 (83088) - https://sketch.com -->
    <title>Rails</title>
    <desc>Created with Sketch.</desc>
    <g id="Rails" stroke="none" stroke-width="1" fill="none" fill-rule="evenodd">
        <g id="Group-305">
            <path d="M17.451,39.862 C17.736,40.0259 17.736,40.293 17.451,40.4569 C17.166,40.622 16.704,40.622 16.419,40.4569 C16.135,40.293 16.135,40.0259 16.419,39.862 C16.704,39.6969 17.166,39.6969 17.451,39.862 Z" id="Fill-1" fill="#171310"></path>
            <path d="M20.148,38.3039 C20.433,38.469 20.433,38.736 20.148,38.9 C19.863,39.0649 19.401,39.0649 19.116,38.9 C18.832,38.736 18.832,38.469 19.116,38.3039 C19.401,38.14 19.863,38.14 20.148,38.3039 Z" id="Fill-2" fill="#171310"></path>
            <path d="M22.845,36.747 C23.13,36.9119 23.13,37.178 22.845,37.3429 C22.56,37.5069 22.098,37.5069 21.814,37.3429 C21.529,37.178 21.529,36.9119 21.814,36.747 C22.098,36.583 22.56,36.583 22.845,36.747 Z" id="Fill-3" fill="#171310"></path>
            <path d="M25.542,35.1899 C25.827,35.355 25.827,35.6209 25.542,35.786 C25.257,35.95 24.796,35.95 24.511,35.786 C24.226,35.6209 24.226,35.355 24.511,35.1899 C24.796,35.0259 25.257,35.0259 25.542,35.1899 Z" id="Fill-4" fill="#171310"></path>
            <path d="M28.239,33.633 C28.524,33.797 28.524,34.064 28.239,34.228 C27.955,34.3929 27.493,34.3929 27.208,34.228 C26.923,34.064 26.923,33.797 27.208,33.633 C27.493,33.4679 27.955,33.4679 28.239,33.633 Z" id="Fill-5" fill="#171310"></path>
            <path d="M30.937,32.0759 C31.222,32.2399 31.222,32.5069 30.937,32.6709 C30.652,32.836 30.19,32.836 29.905,32.6709 C29.62,32.5069 29.62,32.2399 29.905,32.0759 C30.19,31.911 30.652,31.911 30.937,32.0759 Z" id="Fill-6" fill="#171310"></path>
            <path d="M33.634,30.5179 C33.919,30.683 33.919,30.95 33.634,31.114 C33.349,31.279 32.887,31.279 32.602,31.114 C32.317,30.95 32.317,30.683 32.602,30.5179 C32.887,30.3539 33.349,30.3539 33.634,30.5179 Z" id="Fill-7" fill="#171310"></path>
            <path d="M36.331,28.961 C36.616,29.126 36.616,29.392 36.331,29.5569 C36.046,29.721 35.584,29.721 35.299,29.5569 C35.014,29.392 35.014,29.126 35.299,28.961 C35.584,28.797 36.046,28.797 36.331,28.961 Z" id="Fill-8" fill="#171310"></path>
            <path d="M39.028,27.404 C39.313,27.569 39.313,27.8349 39.028,28 C38.743,28.1639 38.281,28.1639 37.996,28 C37.712,27.8349 37.712,27.569 37.996,27.404 C38.281,27.2399 38.743,27.2399 39.028,27.404 Z" id="Fill-9" fill="#171310"></path>
            <path d="M41.725,25.847 C42.01,26.0109 42.01,26.278 41.725,26.4419 C41.44,26.607 40.978,26.607 40.694,26.4419 C40.409,26.278 40.409,26.0109 40.694,25.847 C40.978,25.682 41.44,25.682 41.725,25.847 Z" id="Fill-10" fill="#171310"></path>
            <path d="M44.422,24.29 C44.707,24.454 44.707,24.721 44.422,24.885 C44.137,25.0499 43.676,25.0499 43.391,24.885 C43.106,24.721 43.106,24.454 43.391,24.29 C43.676,24.125 44.137,24.125 44.422,24.29 Z" id="Fill-11" fill="#171310"></path>
            <path d="M12.057,39.862 C12.342,40.0259 12.342,40.293 12.057,40.4569 C11.772,40.622 11.31,40.622 11.025,40.4569 C10.74,40.293 10.74,40.0259 11.025,39.862 C11.31,39.6969 11.772,39.6969 12.057,39.862 Z" id="Fill-12" fill="#171310"></path>
            <path d="M14.754,38.3039 C15.039,38.469 15.039,38.736 14.754,38.9 C14.469,39.0649 14.007,39.0649 13.722,38.9 C13.438,38.736 13.438,38.469 13.722,38.3039 C14.007,38.14 14.469,38.14 14.754,38.3039 Z" id="Fill-13" fill="#171310"></path>
            <path d="M17.451,36.747 C17.736,36.9119 17.736,37.178 17.451,37.3429 C17.166,37.5069 16.704,37.5069 16.419,37.3429 C16.135,37.178 16.135,36.9119 16.419,36.747 C16.704,36.583 17.166,36.583 17.451,36.747 Z" id="Fill-14" fill="#171310"></path>
            <path d="M20.148,35.1899 C20.433,35.355 20.433,35.6209 20.148,35.786 C19.863,35.95 19.401,35.95 19.116,35.786 C18.832,35.6209 18.832,35.355 19.116,35.1899 C19.401,35.0259 19.863,35.0259 20.148,35.1899 Z" id="Fill-15" fill="#171310"></path>
            <path d="M22.845,33.633 C23.13,33.797 23.13,34.064 22.845,34.228 C22.56,34.3929 22.098,34.3929 21.814,34.228 C21.529,34.064 21.529,33.797 21.814,33.633 C22.098,33.4679 22.56,33.4679 22.845,33.633 Z" id="Fill-16" fill="#171310"></path>
            <path d="M25.542,32.0759 C25.827,32.2399 25.827,32.5069 25.542,32.6709 C25.257,32.836 24.796,32.836 24.511,32.6709 C24.226,32.5069 24.226,32.2399 24.511,32.0759 C24.796,31.911 25.257,31.911 25.542,32.0759 Z" id="Fill-17" fill="#171310"></path>
            <path d="M28.239,30.5179 C28.524,30.683 28.524,30.95 28.239,31.114 C27.955,31.279 27.493,31.279 27.208,31.114 C26.923,30.95 26.923,30.683 27.208,30.5179 C27.493,30.3539 27.955,30.3539 28.239,30.5179 Z" id="Fill-18" fill="#171310"></path>
            <path d="M30.937,28.961 C31.222,29.126 31.222,29.392 30.937,29.5569 C30.652,29.721 30.19,29.721 29.905,29.5569 C29.62,29.392 29.62,29.126 29.905,28.961 C30.19,28.797 30.652,28.797 30.937,28.961 Z" id="Fill-19" fill="#171310"></path>
            <path d="M33.634,27.404 C33.919,27.569 33.919,27.8349 33.634,28 C33.349,28.1639 32.887,28.1639 32.602,28 C32.317,27.8349 32.317,27.569 32.602,27.404 C32.887,27.2399 33.349,27.2399 33.634,27.404 Z" id="Fill-20" fill="#171310"></path>
            <path d="M36.331,25.847 C36.616,26.0109 36.616,26.278 36.331,26.443 C36.046,26.607 35.584,26.607 35.299,26.443 C35.014,26.278 35.014,26.0109 35.299,25.847 C35.584,25.682 36.046,25.682 36.331,25.847 Z" id="Fill-21" fill="#171310"></path>
            <path d="M39.028,24.29 C39.313,24.454 39.313,24.721 39.028,24.885 C38.743,25.0499 38.281,25.0499 37.996,24.885 C37.712,24.721 37.712,24.454 37.996,24.29 C38.281,24.125 38.743,24.125 39.028,24.29 Z" id="Fill-22" fill="#171310"></path>
            <path d="M41.725,22.7329 C42.01,22.8969 42.01,23.1639 41.725,23.3279 C41.44,23.493 40.978,23.493 40.694,23.3279 C40.409,23.1639 40.409,22.8969 40.694,22.7329 C40.978,22.568 41.44,22.568 41.725,22.7329 Z" id="Fill-23" fill="#171310"></path>
            <path d="M9.36,38.3039 C9.645,38.469 9.645,38.736 9.36,38.9 C9.075,39.0649 8.613,39.0649 8.328,38.9 C8.043,38.736 8.043,38.469 8.328,38.3039 C8.613,38.14 9.075,38.14 9.36,38.3039 Z" id="Fill-24" fill="#171310"></path>
            <path d="M12.057,36.747 C12.342,36.9119 12.342,37.178 12.057,37.3429 C11.772,37.5069 11.31,37.5069 11.025,37.3429 C10.74,37.178 10.74,36.9119 11.025,36.747 C11.31,36.583 11.772,36.583 12.057,36.747 Z" id="Fill-25" fill="#171310"></path>
            <path d="M14.754,35.1899 C15.039,35.355 15.039,35.6209 14.754,35.786 C14.469,35.95 14.007,35.95 13.722,35.786 C13.438,35.6209 13.438,35.355 13.722,35.1899 C14.007,35.0259 14.469,35.0259 14.754,35.1899 Z" id="Fill-26" fill="#171310"></path>
            <path d="M17.451,33.633 C17.736,33.797 17.736,34.064 17.451,34.228 C17.166,34.3929 16.704,34.3929 16.419,34.228 C16.135,34.064 16.135,33.797 16.419,33.633 C16.704,33.4679 17.166,33.4679 17.451,33.633 Z" id="Fill-27" fill="#171310"></path>
            <path d="M20.148,32.0759 C20.433,32.2399 20.433,32.5069 20.148,32.6709 C19.863,32.836 19.401,32.836 19.117,32.6709 C18.832,32.5069 18.832,32.2399 19.117,32.0759 C19.401,31.911 19.863,31.911 20.148,32.0759 Z" id="Fill-28" fill="#171310"></path>
            <path d="M22.845,30.5179 C23.13,30.683 23.13,30.95 22.845,31.114 C22.56,31.279 22.099,31.279 21.814,31.114 C21.529,30.95 21.529,30.683 21.814,30.5179 C22.099,30.3539 22.56,30.3539 22.845,30.5179 Z" id="Fill-29" fill="#171310"></path>
            <path d="M25.542,28.961 C25.827,29.126 25.827,29.392 25.542,29.5569 C25.258,29.721 24.796,29.721 24.511,29.5569 C24.226,29.392 24.226,29.126 24.511,28.961 C24.796,28.797 25.258,28.797 25.542,28.961 Z" id="Fill-30" fill="#171310"></path>
            <path d="M28.24,27.404 C28.524,27.569 28.524,27.8349 28.24,28 C27.955,28.1639 27.493,28.1639 27.208,28 C26.923,27.8349 26.923,27.569 27.208,27.404 C27.493,27.2399 27.955,27.2399 28.24,27.404 Z" id="Fill-31" fill="#171310"></path>
            <path d="M30.937,25.847 C31.222,26.0109 31.222,26.278 30.937,26.443 C30.652,26.607 30.19,26.607 29.905,26.443 C29.62,26.278 29.62,26.0109 29.905,25.847 C30.19,25.682 30.652,25.682 30.937,25.847 Z" id="Fill-32" fill="#171310"></path>
            <path d="M33.634,24.29 C33.919,24.454 33.919,24.721 33.634,24.885 C33.349,25.0499 32.887,25.0499 32.602,24.885 C32.317,24.721 32.317,24.454 32.602,24.29 C32.887,24.125 33.349,24.125 33.634,24.29 Z" id="Fill-33" fill="#171310"></path>
            <path d="M36.331,22.7329 C36.616,22.8969 36.616,23.1639 36.331,23.3279 C36.046,23.493 35.584,23.493 35.299,23.3279 C35.014,23.1639 35.014,22.8969 35.299,22.7329 C35.584,22.568 36.046,22.568 36.331,22.7329 Z" id="Fill-34" fill="#171310"></path>
            <path d="M39.028,21.1749 C39.313,21.34 39.313,21.6059 39.028,21.771 C38.743,21.935 38.281,21.935 37.996,21.771 C37.712,21.6059 37.712,21.34 37.996,21.1749 C38.281,21.0109 38.743,21.0109 39.028,21.1749 Z" id="Fill-35" fill="#171310"></path>
            <path d="M6.662,36.747 C6.947,36.9119 6.947,37.178 6.662,37.3429 C6.378,37.5069 5.916,37.5069 5.631,37.3429 C5.346,37.178 5.346,36.9119 5.631,36.747 C5.916,36.583 6.378,36.583 6.662,36.747 Z" id="Fill-36" fill="#171310"></path>
            <path d="M9.36,35.1899 C9.645,35.355 9.645,35.6209 9.36,35.786 C9.075,35.95 8.613,35.95 8.328,35.786 C8.043,35.6209 8.043,35.355 8.328,35.1899 C8.613,35.0259 9.075,35.0259 9.36,35.1899 Z" id="Fill-37" fill="#171310"></path>
            <path d="M12.057,33.633 C12.342,33.797 12.342,34.064 12.057,34.228 C11.772,34.3929 11.31,34.3929 11.025,34.228 C10.74,34.064 10.74,33.797 11.025,33.633 C11.31,33.4679 11.772,33.4679 12.057,33.633 Z" id="Fill-38" fill="#171310"></path>
            <path d="M14.754,32.0759 C15.039,32.2399 15.039,32.5069 14.754,32.6709 C14.469,32.836 14.007,32.836 13.722,32.6709 C13.438,32.5069 13.438,32.2399 13.722,32.0759 C14.007,31.911 14.469,31.911 14.754,32.0759 Z" id="Fill-39" fill="#171310"></path>
            <path d="M17.451,30.519 C17.736,30.683 17.736,30.95 17.451,31.114 C17.166,31.279 16.704,31.279 16.419,31.114 C16.135,30.95 16.135,30.683 16.419,30.519 C16.704,30.3539 17.166,30.3539 17.451,30.519 Z" id="Fill-40" fill="#171310"></path>
            <path d="M20.148,28.961 C20.433,29.126 20.433,29.392 20.148,29.5569 C19.863,29.721 19.401,29.721 19.117,29.5569 C18.832,29.392 18.832,29.126 19.117,28.961 C19.401,28.797 19.863,28.797 20.148,28.961 Z" id="Fill-41" fill="#171310"></path>
            <path d="M22.845,27.404 C23.13,27.569 23.13,27.8349 22.845,28 C22.56,28.1639 22.099,28.1639 21.814,28 C21.529,27.8349 21.529,27.569 21.814,27.404 C22.099,27.2399 22.56,27.2399 22.845,27.404 Z" id="Fill-42" fill="#171310"></path>
            <path d="M25.542,25.847 C25.827,26.0109 25.827,26.278 25.542,26.443 C25.258,26.607 24.796,26.607 24.511,26.443 C24.226,26.278 24.226,26.0109 24.511,25.847 C24.796,25.682 25.258,25.682 25.542,25.847 Z" id="Fill-43" fill="#171310"></path>
            <path d="M28.24,24.29 C28.524,24.454 28.524,24.721 28.24,24.885 C27.955,25.0499 27.493,25.0499 27.208,24.885 C26.923,24.721 26.923,24.454 27.208,24.29 C27.493,24.125 27.955,24.125 28.24,24.29 Z" id="Fill-44" fill="#171310"></path>
            <path d="M30.937,22.7329 C31.222,22.8969 31.222,23.1639 30.937,23.3279 C30.652,23.493 30.19,23.493 29.905,23.3279 C29.62,23.1639 29.62,22.8969 29.905,22.7329 C30.19,22.568 30.652,22.568 30.937,22.7329 Z" id="Fill-45" fill="#171310"></path>
            <path d="M33.634,21.1749 C33.919,21.34 33.919,21.6059 33.634,21.771 C33.349,21.935 32.887,21.935 32.602,21.771 C32.317,21.6059 32.317,21.34 32.602,21.1749 C32.887,21.0109 33.349,21.0109 33.634,21.1749 Z" id="Fill-46" fill="#171310"></path>
            <path d="M36.331,19.6179 C36.616,19.7829 36.616,20.0489 36.331,20.2139 C36.046,20.3779 35.584,20.3779 35.299,20.2139 C35.015,20.0489 35.015,19.7829 35.299,19.6179 C35.584,19.4539 36.046,19.4539 36.331,19.6179 Z" id="Fill-47" fill="#171310"></path>
            <path d="M3.965,35.1899 C4.25,35.355 4.25,35.6209 3.965,35.786 C3.68,35.95 3.219,35.95 2.934,35.786 C2.649,35.6209 2.649,35.355 2.934,35.1899 C3.219,35.0259 3.68,35.0259 3.965,35.1899 Z" id="Fill-48" fill="#171310"></path>
            <path d="M6.662,33.633 C6.947,33.797 6.947,34.064 6.662,34.228 C6.378,34.3929 5.916,34.3929 5.631,34.228 C5.346,34.064 5.346,33.797 5.631,33.633 C5.916,33.4679 6.378,33.4679 6.662,33.633 Z" id="Fill-49" fill="#171310"></path>
            <path d="M9.36,32.0759 C9.645,32.2399 9.645,32.5069 9.36,32.6709 C9.075,32.836 8.613,32.836 8.328,32.6709 C8.043,32.5069 8.043,32.2399 8.328,32.0759 C8.613,31.911 9.075,31.911 9.36,32.0759 Z" id="Fill-50" fill="#171310"></path>
            <path d="M12.057,30.519 C12.342,30.683 12.342,30.95 12.057,31.114 C11.772,31.279 11.31,31.279 11.025,31.114 C10.74,30.95 10.74,30.683 11.025,30.519 C11.31,30.3539 11.772,30.3539 12.057,30.519 Z" id="Fill-51" fill="#171310"></path>
            <path d="M14.754,28.961 C15.039,29.126 15.039,29.392 14.754,29.5569 C14.469,29.721 14.007,29.721 13.722,29.5569 C13.438,29.392 13.438,29.126 13.722,28.961 C14.007,28.797 14.469,28.797 14.754,28.961 Z" id="Fill-52" fill="#171310"></path>
            <path d="M17.451,27.404 C17.736,27.569 17.736,27.8349 17.451,28 C17.166,28.1639 16.704,28.1639 16.419,28 C16.135,27.8349 16.135,27.569 16.419,27.404 C16.704,27.2399 17.166,27.2399 17.451,27.404 Z" id="Fill-53" fill="#171310"></path>
            <path d="M20.148,25.847 C20.433,26.0109 20.433,26.278 20.148,26.443 C19.863,26.607 19.401,26.607 19.117,26.443 C18.832,26.278 18.832,26.0109 19.117,25.847 C19.401,25.682 19.863,25.682 20.148,25.847 Z" id="Fill-54" fill="#171310"></path>
            <path d="M22.845,24.29 C23.13,24.454 23.13,24.721 22.845,24.885 C22.56,25.0499 22.099,25.0499 21.814,24.885 C21.529,24.721 21.529,24.454 21.814,24.29 C22.099,24.125 22.56,24.125 22.845,24.29 Z" id="Fill-55" fill="#171310"></path>
            <path d="M25.542,22.7329 C25.827,22.8969 25.827,23.1639 25.542,23.3279 C25.258,23.493 24.796,23.493 24.511,23.3279 C24.226,23.1639 24.226,22.8969 24.511,22.7329 C24.796,22.568 25.258,22.568 25.542,22.7329 Z" id="Fill-56" fill="#171310"></path>
            <path d="M28.24,21.1749 C28.524,21.34 28.524,21.6059 28.24,21.771 C27.955,21.935 27.493,21.935 27.208,21.771 C26.923,21.6059 26.923,21.34 27.208,21.1749 C27.493,21.0109 27.955,21.0109 28.24,21.1749 Z" id="Fill-57" fill="#171310"></path>
            <path d="M30.937,19.6179 C31.222,19.7829 31.222,20.0489 30.937,20.2139 C30.652,20.3779 30.19,20.3779 29.905,20.2139 C29.62,20.0489 29.62,19.7829 29.905,19.6179 C30.19,19.4539 30.652,19.4539 30.937,19.6179 Z" id="Fill-58" fill="#171310"></path>
            <path d="M33.634,18.061 C33.919,18.225 33.919,18.492 33.634,18.6569 C33.349,18.8209 32.887,18.8209 32.602,18.6569 C32.317,18.492 32.317,18.225 32.602,18.061 C32.887,17.897 33.349,17.897 33.634,18.061 Z" id="Fill-59" fill="#171310"></path>
            <path d="M1.245,33.6169 C1.53,33.7809 1.53,34.0479 1.245,34.2119 C0.96,34.377 0.498,34.377 0.213,34.2119 C-0.071,34.0479 -0.071,33.7809 0.213,33.6169 C0.498,33.452 0.96,33.452 1.245,33.6169 Z" id="Fill-60" fill="#171310"></path>
            <path d="M3.942,32.0589 C4.227,32.224 4.227,32.4899 3.942,32.655 C3.657,32.819 3.195,32.819 2.91,32.655 C2.626,32.4899 2.626,32.224 2.91,32.0589 C3.195,31.8949 3.657,31.8949 3.942,32.0589 Z" id="Fill-61" fill="#171310"></path>
            <path d="M6.639,30.502 C6.924,30.667 6.924,30.933 6.639,31.098 C6.354,31.262 5.892,31.262 5.608,31.098 C5.323,30.933 5.323,30.667 5.608,30.502 C5.892,30.338 6.354,30.338 6.639,30.502 Z" id="Fill-62" fill="#171310"></path>
            <path d="M9.336,28.945 C9.621,29.109 9.621,29.376 9.336,29.5409 C9.051,29.7049 8.59,29.7049 8.305,29.5409 C8.02,29.376 8.02,29.109 8.305,28.945 C8.59,28.7809 9.051,28.7809 9.336,28.945 Z" id="Fill-63" fill="#171310"></path>
            <path d="M12.033,27.3879 C12.318,27.5519 12.318,27.819 12.033,27.9829 C11.749,28.148 11.287,28.148 11.002,27.9829 C10.717,27.819 10.717,27.5519 11.002,27.3879 C11.287,27.223 11.749,27.223 12.033,27.3879 Z" id="Fill-64" fill="#171310"></path>
            <path d="M14.731,25.831 C15.015,25.995 15.015,26.262 14.731,26.426 C14.446,26.5909 13.984,26.5909 13.699,26.426 C13.414,26.262 13.414,25.995 13.699,25.831 C13.984,25.6659 14.446,25.6659 14.731,25.831 Z" id="Fill-65" fill="#171310"></path>
            <path d="M17.428,24.273 C17.712,24.4379 17.712,24.7049 17.428,24.8689 C17.143,25.0329 16.681,25.0329 16.396,24.8689 C16.111,24.7049 16.111,24.4379 16.396,24.273 C16.681,24.109 17.143,24.109 17.428,24.273 Z" id="Fill-66" fill="#171310"></path>
            <path d="M20.125,22.7159 C20.41,22.881 20.41,23.1469 20.125,23.312 C19.84,23.476 19.378,23.476 19.093,23.312 C18.808,23.1469 18.808,22.881 19.093,22.7159 C19.378,22.5519 19.84,22.5519 20.125,22.7159 Z" id="Fill-67" fill="#171310"></path>
            <path d="M22.822,21.159 C23.107,21.323 23.107,21.59 22.822,21.7549 C22.537,21.9189 22.075,21.9189 21.79,21.7549 C21.505,21.59 21.505,21.323 21.79,21.159 C22.075,20.995 22.537,20.995 22.822,21.159 Z" id="Fill-68" fill="#171310"></path>
            <path d="M25.519,19.6019 C25.804,19.7659 25.804,20.0329 25.519,20.1969 C25.234,20.362 24.772,20.362 24.487,20.1969 C24.203,20.0329 24.203,19.7659 24.487,19.6019 C24.772,19.4369 25.234,19.4369 25.519,19.6019 Z" id="Fill-69" fill="#171310"></path>
            <path d="M28.216,18.0449 C28.501,18.2089 28.501,18.4759 28.216,18.6399 C27.931,18.805 27.469,18.805 27.185,18.6399 C26.9,18.4759 26.9,18.2089 27.185,18.0449 C27.469,17.88 27.931,17.88 28.216,18.0449 Z" id="Fill-70" fill="#171310"></path>
            <path d="M30.913,16.487 C31.198,16.6519 31.198,16.919 30.913,17.083 C30.628,17.2469 30.167,17.2469 29.882,17.083 C29.597,16.919 29.597,16.6519 29.882,16.487 C30.167,16.323 30.628,16.323 30.913,16.487 Z" id="Fill-71" fill="#171310"></path>
            <path d="M1.245,30.502 C1.53,30.667 1.53,30.933 1.245,31.098 C0.96,31.262 0.498,31.262 0.213,31.098 C-0.071,30.933 -0.071,30.667 0.213,30.502 C0.498,30.338 0.96,30.338 1.245,30.502 Z" id="Fill-72" fill="#171310"></path>
            <path d="M3.942,28.945 C4.227,29.109 4.227,29.376 3.942,29.5409 C3.657,29.7049 3.195,29.7049 2.91,29.5409 C2.626,29.376 2.626,29.109 2.91,28.945 C3.195,28.7809 3.657,28.7809 3.942,28.945 Z" id="Fill-73" fill="#171310"></path>
            <path d="M6.639,27.3879 C6.924,27.5519 6.924,27.819 6.639,27.9829 C6.354,28.148 5.892,28.148 5.608,27.9829 C5.323,27.819 5.323,27.5519 5.608,27.3879 C5.892,27.223 6.354,27.223 6.639,27.3879 Z" id="Fill-74" fill="#171310"></path>
            <path d="M9.336,25.831 C9.621,25.995 9.621,26.262 9.336,26.426 C9.051,26.5909 8.59,26.5909 8.305,26.426 C8.02,26.262 8.02,25.995 8.305,25.831 C8.59,25.6659 9.051,25.6659 9.336,25.831 Z" id="Fill-75" fill="#171310"></path>
            <path d="M12.033,24.273 C12.318,24.4379 12.318,24.7049 12.033,24.8689 C11.749,25.0329 11.287,25.0329 11.002,24.8689 C10.717,24.7049 10.717,24.4379 11.002,24.273 C11.287,24.109 11.749,24.109 12.033,24.273 Z" id="Fill-76" fill="#171310"></path>
            <path d="M14.731,22.7159 C15.015,22.881 15.015,23.1469 14.731,23.312 C14.446,23.476 13.984,23.476 13.699,23.312 C13.414,23.1469 13.414,22.881 13.699,22.7159 C13.984,22.5519 14.446,22.5519 14.731,22.7159 Z" id="Fill-77" fill="#171310"></path>
            <path d="M17.428,21.159 C17.712,21.323 17.712,21.59 17.428,21.7549 C17.143,21.9189 16.681,21.9189 16.396,21.7549 C16.111,21.59 16.111,21.323 16.396,21.159 C16.681,20.995 17.143,20.995 17.428,21.159 Z" id="Fill-78" fill="#171310"></path>
            <path d="M20.125,19.6019 C20.41,19.7659 20.41,20.0329 20.125,20.1969 C19.84,20.362 19.378,20.362 19.093,20.1969 C18.808,20.0329 18.808,19.7659 19.093,19.6019 C19.378,19.4369 19.84,19.4369 20.125,19.6019 Z" id="Fill-79" fill="#171310"></path>
            <path d="M22.822,18.0449 C23.107,18.2089 23.107,18.4759 22.822,18.6399 C22.537,18.805 22.075,18.805 21.791,18.6399 C21.505,18.4759 21.505,18.2089 21.791,18.0449 C22.075,17.88 22.537,17.88 22.822,18.0449 Z" id="Fill-80" fill="#171310"></path>
            <path d="M25.519,16.487 C25.804,16.6519 25.804,16.919 25.519,17.083 C25.234,17.2469 24.772,17.2479 24.487,17.083 C24.203,16.919 24.203,16.6519 24.487,16.487 C24.772,16.323 25.234,16.323 25.519,16.487 Z" id="Fill-81" fill="#171310"></path>
            <path d="M28.216,14.93 C28.501,15.095 28.501,15.361 28.216,15.526 C27.931,15.69 27.469,15.69 27.185,15.526 C26.9,15.361 26.9,15.095 27.185,14.93 C27.469,14.7659 27.931,14.7659 28.216,14.93 Z" id="Fill-82" fill="#171310"></path>
            <path d="M46.106,22.7479 C46.391,22.583 46.852,22.5819 47.138,22.747 C47.423,22.911 47.424,23.1769 47.14,23.342 C46.855,23.5069 46.393,23.5069 46.108,23.3429 C45.823,23.1789 45.822,22.9119 46.106,22.7479 Z" id="Fill-83" fill="#171310"></path>
            <path d="M49.838,21.189 C50.123,21.353 50.123,21.62 49.838,21.784 C49.554,21.9489 49.092,21.9489 48.807,21.784 C48.522,21.62 48.522,21.353 48.807,21.189 C49.092,21.0239 49.554,21.0239 49.838,21.189 Z" id="Fill-84" fill="#171310"></path>
            <path d="M52.535,19.6309 C52.82,19.7959 52.82,20.0619 52.535,20.2269 C52.251,20.3909 51.789,20.3909 51.504,20.2269 C51.219,20.0619 51.219,19.7959 51.504,19.6309 C51.789,19.4669 52.251,19.4669 52.535,19.6309 Z" id="Fill-85" fill="#171310"></path>
            <path d="M55.233,18.074 C55.517,18.2389 55.517,18.505 55.233,18.6699 C54.948,18.8339 54.486,18.8339 54.201,18.6699 C53.916,18.505 53.916,18.2389 54.201,18.074 C54.486,17.91 54.948,17.91 55.233,18.074 Z" id="Fill-86" fill="#171310"></path>
            <path d="M57.93,16.517 C58.215,16.681 58.215,16.948 57.93,17.113 C57.645,17.2769 57.183,17.2769 56.898,17.113 C56.613,16.948 56.613,16.681 56.898,16.517 C57.183,16.3519 57.645,16.3519 57.93,16.517 Z" id="Fill-87" fill="#171310"></path>
            <path d="M60.627,14.96 C60.912,15.124 60.912,15.3909 60.627,15.555 C60.342,15.72 59.88,15.72 59.595,15.555 C59.31,15.3909 59.31,15.124 59.595,14.96 C59.88,14.7949 60.342,14.7949 60.627,14.96 Z" id="Fill-88" fill="#171310"></path>
            <path d="M63.324,13.4029 C63.609,13.5669 63.609,13.8339 63.324,13.9979 C63.039,14.163 62.577,14.163 62.292,13.9979 C62.007,13.8339 62.007,13.5669 62.292,13.4029 C62.577,13.238 63.039,13.238 63.324,13.4029 Z" id="Fill-89" fill="#171310"></path>
            <path d="M43.409,21.191 C43.693,21.0259 44.155,21.025 44.441,21.189 C44.726,21.3539 44.727,21.62 44.443,21.7849 C44.158,21.95 43.696,21.95 43.411,21.786 C43.126,21.622 43.125,21.355 43.409,21.191 Z" id="Fill-90" fill="#171310"></path>
            <path d="M47.141,19.6309 C47.426,19.7959 47.426,20.0619 47.141,20.2269 C46.856,20.3909 46.394,20.3909 46.11,20.2269 C45.825,20.0619 45.825,19.7959 46.11,19.6309 C46.394,19.4669 46.856,19.4669 47.141,19.6309 Z" id="Fill-91" fill="#171310"></path>
            <path d="M49.838,18.074 C50.123,18.2389 50.123,18.505 49.838,18.6699 C49.554,18.8339 49.092,18.8339 48.807,18.6699 C48.522,18.505 48.522,18.2389 48.807,18.074 C49.092,17.91 49.554,17.91 49.838,18.074 Z" id="Fill-92" fill="#171310"></path>
            <path d="M52.535,16.517 C52.82,16.681 52.82,16.948 52.535,17.113 C52.251,17.2769 51.789,17.2769 51.504,17.113 C51.219,16.948 51.219,16.681 51.504,16.517 C51.789,16.3519 52.251,16.3519 52.535,16.517 Z" id="Fill-93" fill="#171310"></path>
            <path d="M55.233,14.96 C55.517,15.124 55.517,15.3909 55.233,15.555 C54.948,15.72 54.486,15.72 54.201,15.555 C53.916,15.3909 53.916,15.124 54.201,14.96 C54.486,14.7949 54.948,14.7949 55.233,14.96 Z" id="Fill-94" fill="#171310"></path>
            <path d="M57.93,13.4029 C58.215,13.5669 58.215,13.8339 57.93,13.9979 C57.645,14.163 57.183,14.163 56.898,13.9979 C56.613,13.8339 56.613,13.5669 56.898,13.4029 C57.183,13.238 57.645,13.238 57.93,13.4029 Z" id="Fill-95" fill="#171310"></path>
            <path d="M40.712,19.633 C40.996,19.469 41.458,19.4679 41.744,19.6319 C42.029,19.7959 42.03,20.0629 41.745,20.228 C41.461,20.3929 40.999,20.3929 40.714,20.229 C40.429,20.065 40.428,19.798 40.712,19.633 Z" id="Fill-96" fill="#171310"></path>
            <path d="M44.444,18.074 C44.729,18.2389 44.729,18.505 44.444,18.6699 C44.159,18.8339 43.697,18.8339 43.412,18.6699 C43.128,18.505 43.128,18.2389 43.412,18.074 C43.697,17.91 44.159,17.91 44.444,18.074 Z" id="Fill-97" fill="#171310"></path>
            <path d="M47.141,16.517 C47.426,16.681 47.426,16.948 47.141,17.113 C46.856,17.2769 46.394,17.2769 46.11,17.113 C45.825,16.948 45.825,16.681 46.11,16.517 C46.394,16.3519 46.856,16.3519 47.141,16.517 Z" id="Fill-98" fill="#171310"></path>
            <path d="M49.838,14.96 C50.123,15.124 50.123,15.3909 49.838,15.555 C49.554,15.72 49.092,15.72 48.807,15.555 C48.522,15.3909 48.522,15.124 48.807,14.96 C49.092,14.7949 49.554,14.7949 49.838,14.96 Z" id="Fill-99" fill="#171310"></path>
            <path d="M52.535,13.4029 C52.82,13.5669 52.82,13.8339 52.535,13.9979 C52.251,14.163 51.789,14.163 51.504,13.9979 C51.219,13.8339 51.219,13.5669 51.504,13.4029 C51.789,13.238 52.251,13.238 52.535,13.4029 Z" id="Fill-100" fill="#171310"></path>
            <path d="M55.233,11.845 C55.517,12.0099 55.517,12.276 55.233,12.4409 C54.948,12.6049 54.486,12.6049 54.201,12.4409 C53.916,12.2769 53.916,12.0099 54.201,11.845 C54.486,11.681 54.948,11.681 55.233,11.845 Z" id="Fill-101" fill="#171310"></path>
            <path d="M38.015,18.0759 C38.299,17.9109 38.761,17.9109 39.046,18.0749 C39.332,18.2389 39.333,18.5059 39.048,18.6709 C38.764,18.835 38.302,18.836 38.017,18.672 C37.731,18.508 37.731,18.241 38.015,18.0759 Z" id="Fill-102" fill="#171310"></path>
            <path d="M41.747,16.517 C42.032,16.681 42.032,16.948 41.747,17.113 C41.462,17.2769 41,17.2769 40.715,17.113 C40.43,16.948 40.43,16.681 40.715,16.517 C41,16.3519 41.462,16.3519 41.747,16.517 Z" id="Fill-103" fill="#171310"></path>
            <path d="M44.444,14.96 C44.729,15.124 44.729,15.3909 44.444,15.555 C44.159,15.72 43.697,15.72 43.412,15.555 C43.128,15.3909 43.128,15.124 43.412,14.96 C43.697,14.7949 44.159,14.7949 44.444,14.96 Z" id="Fill-104" fill="#171310"></path>
            <path d="M47.141,13.4029 C47.426,13.5669 47.426,13.8339 47.141,13.9979 C46.856,14.163 46.394,14.163 46.11,13.9979 C45.825,13.8339 45.825,13.5669 46.11,13.4029 C46.395,13.238 46.856,13.238 47.141,13.4029 Z" id="Fill-105" fill="#171310"></path>
            <path d="M49.838,11.845 C50.123,12.0099 50.123,12.2769 49.838,12.4409 C49.554,12.6049 49.092,12.6049 48.807,12.4409 C48.522,12.2769 48.522,12.0099 48.807,11.845 C49.092,11.681 49.554,11.681 49.838,11.845 Z" id="Fill-106" fill="#171310"></path>
            <path d="M52.536,10.288 C52.82,10.453 52.82,10.719 52.536,10.884 C52.251,11.048 51.789,11.048 51.504,10.884 C51.219,10.719 51.219,10.453 51.504,10.288 C51.789,10.124 52.251,10.124 52.536,10.288 Z" id="Fill-107" fill="#171310"></path>
            <path d="M35.318,16.5189 C35.602,16.354 36.064,16.354 36.349,16.518 C36.635,16.682 36.636,16.949 36.351,17.1139 C36.067,17.2779 35.605,17.279 35.32,17.1149 C35.034,16.9499 35.033,16.6839 35.318,16.5189 Z" id="Fill-108" fill="#171310"></path>
            <path d="M39.05,14.96 C39.335,15.124 39.335,15.3909 39.05,15.555 C38.765,15.72 38.303,15.72 38.018,15.555 C37.733,15.3909 37.733,15.124 38.018,14.96 C38.303,14.7949 38.765,14.7949 39.05,14.96 Z" id="Fill-109" fill="#171310"></path>
            <path d="M41.747,13.4029 C42.032,13.5669 42.032,13.8339 41.747,13.9979 C41.462,14.163 41,14.163 40.715,13.9979 C40.431,13.8339 40.431,13.5669 40.715,13.4029 C41,13.238 41.462,13.238 41.747,13.4029 Z" id="Fill-110" fill="#171310"></path>
            <path d="M44.444,11.845 C44.729,12.0099 44.729,12.2769 44.444,12.4409 C44.159,12.6059 43.697,12.6059 43.413,12.4409 C43.128,12.2769 43.128,12.0099 43.413,11.845 C43.697,11.681 44.159,11.681 44.444,11.845 Z" id="Fill-111" fill="#171310"></path>
            <path d="M47.141,10.288 C47.426,10.453 47.426,10.719 47.141,10.884 C46.856,11.048 46.395,11.048 46.11,10.884 C45.825,10.719 45.825,10.453 46.11,10.288 C46.395,10.124 46.856,10.124 47.141,10.288 Z" id="Fill-112" fill="#171310"></path>
            <path d="M49.838,8.7309 C50.123,8.896 50.123,9.1619 49.838,9.327 C49.554,9.491 49.092,9.491 48.807,9.327 C48.522,9.1619 48.522,8.896 48.807,8.7309 C49.092,8.5669 49.554,8.5669 49.838,8.7309 Z" id="Fill-113" fill="#171310"></path>
            <path d="M32.597,14.945 C32.882,14.781 33.343,14.78 33.629,14.944 C33.914,15.1089 33.915,15.375 33.631,15.5399 C33.346,15.7049 32.884,15.7049 32.599,15.5409 C32.314,15.3769 32.313,15.1099 32.597,14.945 Z" id="Fill-114" fill="#171310"></path>
            <path d="M36.329,13.3859 C36.614,13.551 36.614,13.8169 36.329,13.982 C36.045,14.146 35.583,14.146 35.298,13.982 C35.013,13.8169 35.013,13.551 35.298,13.3859 C35.583,13.2219 36.045,13.2219 36.329,13.3859 Z" id="Fill-115" fill="#171310"></path>
            <path d="M39.026,11.8289 C39.311,11.9939 39.311,12.2599 39.026,12.4249 C38.742,12.5889 38.28,12.5889 37.995,12.4249 C37.71,12.2599 37.71,11.9939 37.995,11.8289 C38.28,11.6649 38.742,11.6649 39.026,11.8289 Z" id="Fill-116" fill="#171310"></path>
            <path d="M41.724,10.272 C42.008,10.436 42.008,10.703 41.724,10.867 C41.439,11.0319 40.977,11.0319 40.692,10.867 C40.407,10.703 40.407,10.436 40.692,10.272 C40.977,10.107 41.439,10.107 41.724,10.272 Z" id="Fill-117" fill="#171310"></path>
            <path d="M44.421,8.715 C44.706,8.879 44.706,9.146 44.421,9.31 C44.136,9.475 43.674,9.475 43.389,9.31 C43.104,9.146 43.104,8.879 43.389,8.715 C43.674,8.5499 44.136,8.5499 44.421,8.715 Z" id="Fill-118" fill="#171310"></path>
            <path d="M47.118,7.1569 C47.403,7.3219 47.403,7.5889 47.118,7.7529 C46.833,7.918 46.371,7.918 46.086,7.7529 C45.801,7.5889 45.801,7.3219 46.086,7.1569 C46.371,6.9929 46.833,6.9929 47.118,7.1569 Z" id="Fill-119" fill="#171310"></path>
            <path d="M29.9,13.388 C30.184,13.223 30.646,13.223 30.932,13.387 C31.217,13.551 31.218,13.818 30.934,13.983 C30.649,14.1479 30.188,14.1479 29.902,13.9839 C29.617,13.82 29.616,13.5529 29.9,13.388 C30.184,13.223 29.616,13.5529 29.9,13.388 Z" id="Fill-120" fill="#171310"></path>
            <path d="M32.601,11.8289 C32.886,11.6649 33.347,11.6649 33.632,11.8289 C33.917,11.9939 33.917,12.2599 33.632,12.4249 C33.347,12.5889 32.886,12.5889 32.601,12.4249 C32.316,12.2599 32.316,11.9939 32.601,11.8289 C32.886,11.6649 32.316,11.9939 32.601,11.8289 Z" id="Fill-121" fill="#171310"></path>
            <path d="M35.298,10.272 C35.583,10.107 36.045,10.107 36.329,10.272 C36.614,10.436 36.614,10.703 36.329,10.867 C36.045,11.0319 35.583,11.0319 35.298,10.867 C35.013,10.703 35.013,10.436 35.298,10.272 C35.583,10.107 35.013,10.436 35.298,10.272 Z" id="Fill-122" fill="#171310"></path>
            <path d="M39.026,8.715 C39.311,8.879 39.311,9.146 39.026,9.31 C38.742,9.475 38.28,9.475 37.995,9.31 C37.71,9.146 37.71,8.879 37.995,8.715 C38.28,8.5499 38.742,8.5499 39.026,8.715 Z" id="Fill-123" fill="#171310"></path>
            <path d="M41.724,7.1569 C42.008,7.3219 42.008,7.5889 41.724,7.7529 C41.439,7.918 40.977,7.918 40.692,7.7529 C40.407,7.5889 40.407,7.3219 40.692,7.1569 C40.977,6.9929 41.439,6.9929 41.724,7.1569 Z" id="Fill-124" fill="#171310"></path>
            <path d="M44.421,5.6 C44.706,5.7649 44.706,6.031 44.421,6.1959 C44.136,6.3599 43.674,6.3599 43.389,6.1959 C43.104,6.031 43.104,5.7649 43.389,5.6 C43.674,5.436 44.136,5.436 44.421,5.6 Z" id="Fill-125" fill="#171310"></path>
            <path d="M47.118,4.043 C47.403,4.208 47.403,4.474 47.118,4.639 C46.833,4.8029 46.371,4.8029 46.086,4.639 C45.801,4.474 45.801,4.208 46.086,4.043 C46.371,3.879 46.833,3.879 47.118,4.043 Z" id="Fill-126" fill="#171310"></path>
            <polygon id="Fill-127" fill="#FEBE2E" points="4.498 29.1039 2.63 27.9959 2.647 27.594 3.939 27.963 4.53 28.314"></polygon>
            <polygon id="Fill-128" fill="#FEBE2E" points="4.529 28.321 6.193 27.206 5.58 26.812 3.916 27.9269"></polygon>
            <polygon id="Fill-129" fill="#FEBE2E" points="2.647 27.594 4.299 26.5219 5.58 26.812 3.916 27.9269"></polygon>
            <polygon id="Fill-130" fill="#FFEFCD" points="5.564 27.252 4.283 26.9619 2.993 27.782 4.263 28.1149 4.562 28.293 5.863 27.43"></polygon>
            <path d="M4.535,28.146 L4.488,28.118 L4.181,27.9209 L3.895,27.7699 L3,27.5349 L4.321,26.678 L5.221,26.881 L5.577,26.986 L5.928,27.2119 L4.535,28.146 Z M4.363,28.8519 L2.779,27.9119 L2.784,27.786 L3.861,28.09 L4.298,28.348 L4.381,28.402 L4.363,28.8519 Z M5.642,26.676 L4.277,26.3669 L2.505,27.5159 L2.482,28.0799 L4.633,29.3559 L4.671,28.398 L6.458,27.2 L5.642,26.676 Z" id="Fill-131" fill="#171310"></path>
            <polygon id="Fill-132" fill="#FEBE2E" points="8.536 26.823 6.669 25.715 6.685 25.3129 7.977 25.682 8.568 26.0329"></polygon>
            <polygon id="Fill-133" fill="#FEBE2E" points="8.568 26.04 10.232 24.9249 9.619 24.5309 7.955 25.6469"></polygon>
            <polygon id="Fill-134" fill="#FEBE2E" points="6.685 25.3129 8.338 24.241 9.619 24.5309 7.955 25.6469"></polygon>
            <polygon id="Fill-135" fill="#FFEFCD" points="9.602 24.972 8.321 24.681 7.032 25.501 8.301 25.8349 8.6 26.012 9.901 25.1489"></polygon>
            <path d="M8.573,25.8649 L8.527,25.838 L8.22,25.6409 L7.933,25.489 L7.039,25.254 L8.36,24.3969 L9.259,24.601 L9.615,24.706 L9.967,24.931 L8.573,25.8649 Z M8.402,26.571 L6.817,25.631 L6.823,25.5049 L7.9,25.8089 L8.336,26.068 L8.42,26.1209 L8.402,26.571 Z M9.68,24.3949 L8.315,24.086 L6.543,25.2349 L6.521,25.799 L8.671,27.075 L8.71,26.1169 L10.497,24.9189 L9.68,24.3949 Z" id="Fill-136" fill="#171310"></path>
            <polygon id="Fill-137" fill="#FEBE2E" points="12.575 24.504 10.707 23.396 10.724 22.9939 12.016 23.364 12.607 23.7139"></polygon>
            <polygon id="Fill-138" fill="#FEBE2E" points="12.606 23.721 14.27 22.6059 13.657 22.213 11.993 23.3279"></polygon>
            <polygon id="Fill-139" fill="#FEBE2E" points="10.724 22.9939 12.376 21.9229 13.657 22.213 11.993 23.3279"></polygon>
            <polygon id="Fill-140" fill="#FFEFCD" points="13.641 22.653 12.36 22.3629 11.07 23.183 12.34 23.5159 12.639 23.694 13.94 22.8299"></polygon>
            <path d="M12.612,23.5459 L12.565,23.519 L12.258,23.3219 L11.972,23.17 L11.077,22.935 L12.399,22.0779 L13.298,22.282 L13.654,22.387 L14.005,22.612 L12.612,23.5459 Z M12.44,24.252 L10.856,23.312 L10.861,23.1859 L11.938,23.4899 L12.375,23.749 L12.458,23.8019 L12.44,24.252 Z M13.719,22.0759 L12.354,21.767 L10.582,22.9159 L10.559,23.4809 L12.71,24.7569 L12.748,23.7979 L14.535,22.5999 L13.719,22.0759 Z" id="Fill-141" fill="#171310"></path>
            <polygon id="Fill-142" fill="#FEBE2E" points="16.613 22.189 14.746 21.0799 14.762 20.6789 16.054 21.0479 16.645 21.398"></polygon>
            <polygon id="Fill-143" fill="#FEBE2E" points="16.645 21.405 18.309 20.2899 17.696 19.897 16.032 21.012"></polygon>
            <polygon id="Fill-144" fill="#FEBE2E" points="14.762 20.6789 16.415 19.607 17.696 19.897 16.032 21.012"></polygon>
            <polygon id="Fill-145" fill="#FFEFCD" points="17.679 20.3369 16.399 20.047 15.109 20.8669 16.378 21.2 16.678 21.3779 17.978 20.514"></polygon>
            <path d="M16.65,21.23 L16.604,21.2029 L16.297,21.006 L16.01,20.8539 L15.116,20.6189 L16.437,19.762 L17.336,19.966 L17.692,20.0709 L18.044,20.2959 L16.65,21.23 Z M16.479,21.937 L14.895,20.9959 L14.9,20.87 L15.977,21.174 L16.413,21.433 L16.497,21.486 L16.479,21.937 Z M17.757,19.7599 L16.392,19.4509 L14.62,20.5999 L14.598,21.165 L16.748,22.441 L16.787,21.482 L18.574,20.284 L17.757,19.7599 Z" id="Fill-146" fill="#171310"></path>
            <polygon id="Fill-147" fill="#FEBE2E" points="20.652 19.87 18.784 18.762 18.801 18.3599 20.093 18.729 20.684 19.0799"></polygon>
            <polygon id="Fill-148" fill="#FEBE2E" points="20.683 19.087 22.347 17.9709 21.734 17.578 20.07 18.693"></polygon>
            <polygon id="Fill-149" fill="#FEBE2E" points="18.801 18.3599 20.453 17.288 21.734 17.578 20.07 18.693"></polygon>
            <polygon id="Fill-150" fill="#FFEFCD" points="21.718 18.018 20.437 17.728 19.147 18.548 20.417 18.8809 20.716 19.0589 22.017 18.1959"></polygon>
            <path d="M20.689,18.9109 L20.642,18.884 L20.335,18.6869 L20.049,18.535 L19.154,18.301 L20.476,17.443 L21.375,17.647 L21.731,17.7519 L22.082,17.978 L20.689,18.9109 Z M20.517,19.6179 L18.933,18.677 L18.938,18.551 L20.015,18.8549 L20.452,19.1139 L20.535,19.167 L20.517,19.6179 Z M21.796,17.4419 L20.431,17.133 L18.659,18.2819 L18.636,18.8459 L20.787,20.1219 L20.826,19.163 L22.612,17.965 L21.796,17.4419 Z" id="Fill-151" fill="#171310"></path>
            <polygon id="Fill-152" fill="#FEBE2E" points="24.69 17.6149 22.823 16.5069 22.839 16.1049 24.131 16.474 24.722 16.824"></polygon>
            <polygon id="Fill-153" fill="#FEBE2E" points="24.722 16.832 26.386 15.716 25.773 15.323 24.109 16.4379"></polygon>
            <polygon id="Fill-154" fill="#FEBE2E" points="22.839 16.1049 24.492 15.0329 25.773 15.323 24.109 16.4379"></polygon>
            <polygon id="Fill-155" fill="#FFEFCD" points="25.757 15.763 24.475 15.473 23.186 16.293 24.455 16.626 24.755 16.8039 26.056 15.9409"></polygon>
            <path d="M24.727,16.656 L24.681,16.629 L24.374,16.432 L24.087,16.28 L23.193,16.0459 L24.514,15.1879 L25.413,15.392 L25.769,15.4969 L26.121,15.723 L24.727,16.656 Z M24.556,17.363 L22.972,16.422 L22.977,16.2959 L24.054,16.6 L24.49,16.8589 L24.574,16.9119 L24.556,17.363 Z M25.834,15.1869 L24.469,14.8769 L22.697,16.0269 L22.675,16.591 L24.825,17.867 L24.864,16.9079 L26.651,15.71 L25.834,15.1869 Z" id="Fill-156" fill="#171310"></path>
            <polygon id="Fill-157" fill="#FEBE2E" points="28.729 15.2959 26.861 14.1879 26.878 13.7859 28.17 14.155 28.761 14.5059"></polygon>
            <polygon id="Fill-158" fill="#FEBE2E" points="28.761 14.513 30.425 13.3979 29.811 13.004 28.147 14.1189"></polygon>
            <polygon id="Fill-159" fill="#FEBE2E" points="26.878 13.7859 28.53 12.7139 29.811 13.004 28.147 14.1189"></polygon>
            <polygon id="Fill-160" fill="#FFEFCD" points="29.795 13.444 28.514 13.154 27.225 13.974 28.494 14.307 28.793 14.4849 30.094 13.6219"></polygon>
            <path d="M28.766,14.337 L28.72,14.31 L28.412,14.113 L28.126,13.961 L27.231,13.7269 L28.553,12.87 L29.452,13.073 L29.808,13.1779 L30.159,13.404 L28.766,14.337 Z M28.594,15.044 L27.01,14.104 L27.015,13.9769 L28.092,14.2819 L28.529,14.5399 L28.612,14.594 L28.594,15.044 Z M29.873,12.8679 L28.508,12.5589 L26.736,13.708 L26.713,14.272 L28.864,15.548 L28.902,14.5889 L30.689,13.392 L29.873,12.8679 Z" id="Fill-161" fill="#171310"></path>
            <polygon id="Fill-162" fill="#FEBE2E" points="32.767 12.9799 30.9 11.8719 30.916 11.47 32.208 11.8389 32.799 12.19"></polygon>
            <polygon id="Fill-163" fill="#FEBE2E" points="32.799 12.1969 34.463 11.082 33.85 10.6879 32.186 11.8029"></polygon>
            <polygon id="Fill-164" fill="#FEBE2E" points="30.916 11.47 32.569 10.3979 33.85 10.6879 32.186 11.8029"></polygon>
            <polygon id="Fill-165" fill="#FFEFCD" points="33.834 11.1279 32.552 10.8379 31.263 11.6579 32.533 11.991 32.832 12.169 34.133 11.306"></polygon>
            <path d="M32.804,12.021 L32.758,11.9939 L32.451,11.797 L32.164,11.646 L31.27,11.4109 L32.591,10.5539 L33.49,10.7569 L33.846,10.862 L34.198,11.0879 L32.804,12.021 Z M32.633,12.728 L31.049,11.788 L31.054,11.6609 L32.131,11.966 L32.567,12.224 L32.651,12.2779 L32.633,12.728 Z M33.912,10.552 L32.546,10.2429 L30.774,11.392 L30.752,11.956 L32.902,13.232 L32.941,12.2739 L34.728,11.0759 L33.912,10.552 Z" id="Fill-166" fill="#171310"></path>
            <polygon id="Fill-167" fill="#FEBE2E" points="36.806 10.6609 34.938 9.5529 34.955 9.151 36.247 9.5199 36.838 9.871"></polygon>
            <polygon id="Fill-168" fill="#FEBE2E" points="36.837 9.8779 38.501 8.763 37.888 8.3689 36.224 9.4839"></polygon>
            <polygon id="Fill-169" fill="#FEBE2E" points="34.955 9.151 36.607 8.0789 37.888 8.3689 36.224 9.4839"></polygon>
            <polygon id="Fill-170" fill="#FFEFCD" points="37.872 8.8089 36.591 8.5189 35.302 9.3389 36.571 9.673 36.87 9.85 38.171 8.987"></polygon>
            <path d="M36.843,9.703 L36.797,9.676 L36.489,9.479 L36.203,9.327 L35.308,9.0919 L36.63,8.2349 L37.529,8.4379 L37.885,8.543 L38.236,8.7689 L36.843,9.703 Z M36.671,10.409 L35.087,9.469 L35.092,9.3429 L36.169,9.647 L36.606,9.905 L36.689,9.9589 L36.671,10.409 Z M37.95,8.233 L36.585,7.9239 L34.813,9.073 L34.79,9.637 L36.941,10.913 L36.98,9.9549 L38.767,8.7569 L37.95,8.233 Z" id="Fill-171" fill="#171310"></path>
            <polygon id="Fill-172" fill="#FEBE2E" points="40.847 8.4 38.979 7.292 38.996 6.8899 40.288 7.2599 40.879 7.6099"></polygon>
            <polygon id="Fill-173" fill="#FEBE2E" points="40.878 7.617 42.542 6.5019 41.929 6.1089 40.265 7.224"></polygon>
            <polygon id="Fill-174" fill="#FEBE2E" points="38.996 6.8899 40.648 5.819 41.929 6.1089 40.265 7.224"></polygon>
            <polygon id="Fill-175" fill="#FFEFCD" points="41.913 6.5489 40.632 6.259 39.342 7.0789 40.612 7.4119 40.911 7.59 42.212 6.7259"></polygon>
            <path d="M40.884,7.4419 L40.837,7.4149 L40.53,7.2179 L40.244,7.0659 L39.349,6.831 L40.67,5.974 L41.57,6.1779 L41.926,6.2829 L42.277,6.508 L40.884,7.4419 Z M40.712,8.1479 L39.128,7.208 L39.133,7.082 L40.21,7.3859 L40.647,7.6449 L40.73,7.698 L40.712,8.1479 Z M41.991,5.9719 L40.626,5.663 L38.854,6.8119 L38.831,7.3769 L40.982,8.6529 L41.02,7.694 L42.807,6.496 L41.991,5.9719 Z" id="Fill-176" fill="#171310"></path>
            <polygon id="Fill-177" fill="#FEBE2E" points="44.885 6.082 43.018 4.974 43.034 4.5719 44.326 4.9409 44.917 5.2909"></polygon>
            <polygon id="Fill-178" fill="#FEBE2E" points="44.917 5.298 46.581 4.1829 45.968 3.7899 44.304 4.905"></polygon>
            <polygon id="Fill-179" fill="#FEBE2E" points="43.034 4.5719 44.687 3.5 45.968 3.7899 44.304 4.905"></polygon>
            <polygon id="Fill-180" fill="#FFEFCD" points="45.951 4.2299 44.67 3.94 43.381 4.7599 44.65 5.0929 44.949 5.271 46.25 4.4079"></polygon>
            <path d="M44.922,5.1229 L44.876,5.0959 L44.569,4.8989 L44.282,4.7469 L43.388,4.513 L44.709,3.655 L45.608,3.8589 L45.964,3.9639 L46.316,4.19 L44.922,5.1229 Z M44.75,5.8299 L43.166,4.889 L43.171,4.763 L44.249,5.0669 L44.685,5.3259 L44.769,5.379 L44.75,5.8299 Z M46.029,3.654 L44.664,3.344 L42.892,4.4939 L42.87,5.0579 L45.02,6.3339 L45.059,5.375 L46.846,4.177 L46.029,3.654 Z" id="Fill-181" fill="#171310"></path>
            <polygon id="Fill-182" fill="#FEBE2E" points="48.924 3.766 47.056 2.6579 47.073 2.2559 48.365 2.625 48.956 2.9759"></polygon>
            <polygon id="Fill-183" fill="#FEBE2E" points="48.955 2.983 50.619 1.867 50.006 1.474 48.342 2.5889"></polygon>
            <polygon id="Fill-184" fill="#FEBE2E" points="47.073 2.2559 48.725 1.1839 50.006 1.474 48.342 2.5889"></polygon>
            <polygon id="Fill-185" fill="#FFEFCD" points="49.99 1.914 48.709 1.624 47.419 2.444 48.689 2.7769 48.988 2.9549 50.289 2.0919"></polygon>
            <path d="M48.961,2.807 L48.914,2.78 L48.607,2.583 L48.321,2.431 L47.426,2.1969 L48.748,1.3389 L49.647,1.543 L50.003,1.6479 L50.354,1.874 L48.961,2.807 Z M48.789,3.514 L47.205,2.573 L47.21,2.4469 L48.287,2.751 L48.724,3.0099 L48.807,3.064 L48.789,3.514 Z M50.068,1.3379 L48.703,1.029 L46.931,2.1779 L46.908,2.742 L49.059,4.018 L49.097,3.0589 L50.884,1.861 L50.068,1.3379 Z" id="Fill-186" fill="#171310"></path>
            <polygon id="Fill-187" fill="#FEBE2E" points="54.125 0.848 3.958 29.8129 2.775 29.1319 52.943 0.168"></polygon>
            <polygon id="Fill-188" fill="#FFEFCD" points="54.125 1.3549 3.958 30.32 2.775 29.639 52.943 0.6749"></polygon>
            <polygon id="Fill-189" fill="#FEBE2E" points="3.958 29.8129 3.958 30.827 54.125 1.8549 54.125 0.848"></polygon>
            <polygon id="Fill-190" fill="#FEBE2E" points="2.775 29.1319 2.775 30.135 3.958 30.827 3.958 29.8129"></polygon>
            <path d="M2.92,30.0519 L2.92,29.383 L3.813,29.896 L3.813,30.573 L2.92,30.0519 Z M52.943,0.335 L53.835,0.848 L26.546,16.604 L3.957,29.6449 L3.066,29.1319 L52.943,0.335 Z M54.27,0.7649 L52.943,0 L2.63,29.0479 L2.63,30.2179 L3.957,30.9939 L54.198,1.9809 L54.27,1.939 L54.27,0.7649 Z" id="Fill-191" fill="#171310"></path>
            <polygon id="Fill-192" fill="#FEBE2E" points="5.979 29.159 5.919 29.8819 11.956 33.435 11.956 32.736"></polygon>
            <polygon id="Fill-193" fill="#FEBE2E" points="12.012 32.7009 13.676 31.586 7.583 27.972 5.919 29.0869"></polygon>
            <polygon id="Fill-194" fill="#FFEFCD" points="12.323 32.9549 13.628 32.092 7.535 28.478 6.231 29.3409"></polygon>
            <path d="M6.036,29.793 L6.054,29.34 L11.864,32.7849 L11.846,33.232 L6.036,29.793 Z M7.583,28.144 L13.405,31.597 L12.018,32.5259 L6.192,29.0759 L7.583,28.144 Z M13.948,31.5759 L7.584,27.7999 L5.777,29.01 L5.739,29.961 L12.116,33.737 L12.154,32.778 L13.948,31.5759 Z" id="Fill-195" fill="#171310"></path>
            <polygon id="Fill-196" fill="#FEBE2E" points="10.018 26.8779 9.958 27.601 15.995 31.154 15.995 30.4549"></polygon>
            <polygon id="Fill-197" fill="#FEBE2E" points="16.051 30.4209 17.715 29.305 11.622 25.691 9.958 26.806"></polygon>
            <polygon id="Fill-198" fill="#FFEFCD" points="16.362 30.674 17.666 29.8109 11.573 26.1969 10.269 27.06"></polygon>
            <path d="M10.074,27.512 L10.093,27.0589 L15.902,30.504 L15.884,30.9509 L10.074,27.512 Z M11.621,25.8629 L17.443,29.316 L16.057,30.245 L10.23,26.7959 L11.621,25.8629 Z M17.986,29.295 L11.623,25.519 L9.816,26.73 L9.778,27.681 L16.154,31.456 L16.193,30.497 L17.986,29.295 Z" id="Fill-199" fill="#171310"></path>
            <polygon id="Fill-200" fill="#FEBE2E" points="14.056 24.5589 13.996 25.282 20.033 28.836 20.033 28.1359"></polygon>
            <polygon id="Fill-201" fill="#FEBE2E" points="20.089 28.1019 21.753 26.987 15.66 23.372 13.996 24.487"></polygon>
            <polygon id="Fill-202" fill="#FFEFCD" points="20.4 28.355 21.705 27.493 15.612 23.8779 14.308 24.741"></polygon>
            <path d="M14.113,25.193 L14.131,24.7399 L19.941,28.1859 L19.923,28.633 L14.113,25.193 Z M15.66,23.5439 L21.482,26.997 L20.095,27.926 L14.269,24.4769 L15.66,23.5439 Z M22.025,26.9769 L15.661,23.2 L13.854,24.411 L13.816,25.362 L20.193,29.137 L20.231,28.1789 L22.025,26.9769 Z" id="Fill-203" fill="#171310"></path>
            <polygon id="Fill-204" fill="#FEBE2E" points="18.095 22.243 18.035 22.9659 24.072 26.5199 24.072 25.82"></polygon>
            <polygon id="Fill-205" fill="#FEBE2E" points="24.128 25.786 25.792 24.6709 19.699 21.056 18.035 22.1709"></polygon>
            <polygon id="Fill-206" fill="#FFEFCD" points="24.439 26.04 25.743 25.1769 19.65 21.562 18.346 22.4249"></polygon>
            <path d="M18.152,22.877 L18.17,22.424 L23.979,25.87 L23.961,26.3169 L18.152,22.877 Z M19.699,21.228 L25.52,24.681 L24.134,25.6099 L18.307,22.161 L19.699,21.228 Z M26.063,24.661 L19.7,20.8839 L17.893,22.0949 L17.855,23.0459 L24.231,26.821 L24.27,25.8629 L26.063,24.661 Z" id="Fill-207" fill="#171310"></path>
            <polygon id="Fill-208" fill="#FEBE2E" points="22.134 19.9249 22.074 20.6469 28.11 24.2009 28.11 23.502"></polygon>
            <polygon id="Fill-209" fill="#FEBE2E" points="28.166 23.467 29.83 22.3519 23.738 18.737 22.074 19.853"></polygon>
            <polygon id="Fill-210" fill="#FFEFCD" points="28.477 23.721 29.782 22.8579 23.689 19.2429 22.385 20.1059"></polygon>
            <path d="M22.19,20.5589 L22.208,20.1059 L28.018,23.551 L28,23.9979 L22.19,20.5589 Z M23.737,18.909 L29.559,22.362 L28.172,23.2909 L22.346,19.8419 L23.737,18.909 Z M30.102,22.342 L23.738,18.565 L21.931,19.776 L21.893,20.7269 L28.27,24.502 L28.308,23.5439 L30.102,22.342 Z" id="Fill-211" fill="#171310"></path>
            <polygon id="Fill-212" fill="#FEBE2E" points="26.126 17.6179 26.067 18.341 32.103 21.894 32.103 21.195"></polygon>
            <polygon id="Fill-213" fill="#FEBE2E" points="32.159 21.1599 33.823 20.0449 27.731 16.431 26.067 17.5459"></polygon>
            <polygon id="Fill-214" fill="#FFEFCD" points="32.47 21.4139 33.775 20.551 27.682 16.9369 26.377 17.7999"></polygon>
            <path d="M26.183,18.2519 L26.201,17.7989 L32.011,21.2439 L31.993,21.691 L26.183,18.2519 Z M27.73,16.603 L33.552,20.056 L32.165,20.9849 L26.339,17.535 L27.73,16.603 Z M34.095,20.035 L27.731,16.259 L25.925,17.469 L25.886,18.4199 L32.263,22.196 L32.301,21.237 L34.095,20.035 Z" id="Fill-215" fill="#171310"></path>
            <polygon id="Fill-216" fill="#FEBE2E" points="30.034 15.2219 29.974 15.944 36.011 19.4979 36.011 18.7989"></polygon>
            <polygon id="Fill-217" fill="#FEBE2E" points="36.067 18.764 37.73 17.6489 31.638 14.035 29.974 15.15"></polygon>
            <polygon id="Fill-218" fill="#FFEFCD" points="36.377 19.018 37.682 18.155 31.589 14.5409 30.285 15.404"></polygon>
            <path d="M30.09,15.8559 L30.108,15.4029 L35.918,18.848 L35.9,19.2949 L30.09,15.8559 Z M31.637,14.207 L37.459,17.66 L36.073,18.5889 L30.246,15.139 L31.637,14.207 Z M38.002,17.639 L31.638,13.862 L29.831,15.073 L29.793,16.0239 L36.17,19.7989 L36.208,18.841 L38.002,17.639 Z" id="Fill-219" fill="#171310"></path>
            <polygon id="Fill-220" fill="#FEBE2E" points="34.072 12.932 34.012 13.654 40.049 17.208 40.049 16.509"></polygon>
            <polygon id="Fill-221" fill="#FEBE2E" points="40.105 16.474 41.769 15.3589 35.676 11.745 34.012 12.8599"></polygon>
            <polygon id="Fill-222" fill="#FFEFCD" points="40.416 16.728 41.72 15.8649 35.627 12.251 34.323 13.113"></polygon>
            <path d="M34.129,13.5659 L34.147,13.113 L39.956,16.5579 L39.938,17.005 L34.129,13.5659 Z M35.676,11.917 L41.497,15.37 L40.111,16.298 L34.284,12.849 L35.676,11.917 Z M42.041,15.349 L35.677,11.5719 L33.87,12.7829 L33.832,13.7339 L40.208,17.509 L40.247,16.551 L42.041,15.349 Z" id="Fill-223" fill="#171310"></path>
            <polygon id="Fill-224" fill="#FEBE2E" points="38.176 10.616 38.116 11.3379 44.153 14.892 44.153 14.193"></polygon>
            <polygon id="Fill-225" fill="#FEBE2E" points="44.209 14.1579 45.873 13.043 39.78 9.4289 38.116 10.544"></polygon>
            <polygon id="Fill-226" fill="#FFEFCD" points="44.52 14.4119 45.825 13.5489 39.732 9.935 38.428 10.798"></polygon>
            <path d="M38.233,11.25 L38.251,10.797 L44.061,14.242 L44.043,14.689 L38.233,11.25 Z M39.78,9.6009 L45.602,13.0539 L44.215,13.983 L38.389,10.5329 L39.78,9.6009 Z M46.145,13.0329 L39.781,9.2559 L37.974,10.4669 L37.936,11.418 L44.313,15.193 L44.351,14.2349 L46.145,13.0329 Z" id="Fill-227" fill="#171310"></path>
            <polygon id="Fill-228" fill="#FEBE2E" points="42.149 8.366 42.089 9.0889 48.126 12.643 48.126 11.943"></polygon>
            <polygon id="Fill-229" fill="#FEBE2E" points="48.182 11.909 49.846 10.794 43.753 7.1789 42.089 8.294"></polygon>
            <polygon id="Fill-230" fill="#FFEFCD" points="48.493 12.1619 49.797 11.2999 43.705 7.685 42.4 8.548"></polygon>
            <path d="M42.206,9 L42.224,8.547 L48.033,11.9929 L48.015,12.44 L42.206,9 Z M43.753,7.3509 L49.574,10.8039 L48.188,11.733 L42.361,8.284 L43.753,7.3509 Z M50.118,10.784 L43.754,7.0069 L41.947,8.2179 L41.909,9.169 L48.289,12.858 L48.324,11.986 L50.118,10.784 Z" id="Fill-231" fill="#171310"></path>
            <polygon id="Fill-232" fill="#FEBE2E" points="46.142 6.013 46.082 6.7349 52.119 10.289 52.119 9.5889"></polygon>
            <polygon id="Fill-233" fill="#FEBE2E" points="52.175 9.555 53.839 8.44 47.746 4.8249 46.082 5.94"></polygon>
            <polygon id="Fill-234" fill="#FFEFCD" points="52.486 9.8089 53.79 8.9459 47.697 5.331 46.393 6.194"></polygon>
            <path d="M46.199,6.647 L46.217,6.194 L52.026,9.639 L52.008,10.086 L46.199,6.647 Z M47.745,4.9969 L53.567,8.4499 L52.181,9.379 L46.354,5.93 L47.745,4.9969 Z M54.11,8.43 L47.746,4.6529 L45.94,5.8639 L45.902,6.815 L52.227,10.56 L52.317,9.6319 L54.11,8.43 Z" id="Fill-235" fill="#171310"></path>
            <polygon id="Fill-236" fill="#FEBE2E" points="50.18 3.6619 50.12 4.384 56.157 7.9379 56.157 7.2389"></polygon>
            <polygon id="Fill-237" fill="#FEBE2E" points="56.213 7.2039 57.877 6.0889 51.784 2.475 50.12 3.59"></polygon>
            <polygon id="Fill-238" fill="#FFEFCD" points="56.524 7.458 57.829 6.595 51.736 2.9799 50.432 3.8429"></polygon>
            <path d="M50.237,4.2959 L50.255,3.8429 L56.065,7.288 L56.047,7.7349 L50.237,4.2959 Z M51.784,2.647 L57.606,6.099 L56.22,7.0279 L50.393,3.5789 L51.784,2.647 Z M58.149,6.0789 L51.785,2.302 L49.978,3.513 L49.94,4.4639 L56.209,8.1749 L56.355,7.281 L58.149,6.0789 Z" id="Fill-239" fill="#171310"></path>
            <polygon id="Fill-240" fill="#FEBE2E" points="60.725 4.741 10.557 33.7049 9.375 33.0239 59.542 4.06"></polygon>
            <polygon id="Fill-241" fill="#FFEFCD" points="60.725 5.2479 10.557 34.2119 9.375 33.5309 59.543 4.5669"></polygon>
            <polygon id="Fill-242" fill="#FEBE2E" points="10.557 33.7049 10.557 34.719 60.725 5.7469 60.725 4.741"></polygon>
            <polygon id="Fill-243" fill="#FEBE2E" points="9.375 33.0239 9.375 34.027 10.557 34.719 10.557 33.7049"></polygon>
            <path d="M9.52,33.944 L9.52,33.275 L10.412,33.7889 L10.412,34.465 L9.52,33.944 Z M59.543,4.2269 L60.434,4.741 L33.145,20.4959 L10.557,33.5369 L9.666,33.0239 L59.543,4.2269 Z M60.87,4.6569 L59.543,3.893 L9.23,32.9399 L9.23,34.1099 L10.557,34.8859 L60.797,5.8729 L60.87,5.831 L60.87,4.6569 Z" id="Fill-244" fill="#171310"></path>
            <polygon id="Fill-245" fill="#FEBE2E" points="14.422 34.829 12.555 33.721 12.587 32.931 13.159 33.271 14.439 34.4269"></polygon>
            <polygon id="Fill-246" fill="#FEBE2E" points="12.587 32.931 14.251 31.816 14.823 32.1559 13.159 33.271"></polygon>
            <polygon id="Fill-247" fill="#FEBE2E" points="14.439 34.4269 16.103 33.312 14.823 32.1559 13.159 33.271"></polygon>
            <polygon id="Fill-248" fill="#FFEFCD" points="14.743 32.558 14.17 32.2179 12.874 33.081 13.446 33.42 14.726 34.577 16.022 33.7139"></polygon>
            <path d="M14.457,34.243 L13.395,33.284 L13.159,33.098 L13.089,33.0569 L12.859,32.9209 L14.25,31.9879 L14.551,32.1659 L14.805,32.3389 L15.866,33.299 L14.457,34.243 Z M14.288,34.577 L12.703,33.637 L12.722,33.183 L13.07,33.39 L13.994,34.2249 L14.291,34.4939 L14.288,34.577 Z M14.913,32.0369 L14.251,31.644 L12.445,32.855 L12.406,33.806 L14.422,35.001 L16.228,33.7909 L16.25,33.2459 L14.913,32.0369 Z" id="Fill-249" fill="#171310"></path>
            <polygon id="Fill-250" fill="#FEBE2E" points="18.461 32.549 16.594 31.4399 16.625 30.65 17.198 30.9899 18.477 32.1469"></polygon>
            <polygon id="Fill-251" fill="#FEBE2E" points="16.625 30.65 18.289 29.5349 18.862 29.875 17.198 30.9899"></polygon>
            <polygon id="Fill-252" fill="#FEBE2E" points="18.477 32.1469 20.141 31.0309 18.862 29.875 17.198 30.9899"></polygon>
            <polygon id="Fill-253" fill="#FFEFCD" points="18.781 30.277 18.209 29.937 16.912 30.7999 17.485 31.14 18.764 32.2959 20.061 31.433"></polygon>
            <path d="M18.495,31.963 L17.434,31.0029 L17.198,30.818 L17.128,30.7759 L16.898,30.64 L18.289,29.708 L18.589,29.885 L18.844,30.0589 L19.905,31.0179 L18.495,31.963 Z M18.326,32.2959 L16.742,31.3559 L16.76,30.903 L17.109,31.109 L18.033,31.944 L18.33,32.213 L18.326,32.2959 Z M18.951,29.756 L18.29,29.3629 L16.483,30.5739 L16.445,31.525 L18.461,32.7199 L20.267,31.51 L20.289,30.965 L18.951,29.756 Z" id="Fill-254" fill="#171310"></path>
            <polygon id="Fill-255" fill="#FEBE2E" points="22.499 30.23 20.632 29.122 20.664 28.3319 21.236 28.6709 22.516 29.8279"></polygon>
            <polygon id="Fill-256" fill="#FEBE2E" points="20.664 28.3319 22.328 27.2159 22.9 27.556 21.236 28.6709"></polygon>
            <polygon id="Fill-257" fill="#FEBE2E" points="22.516 29.8279 24.18 28.713 22.9 27.556 21.236 28.6709"></polygon>
            <polygon id="Fill-258" fill="#FFEFCD" points="22.82 27.958 22.248 27.618 20.951 28.4809 21.523 28.821 22.803 29.9769 24.099 29.1149"></polygon>
            <path d="M22.534,29.644 L21.472,28.685 L21.236,28.499 L21.167,28.4569 L20.936,28.321 L22.328,27.389 L22.628,27.566 L22.882,27.7399 L23.943,28.6989 L22.534,29.644 Z M22.365,29.9769 L20.78,29.038 L20.799,28.584 L21.147,28.79 L22.071,29.626 L22.368,29.894 L22.365,29.9769 Z M22.99,27.437 L22.328,27.0439 L20.522,28.2549 L20.484,29.206 L22.499,30.4009 L24.305,29.191 L24.327,28.646 L22.99,27.437 Z" id="Fill-259" fill="#171310"></path>
            <polygon id="Fill-260" fill="#FEBE2E" points="26.538 27.9139 24.671 26.806 24.702 26.0159 25.275 26.355 26.554 27.512"></polygon>
            <polygon id="Fill-261" fill="#FEBE2E" points="24.702 26.0159 26.366 24.9009 26.939 25.2399 25.275 26.355"></polygon>
            <polygon id="Fill-262" fill="#FEBE2E" points="26.554 27.512 28.218 26.3969 26.939 25.2399 25.275 26.355"></polygon>
            <polygon id="Fill-263" fill="#FFEFCD" points="26.858 25.642 26.286 25.3019 24.989 26.165 25.562 26.5049 26.841 27.6619 28.138 26.799"></polygon>
            <path d="M26.572,27.3279 L25.511,26.3689 L25.275,26.183 L25.205,26.1409 L24.975,26.0049 L26.366,25.073 L26.666,25.251 L26.921,25.424 L27.982,26.383 L26.572,27.3279 Z M26.403,27.6619 L24.819,26.722 L24.837,26.2679 L25.186,26.4749 L26.11,27.31 L26.407,27.5779 L26.403,27.6619 Z M27.028,25.1209 L26.367,24.7289 L24.56,25.939 L24.522,26.89 L26.538,28.086 L28.344,26.875 L28.366,26.3299 L27.028,25.1209 Z" id="Fill-264" fill="#171310"></path>
            <polygon id="Fill-265" fill="#FEBE2E" points="30.576 25.5949 28.709 24.487 28.741 23.6969 29.313 24.036 30.593 25.193"></polygon>
            <polygon id="Fill-266" fill="#FEBE2E" points="28.741 23.6969 30.405 22.5819 30.977 22.9209 29.313 24.036"></polygon>
            <polygon id="Fill-267" fill="#FEBE2E" points="30.593 25.193 32.257 24.0779 30.977 22.9209 29.313 24.036"></polygon>
            <polygon id="Fill-268" fill="#FFEFCD" points="30.897 23.323 30.324 22.984 29.028 23.846 29.6 24.1859 30.88 25.3429 32.176 24.48"></polygon>
            <path d="M30.611,25.0089 L29.549,24.0499 L29.314,23.864 L29.244,23.823 L29.013,23.6859 L30.405,22.754 L30.705,22.932 L30.959,23.105 L32.02,24.064 L30.611,25.0089 Z M30.442,25.3429 L28.857,24.403 L28.876,23.9489 L29.224,24.1559 L30.148,24.991 L30.445,25.2589 L30.442,25.3429 Z M31.067,22.8019 L30.405,22.4099 L28.599,23.62 L28.561,24.571 L30.576,25.767 L32.382,24.556 L32.404,24.0109 L31.067,22.8019 Z" id="Fill-269" fill="#171310"></path>
            <polygon id="Fill-270" fill="#FEBE2E" points="34.615 23.25 32.748 22.142 32.779 21.351 33.352 21.691 34.631 22.848"></polygon>
            <polygon id="Fill-271" fill="#FEBE2E" points="32.779 21.351 34.443 20.236 35.016 20.5759 33.352 21.691"></polygon>
            <polygon id="Fill-272" fill="#FEBE2E" points="34.631 22.848 36.295 21.7329 35.016 20.5759 33.352 21.691"></polygon>
            <polygon id="Fill-273" fill="#FFEFCD" points="34.935 20.978 34.363 20.6379 33.067 21.501 33.639 21.8409 34.918 22.997 36.215 22.135"></polygon>
            <path d="M34.649,22.6639 L33.588,21.7049 L33.352,21.519 L33.282,21.4769 L33.052,21.3409 L34.443,20.409 L34.744,20.586 L34.998,20.76 L36.059,21.719 L34.649,22.6639 Z M34.48,22.997 L32.896,22.058 L32.914,21.6039 L33.263,21.81 L34.187,22.646 L34.484,22.9139 L34.48,22.997 Z M35.106,20.4569 L34.444,20.064 L32.637,21.275 L32.599,22.226 L34.615,23.4209 L36.421,22.211 L36.443,21.6659 L35.106,20.4569 Z" id="Fill-274" fill="#171310"></path>
            <polygon id="Fill-275" fill="#FEBE2E" points="38.654 20.8819 36.786 19.7739 36.818 18.9839 37.39 19.323 38.67 20.48"></polygon>
            <polygon id="Fill-276" fill="#FEBE2E" points="36.818 18.9839 38.482 17.8689 39.054 18.208 37.39 19.323"></polygon>
            <polygon id="Fill-277" fill="#FEBE2E" points="38.67 20.48 40.334 19.3649 39.054 18.208 37.39 19.323"></polygon>
            <polygon id="Fill-278" fill="#FFEFCD" points="38.974 18.6099 38.401 18.271 37.105 19.133 37.677 19.473 38.957 20.6299 40.253 19.767"></polygon>
            <path d="M38.688,20.2959 L37.626,19.337 L37.391,19.151 L37.321,19.1099 L37.09,18.973 L38.482,18.0409 L38.782,18.219 L39.037,18.392 L40.097,19.3509 L38.688,20.2959 Z M38.519,20.6299 L36.934,19.69 L36.953,19.236 L37.301,19.443 L38.225,20.2779 L38.522,20.5459 L38.519,20.6299 Z M39.144,18.0889 L38.482,17.6969 L36.676,18.9069 L36.638,19.858 L38.653,21.0539 L40.459,19.8429 L40.481,19.298 L39.144,18.0889 Z" id="Fill-279" fill="#171310"></path>
            <polygon id="Fill-280" fill="#FEBE2E" points="42.692 18.6149 40.825 17.5069 40.856 16.7169 41.429 17.056 42.708 18.2129"></polygon>
            <polygon id="Fill-281" fill="#FEBE2E" points="40.856 16.7169 42.52 15.6019 43.093 15.9409 41.429 17.056"></polygon>
            <polygon id="Fill-282" fill="#FEBE2E" points="42.708 18.2129 44.372 17.098 43.093 15.9409 41.429 17.056"></polygon>
            <polygon id="Fill-283" fill="#FFEFCD" points="43.012 16.3429 42.44 16.004 41.143 16.866 41.716 17.206 42.995 18.363 44.292 17.5"></polygon>
            <path d="M42.726,18.029 L41.665,17.07 L41.429,16.884 L41.359,16.8429 L41.129,16.706 L42.52,15.7739 L42.82,15.952 L43.075,16.125 L44.136,17.0839 L42.726,18.029 Z M42.557,18.363 L40.973,17.423 L40.991,16.969 L41.34,17.176 L42.264,18.0109 L42.561,18.279 L42.557,18.363 Z M43.182,15.8219 L42.521,15.43 L40.714,16.6399 L40.676,17.591 L42.692,18.7869 L44.498,17.5759 L44.52,17.031 L43.182,15.8219 Z" id="Fill-284" fill="#171310"></path>
            <polygon id="Fill-285" fill="#FEBE2E" points="46.731 16.2469 44.863 15.139 44.895 14.349 45.467 14.689 46.747 15.845"></polygon>
            <polygon id="Fill-286" fill="#FEBE2E" points="44.895 14.349 46.559 13.2339 47.131 13.574 45.467 14.689"></polygon>
            <polygon id="Fill-287" fill="#FEBE2E" points="46.747 15.845 48.411 14.7299 47.131 13.574 45.467 14.689"></polygon>
            <polygon id="Fill-288" fill="#FFEFCD" points="47.051 13.9759 46.479 13.6359 45.182 14.499 45.754 14.8379 47.034 15.995 48.33 15.1319"></polygon>
            <path d="M46.765,15.6609 L45.703,14.702 L45.468,14.5159 L45.398,14.475 L45.167,14.3379 L46.559,13.406 L46.859,13.5839 L47.114,13.7569 L48.175,14.7169 L46.765,15.6609 Z M46.596,15.995 L45.012,15.055 L45.03,14.6009 L45.378,14.8079 L46.302,15.643 L46.599,15.9119 L46.596,15.995 Z M47.221,13.4549 L46.559,13.0619 L44.753,14.272 L44.715,15.223 L46.73,16.419 L48.537,15.2089 L48.558,14.664 L47.221,13.4549 Z" id="Fill-289" fill="#171310"></path>
            <polygon id="Fill-290" fill="#FEBE2E" points="50.771 13.919 48.904 12.811 48.936 12.021 49.508 12.3599 50.788 13.517"></polygon>
            <polygon id="Fill-291" fill="#FEBE2E" points="48.936 12.021 50.6 10.906 51.172 11.245 49.508 12.3599"></polygon>
            <polygon id="Fill-292" fill="#FEBE2E" points="50.788 13.517 52.452 12.4019 51.172 11.245 49.508 12.3599"></polygon>
            <polygon id="Fill-293" fill="#FFEFCD" points="51.092 11.647 50.519 11.3079 49.223 12.1699 49.795 12.5099 51.075 13.667 52.371 12.8039"></polygon>
            <path d="M50.806,13.333 L49.744,12.374 L49.508,12.1879 L49.439,12.147 L49.208,12.0099 L50.599,11.078 L50.9,11.2559 L51.154,11.4289 L52.215,12.388 L50.806,13.333 Z M50.637,13.667 L49.052,12.7269 L49.071,12.2729 L49.419,12.4799 L50.343,13.315 L50.64,13.583 L50.637,13.667 Z M51.262,11.126 L50.6,10.7339 L48.794,11.944 L48.755,12.8949 L50.771,14.091 L52.577,12.88 L52.599,12.336 L51.262,11.126 Z" id="Fill-294" fill="#171310"></path>
            <polygon id="Fill-295" fill="#FEBE2E" points="54.81 11.5199 52.943 10.4109 52.974 9.621 53.547 9.961 54.826 11.1179"></polygon>
            <polygon id="Fill-296" fill="#FEBE2E" points="52.974 9.621 54.638 8.5059 55.211 8.8459 53.547 9.961"></polygon>
            <polygon id="Fill-297" fill="#FEBE2E" points="54.826 11.1179 56.49 10.0029 55.211 8.8459 53.547 9.961"></polygon>
            <polygon id="Fill-298" fill="#FFEFCD" points="55.13 9.2479 54.558 8.9079 53.261 9.771 53.834 10.111 55.113 11.267 56.41 10.405"></polygon>
            <path d="M54.844,10.9339 L53.783,9.974 L53.547,9.789 L53.477,9.7469 L53.247,9.611 L54.638,8.6789 L54.938,8.8559 L55.193,9.03 L56.254,9.9889 L54.844,10.9339 Z M54.675,11.267 L53.091,10.327 L53.109,9.874 L53.458,10.0799 L54.382,10.9149 L54.679,11.1839 L54.675,11.267 Z M55.3,8.7269 L54.639,8.3339 L52.832,9.5449 L52.794,10.496 L54.81,11.6909 L56.616,10.4809 L56.638,9.936 L55.3,8.7269 Z" id="Fill-299" fill="#171310"></path>
            <polygon id="Fill-300" fill="#FEBE2E" points="58.883 9.2519 57.015 8.1439 57.047 7.354 57.619 7.694 58.899 8.85"></polygon>
            <polygon id="Fill-301" fill="#FEBE2E" points="57.047 7.354 58.711 6.2389 59.284 6.5789 57.619 7.694"></polygon>
            <polygon id="Fill-302" fill="#FEBE2E" points="58.899 8.85 60.563 7.7349 59.284 6.5789 57.619 7.694"></polygon>
            <polygon id="Fill-303" fill="#FFEFCD" points="59.203 6.9809 58.631 6.641 57.334 7.504 57.907 7.8429 59.186 9 60.483 8.137"></polygon>
            <path d="M58.917,8.6659 L57.856,7.707 L57.62,7.521 L57.55,7.4799 L57.319,7.344 L58.711,6.4109 L59.011,6.5889 L59.266,6.762 L60.327,7.7219 L58.917,8.6659 Z M58.748,9 L57.164,8.06 L57.182,7.6059 L57.53,7.8129 L58.454,8.6479 L58.751,8.917 L58.748,9 Z M59.373,6.46 L58.712,6.0669 L56.905,7.2779 L56.867,8.229 L58.883,9.4239 L60.689,8.2139 L60.711,7.669 L59.373,6.46 Z" id="Fill-304" fill="#171310"></path>
        </g>
    </g>
</svg>