<?xml version="1.0" encoding="UTF-8"?>
<svg width="221px" height="131px" viewBox="0 0 221 131" version="1.1" xmlns="http://www.w3.org/2000/svg" xmlns:xlink="http://www.w3.org/1999/xlink">
    <!-- Generator: Sketch 57.1 (83088) - https://sketch.com -->
    <title>StationFront</title>
    <desc>Created with Sketch.</desc>
    <g id="StationFront" stroke="none" stroke-width="1" fill="none" fill-rule="evenodd">
        <g id="Group-98">
            <polygon id="Fill-1" fill="#FEBE2E" points="0.172 119.496 4.323 116.977 9.773 119.615 5.448 122.175"></polygon>
            <polygon id="Fill-2" fill="#FFEFCD" points="0.832 119.962 4.272 117.899 9.722 120.537 6.109 122.641"></polygon>
            <path d="M0.524,119.482 L4.332,117.172 L9.41,119.63 L5.442,121.979 L0.524,119.482 Z M5.277,122.792 L0.343,120.266 L0.343,119.775 L5.277,122.281 L5.277,122.792 Z M9.764,119.421 L4.313,116.782 L0.165,119.299 L0,119.399 L0,119.601 L0,120.477 L5.277,123.178 L5.456,123.269 L5.62,123.169 L9.944,120.531 L9.944,119.508 L9.764,119.421 Z" id="Fill-3" fill="#171310"></path>
            <polygon id="Fill-4" fill="#FEBE2E" points="2.533 113.835 2.533 119.32 5.322 120.734 5.327 115.211"></polygon>
            <polygon id="Fill-5" fill="#FEBE2E" points="2.533 113.792 4.892 112.37 7.616 113.856 5.327 115.211"></polygon>
            <polygon id="Fill-6" fill="#FFEFCD" points="2.882 114.039 4.865 112.858 7.589 114.344 5.676 115.458"></polygon>
            <path d="M2.719,113.785 L4.897,112.473 L7.424,113.864 L5.323,115.108 L2.719,113.785 Z M5.236,120.579 L2.623,119.241 L2.623,113.941 L5.236,115.267 L5.236,120.579 Z M7.612,113.753 L4.887,112.266 L2.529,113.688 L2.442,113.741 L2.442,113.848 L2.442,119.353 L5.236,120.783 L5.331,120.831 L5.418,120.778 L7.707,119.382 L7.707,113.799 L7.612,113.753 Z" id="Fill-7" fill="#171310"></path>
            <polygon id="Fill-8" fill="#FEBD2D" points="39.484 124.671 5.605 105.054 5.605 103.337 39.484 122.957"></polygon>
            <polygon id="Fill-9" fill="#FEBD2D" points="220.197 19.819 39.484 122.957 5.605 103.337 186.319 0.2"></polygon>
            <polygon id="Fill-10" fill="#FFEFCD" points="215.269 22.745 39.513 123.015 9.328 105.517 185.084 5.248"></polygon>
            <path d="M39.484,122.757 L5.953,103.338 L186.318,0.4 L219.85,19.818 L39.484,122.757 Z M39.311,124.371 L5.779,104.954 L5.779,103.638 L39.311,123.057 L39.311,124.371 Z M220.545,19.82 L186.406,0.05 L186.319,0 L5.432,103.237 L5.432,105.153 L39.397,124.821 L39.657,124.972 L39.657,123.057 L220.284,19.969 L220.545,19.82 Z" id="Fill-11" fill="#171310"></path>
            <polygon id="Fill-12" fill="#171310" points="220.197 19.819 220.197 21.558 39.484 124.671 39.484 122.957"></polygon>
            <path d="M39.657,123.057 L39.657,124.372 L220.024,21.458 L220.024,20.118 L39.657,123.057 Z M39.311,124.971 L39.311,122.857 L39.398,122.807 L220.371,19.52 L220.371,21.658 L220.284,21.708 L39.311,124.971 Z" id="Fill-13" fill="#171310"></path>
            <polygon id="Fill-14" fill="#FEBD2D" points="13.986 109.907 13.986 115.197 39.484 129.813 39.484 124.654"></polygon>
            <path d="M14.159,115.097 L39.311,129.514 L39.311,124.754 L14.159,110.207 L14.159,115.097 Z M39.657,130.113 L13.813,115.297 L13.813,109.606 L14.073,109.757 L39.657,124.554 L39.657,130.113 Z" id="Fill-15" fill="#171310"></path>
            <polygon id="Fill-16" fill="#171310" points="39.484 129.813 216.145 29.885 216.145 23.883 39.484 124.671"></polygon>
            <path d="M39.657,124.772 L39.657,129.516 L215.972,29.784 L215.972,24.182 L39.657,124.772 Z M39.311,130.111 L39.311,124.571 L39.398,124.521 L216.318,23.583 L216.318,29.986 L216.23,30.036 L39.311,130.111 Z" id="Fill-17" fill="#171310"></path>
            <polygon id="Fill-18" fill="#FEBE2E" points="195.001 5.881 15.432 108.781 13.513 107.673 193.083 4.773"></polygon>
            <polygon id="Fill-19" fill="#171310" points="16.477 109.749 16.304 109.448 196.843 6.194 197.016 6.495"></polygon>
            <polygon id="Fill-20" fill="#FEBD2D" points="39.484 124.672 39.312 124.371 216.232 23.433 216.405 23.734"></polygon>
            <polygon id="Fill-21" fill="#FEBD2D" points="63.568 95.961 60.388 94.14 60.385 94.791 63.559 96.621"></polygon>
            <polygon id="Fill-22" fill="#FEBD2D" points="65.368 95.534 65.368 98.36 62.396 96.621 62.396 95.95 63.559 96.621"></polygon>
            <path d="M62.525,96.547 L62.525,96.171 L63.561,96.77 L65.239,95.761 L65.239,98.136 L62.525,96.547 Z M66.09,94.952 L65.496,95.308 L65.496,95.307 L63.558,96.472 L62.268,95.727 L62.268,96.695 L65.363,98.507 L66.09,98.136 L66.09,94.952 Z" id="Fill-23" fill="#171310"></path>
            <polygon id="Fill-24" fill="#FEBD2D" points="72.202 91.542 72.202 94.466 69.676 93.02 70.017 92.821 70.212 92.704"></polygon>
            <path d="M69.933,93.019 L72.074,91.766 L72.074,94.244 L69.933,93.019 Z M72.776,91.039 L72.074,91.413 L72.074,91.469 L69.419,93.021 L72.208,94.618 L72.776,94.231 L72.776,91.039 Z" id="Fill-25" fill="#171310"></path>
            <polygon id="Fill-26" fill="#FEBD2D" points="74.137 89.806 63.568 95.961 60.388 94.14 70.902 87.952"></polygon>
            <polygon id="Fill-27" fill="#FFEFCD" points="73.675 90.712 64.067 96.303 61.297 94.774 70.851 89.15"></polygon>
            <path d="M63.437,96.14 L63.434,96.4 L60.514,94.718 L60.515,94.361 L63.439,96.035 L63.437,96.14 Z M70.903,88.101 L73.88,89.807 L63.567,95.813 L60.644,94.138 L70.903,88.101 Z M70.901,87.804 L60.26,94.066 L60.256,94.866 L63.56,96.77 L74.23,90.5 L74.269,89.734 L70.901,87.804 Z" id="Fill-28" fill="#171310"></path>
            <polygon id="Fill-29" fill="#FEBD2D" points="65.368 95.961 65.368 95.677 65.926 95.349 65.926 95.633"></polygon>
            <polygon id="Fill-30" fill="#FEBD2D" points="72.132 91.998 72.132 91.714 72.691 91.386 72.691 91.67"></polygon>
            <path d="M47.851,104.323 L47.851,103.562 L51.721,102.861 L53.585,101.815 C53.915,101.629 54.491,101.655 54.871,101.873 L55.425,102.19 L57.36,101.84 L57.363,102.658 L57.357,102.66 C57.346,102.768 57.276,102.87 57.139,102.948 L51.625,106.042 C51.295,106.228 50.718,106.202 50.339,105.984 L48.161,104.736 C47.953,104.618 47.851,104.467 47.851,104.323 Z" id="Fill-31" fill="#FEBE2E"></path>
            <path d="M47.9659919,103.657 L47.9659919,104.324 C47.965,104.431 48.057,104.545 48.217,104.637 L50.395,105.885 C50.737,106.081 51.275,106.107 51.569,105.943 L57.083,102.848 C57.15,102.81 57.234,102.744 57.244,102.648 L57.248,102.607 L57.246,101.977 L55.405,102.31 L54.814,101.972 C54.472,101.776 53.934,101.75 53.641,101.914 L51.741,102.974 L47.9659919,103.657 Z M51.071,106.281 C50.797,106.281 50.51,106.214 50.282,106.083 L48.103,104.835 C47.87,104.702 47.736,104.515 47.7369944,104.323 L47.7369944,103.466 L51.681,102.752 L53.529,101.715 C53.896,101.508 54.511,101.534 54.928,101.773 L55.446,102.07 L57.474,101.833 L57.477,102.67 L57.455,102.75 C57.427,102.845 57.356,102.957 57.195,103.047 L51.681,106.142 C51.515,106.236 51.298,106.281 51.071,106.281 Z" id="Fill-32" fill="#171310"></path>
            <path d="M51.625,105.28 L57.139,102.186 C57.469,102 57.429,101.673 57.049,101.455 L54.871,100.208 C54.491,99.99 53.915,99.964 53.585,100.15 L48.071,103.244 C47.741,103.43 47.781,103.757 48.161,103.974 L50.339,105.222 C50.718,105.44 51.295,105.466 51.625,105.28 Z" id="Fill-33" fill="#FEBE2E"></path>
            <path d="M51.625,105.28 L57.045,102.238 L54.871,100.992 C54.491,100.775 53.915,100.749 53.585,100.934 L48.165,103.977 L50.339,105.222 C50.718,105.44 51.295,105.466 51.625,105.28 Z" id="Fill-34" fill="#FFEFCD"></path>
            <path d="M54.136,100.141 C53.948,100.141 53.771,100.176 53.641,100.249 L48.127,103.344 C48.052,103.386 47.9619923,103.458 47.9619923,103.561 C47.961,103.666 48.057,103.783 48.217,103.875 L50.395,105.123 C50.737,105.319 51.275,105.345 51.569,105.18 L57.083,102.086 C57.158,102.044 57.2480077,101.972 57.2480077,101.869 C57.249,101.764 57.153,101.647 56.993,101.555 L54.814,100.307 C54.624,100.197 54.372,100.141 54.136,100.141 Z M51.071,105.519 C50.797,105.519 50.51,105.452 50.282,105.321 L48.103,104.074 C47.867,103.938 47.732,103.751 47.7329945,103.56 C47.734,103.394 47.834,103.246 48.015,103.145 L53.529,100.05 C53.896,99.843 54.511,99.869 54.928,100.108 L57.106,101.356 C57.343,101.492 57.478,101.679 57.4770055,101.87 C57.476,102.036 57.376,102.183 57.195,102.285 L51.681,105.38 C51.515,105.473 51.298,105.519 51.071,105.519 Z" id="Fill-35" fill="#171310"></path>
            <path d="M50.849,103.027 L50.849,101.578 L52.278,101.32 L52.967,100.933 C53.089,100.865 53.302,100.874 53.442,100.955 L53.647,101.072 L54.361,100.943 L54.362,102.412 L54.36,102.413 C54.356,102.453 54.33,102.491 54.279,102.519 L52.243,103.662 C52.121,103.731 51.908,103.721 51.768,103.641 L50.964,103.18 C50.887,103.136 50.849,103.08 50.849,103.027 Z" id="Fill-36" fill="#FEBE2E"></path>
            <path d="M50.964,103.027 C50.964,103.032 50.975,103.055 51.02,103.08 L51.825,103.541 C51.93,103.602 52.099,103.611 52.187,103.562 L54.223,102.419 C54.24,102.41 54.246,102.402 54.246,102.4 L54.248,102.389 L54.247,101.08 L53.626,101.192 L53.385,101.054 C53.28,100.994 53.11,100.984 53.023,101.033 L52.299,101.432 L50.964,101.674 L50.964,103.027 Z M52.038,103.823 C51.925,103.823 51.807,103.795 51.711,103.74 L50.907,103.279 C50.797,103.216 50.735,103.124 50.735,103.027 L50.735,101.483 L52.239,101.211 L52.911,100.834 C53.069,100.744 53.322,100.754 53.499,100.856 L53.667,100.952 L54.475,100.806 L54.476,102.393 L54.451,102.503 C54.428,102.55 54.388,102.589 54.335,102.619 L52.299,103.762 C52.226,103.803 52.134,103.823 52.038,103.823 Z" id="Fill-37" fill="#171310"></path>
            <path d="M52.243,102.213 L54.279,101.07 C54.401,101.002 54.387,100.881 54.246,100.801 L53.442,100.34 C53.302,100.259 53.089,100.25 52.967,100.318 L50.931,101.461 C50.809,101.53 50.823,101.65 50.964,101.731 L51.768,102.192 C51.908,102.272 52.121,102.282 52.243,102.213 Z" id="Fill-38" fill="#FEBE2E"></path>
            <path d="M53.17,100.387 C53.113,100.387 53.06,100.397 53.023,100.418 L50.987,101.561 C50.966,101.572 50.962,101.581 50.962,101.581 C50.963,101.583 50.975,101.606 51.02,101.632 L51.825,102.093 C51.93,102.153 52.099,102.163 52.187,102.114 L54.223,100.971 C54.244,100.959 54.248,100.95 54.248,100.95 C54.247,100.949 54.235,100.926 54.189,100.9 L53.385,100.439 C53.325,100.405 53.244,100.387 53.17,100.387 Z M52.038,102.374 C51.925,102.374 51.807,102.346 51.711,102.291 L50.907,101.83 C50.796,101.767 50.733,101.675 50.733,101.577 C50.734,101.49 50.785,101.412 50.875,101.362 L52.911,100.219 C53.069,100.129 53.322,100.139 53.499,100.241 L54.303,100.701 C54.414,100.765 54.477,100.857 54.4760117,100.954 C54.4760117,101.041 54.424,101.12 54.335,101.17 L52.299,102.313 C52.226,102.354 52.134,102.374 52.038,102.374 Z" id="Fill-39" fill="#171310"></path>
            <path d="M48.0169912,87.138 C48.015,86.586 48.355,85.943 48.775,85.703 L54.52,82.418 C54.736,82.295 54.931,82.303 55.07,82.413 L56.382,83.205 L55.298,86.473 L55.339,97.947 C55.341,98.5 55.002,99.142 54.581,99.383 L50.181,101.898 L49.649,103.5 L48.367,102.718 C48.336,102.704 48.306,102.687 48.278,102.664 C48.151,102.558 48.071,102.366 48.07,102.103 L48.0169912,87.138 Z" id="Fill-40" fill="#FEBE2E"></path>
            <path d="M56.394,83.739 L55.082,82.947 L55.081,82.947 C54.942,82.837 54.748,82.829 54.532,82.952 L48.787,86.237 C48.366,86.477 48.027,87.12 48.0289912,87.672 L48.03,87.95 C48.085,87.963 49.494,88.81 49.494,88.81 L56.394,83.739 Z" id="Fill-41" fill="#FFEFCD"></path>
            <path d="M54.821,82.443 C54.747,82.443 54.664,82.468 54.577,82.518 L48.832,85.802 C48.444,86.024 48.13,86.623 48.1319905,87.137 L48.185,102.102 C48.185,102.319 48.245,102.487 48.351,102.576 C48.368,102.59 48.388,102.602 48.414,102.614 L49.586,103.327 L50.086,101.821 L54.524,99.283 C54.912,99.061 55.226,98.462 55.225,97.948 L55.184,86.455 L56.245,83.255 L55.074,82.548 L55.065,82.554 L54.999,82.503 C54.948,82.463 54.888,82.443 54.821,82.443 Z M49.746,103.572 C49.729,103.623 49.669,103.645 49.622,103.617 L48.308,102.816 C48.275,102.802 48.237,102.779 48.205,102.752 C48.045,102.619 47.957,102.388 47.956,102.103 L47.9029813,87.138 C47.9,86.541 48.259,85.866 48.719,85.604 L54.464,82.319 C54.706,82.181 54.948,82.18 55.129,82.315 L55.13,82.315 L56.52,83.154 L55.412,86.491 L55.453,97.947 C55.456,98.545 55.097,99.219 54.638,99.482 L50.275,101.976 L49.746,103.572 Z" id="Fill-42" fill="#171310"></path>
            <path d="M56.734,83.79 C56.733,83.46 56.617,83.205 56.415,83.088 C56.239,82.987 56.02,83 55.798,83.127 L50.053,86.411 C49.593,86.674 49.235,87.348 49.2369917,87.946 L49.29,102.911 C49.291,103.24 49.408,103.496 49.61,103.613 C49.688,103.658 49.774,103.68 49.865,103.68 C49.98,103.68 50.103,103.645 50.227,103.574 L55.972,100.29 C56.431,100.027 56.79,99.353 56.7880083,98.755 L56.734,83.79 Z" id="Fill-43" fill="#171310"></path>
            <path d="M55.548,87.593 C55.516,87.593 55.482,87.609 55.461,87.621 L50.642,90.376 C50.478,90.47 50.339,90.736 50.3399946,90.958 L50.379,101.6 C50.38,101.692 50.406,101.764 50.447,101.788 C50.486,101.811 50.542,101.786 50.572,101.769 L55.39,99.015 C55.555,98.92 55.693,98.654 55.693,98.432 L55.653,87.79 C55.653,87.698 55.627,87.626 55.586,87.602 C55.574,87.596 55.562,87.593 55.548,87.593 Z M50.484,102.026 C50.43,102.026 50.379,102.013 50.332,101.986 C50.217,101.92 50.151,101.779 50.151,101.601 L50.1109959,90.959 C50.11,90.655 50.294,90.312 50.529,90.177 L55.347,87.423 C55.472,87.351 55.597,87.345 55.7,87.404 C55.815,87.471 55.881,87.611 55.882,87.789 L55.9220041,98.432 C55.923,98.735 55.739,99.079 55.504,99.213 L50.685,101.968 C50.617,102.007 50.549,102.026 50.484,102.026 Z" id="Fill-44" fill="#FEBE2E"></path>
            <path d="M50.609,88.932 L55.428,86.178 C55.628,86.063 55.789,85.758 55.7880046,85.496 L55.787,85.229 C55.786,84.967 55.623,84.847 55.423,84.961 L50.605,87.716 C50.405,87.83 50.244,88.135 50.2449954,88.398 L50.246,88.664 C50.247,88.927 50.409,89.047 50.609,88.932 Z" id="Fill-45" fill="#FFEFCD"></path>
            <path d="M50.438,89.09 C50.384,89.09 50.333,89.077 50.286,89.05 C50.171,88.984 50.105,88.843 50.104,88.665 L50.1029959,88.398 C50.102,88.094 50.286,87.751 50.521,87.616 L55.34,84.861 C55.464,84.791 55.59,84.784 55.693,84.843 C55.808,84.909 55.874,85.05 55.8750162,85.228 L55.8750162,85.495 C55.877,85.799 55.693,86.143 55.458,86.277 L50.639,89.032 C50.571,89.071 50.503,89.09 50.438,89.09 Z" id="Fill-46" fill="#FEBE2E"></path>
            <polygon id="Fill-47" fill="#171310" points="52.038 102.374 52.038 103.708 52.763 103.327 54.36 102.413 54.36 101.079"></polygon>
            <polygon id="Fill-48" fill="#171310" points="51.018 105.404 51.018 106.166 51.747 105.999 57.31 102.81 57.339 101.966 51.79 105.198"></polygon>
            <polygon id="Fill-49" fill="#F1B837" points="52.296 102.358 52.296 102.107 54.216 101.024 54.216 101.275"></polygon>
            <path d="M127.938,58.394 L127.938,57.632 L131.807,56.932 L133.671,55.885 C134.002,55.7 134.578,55.726 134.958,55.943 L135.511,56.261 L137.446,55.911 L137.448,56.729 L137.443,56.731 C137.433,56.839 137.363,56.941 137.225,57.018 L131.712,60.113 C131.381,60.299 130.805,60.273 130.425,60.055 L128.247,58.807 C128.04,58.688 127.938,58.537 127.938,58.394 Z" id="Fill-50" fill="#FEBE2E"></path>
            <path d="M128.052,57.728 L128.052,58.394 C128.052,58.502 128.144,58.616 128.304,58.708 L130.482,59.956 C130.823,60.152 131.362,60.178 131.656,60.013 L137.169,56.919 C137.237,56.88 137.32,56.815 137.33,56.719 L137.334,56.677 L137.333,56.048 L135.49,56.381 L134.901,56.042 C134.559,55.847 134.021,55.82 133.727,55.985 L131.828,57.044 L128.052,57.728 Z M131.158,60.352 C130.883,60.352 130.597,60.285 130.368,60.154 L128.19,58.906 C127.957,58.773 127.823,58.586 127.823,58.394 L127.823,57.537 L131.768,56.822 L133.615,55.786 C133.982,55.579 134.597,55.605 135.015,55.844 L135.533,56.141 L137.56,55.904 L137.563,56.741 L137.542,56.821 C137.513,56.916 137.443,57.027 137.281,57.118 L131.768,60.213 C131.601,60.307 131.383,60.352 131.158,60.352 Z" id="Fill-51" fill="#171310"></path>
            <path d="M131.712,59.351 L137.225,56.256 C137.555,56.071 137.516,55.744 137.136,55.526 L134.958,54.278 C134.578,54.06 134.002,54.035 133.671,54.22 L128.158,57.315 C127.827,57.5 127.867,57.827 128.247,58.045 L130.425,59.293 C130.805,59.51 131.381,59.536 131.712,59.351 Z" id="Fill-52" fill="#FEBE2E"></path>
            <path d="M131.712,59.351 L137.132,56.309 L134.958,55.063 C134.578,54.845 134.002,54.819 133.671,55.005 L128.251,58.047 L130.425,59.293 C130.805,59.51 131.381,59.536 131.712,59.351 Z" id="Fill-53" fill="#FFEFCD"></path>
            <path d="M134.222,54.212 C134.034,54.212 133.857,54.247 133.727,54.32 L128.214,57.414 C128.139,57.457 128.049,57.529 128.047,57.631 C128.047,57.736 128.143,57.854 128.304,57.946 L130.482,59.194 C130.823,59.389 131.36,59.416 131.656,59.251 L137.169,56.157 C137.245,56.114 137.334,56.042 137.334,55.94 C137.334,55.835 137.24,55.717 137.079,55.625 L134.901,54.377 C134.709,54.268 134.459,54.212 134.222,54.212 Z M131.158,59.59 C130.883,59.59 130.597,59.523 130.368,59.392 L128.19,58.144 C127.954,58.009 127.819,57.822 127.819994,57.631 C127.819994,57.465 127.921,57.317 128.102,57.215 L133.615,54.121 C133.982,53.914 134.597,53.94 135.015,54.179 L137.193,55.427 C137.429,55.562 137.565,55.749 137.563022,55.941 C137.563022,56.107 137.463,56.254 137.281,56.356 L131.768,59.451 C131.601,59.544 131.383,59.59 131.158,59.59 Z" id="Fill-54" fill="#171310"></path>
            <path d="M130.935,57.098 L130.935,55.649 L132.365,55.39 L133.053,55.004 C133.175,54.935 133.388,54.945 133.529,55.025 L133.732,55.143 L134.448,55.013 L134.448,56.483 L134.446,56.484 C134.443,56.524 134.417,56.561 134.365,56.59 L132.33,57.733 C132.208,57.801 131.995,57.792 131.855,57.711 L131.05,57.25 C130.974,57.206 130.935,57.151 130.935,57.098 Z" id="Fill-55" fill="#FEBE2E"></path>
            <path d="M131.05,57.098 C131.05,57.102 131.062,57.125 131.107,57.151 L131.912,57.612 C132.016,57.672 132.185,57.682 132.274,57.633 L134.31,56.49 C134.326,56.481 134.331,56.473 134.333,56.471 L134.334,56.459 L134.333,55.15 L133.713,55.263 L133.472,55.124 C133.367,55.064 133.196,55.055 133.109,55.104 L132.386,55.503 L131.05,55.745 L131.05,57.098 Z M132.125,57.893 C132.011,57.893 131.894,57.865 131.797,57.811 L130.993,57.35 C130.883,57.287 130.821,57.195 130.821,57.098 L130.821,55.553 L132.326,55.281 L132.997,54.904 C133.156,54.815 133.409,54.824 133.586,54.926 L133.753,55.023 L134.562,54.876 L134.563,56.464 L134.537,56.574 C134.514,56.62 134.475,56.66 134.422,56.69 L132.386,57.832 C132.313,57.873 132.221,57.893 132.125,57.893 Z" id="Fill-56" fill="#171310"></path>
            <path d="M132.33,56.284 L134.365,55.141 C134.488,55.072 134.472,54.952 134.333,54.871 L133.529,54.41 C133.388,54.33 133.175,54.32 133.053,54.389 L131.016,55.532 C130.895,55.6 130.909,55.721 131.05,55.802 L131.855,56.262 C131.995,56.343 132.208,56.352 132.33,56.284 Z" id="Fill-57" fill="#FEBE2E"></path>
            <path d="M133.256,54.457 C133.2,54.457 133.146,54.468 133.11,54.489 L131.073,55.631 C131.053,55.643 131.047,55.652 131.047,55.652 C131.05,55.653 131.062,55.676 131.107,55.702 L131.911,56.163 C132.016,56.224 132.185,56.233 132.274,56.184 L134.31,55.041 C134.331,55.03 134.334,55.021 134.334,55.021 C134.334,55.019 134.321,54.996 134.276,54.97 L133.472,54.51 C133.412,54.475 133.331,54.457 133.256,54.457 Z M132.125,56.444 C132.011,56.444 131.894,56.417 131.797,56.361 L130.993,55.901 C130.883,55.838 130.82,55.745 130.82,55.648 C130.821,55.561 130.872,55.482 130.961,55.432 L132.997,54.289 C133.156,54.2 133.409,54.21 133.586,54.311 L134.39,54.772 C134.5,54.835 134.563,54.928 134.563,55.025 C134.563,55.112 134.511,55.191 134.422,55.241 L132.386,56.383 C132.313,56.424 132.221,56.444 132.125,56.444 Z" id="Fill-58" fill="#171310"></path>
            <path d="M128.103991,41.209 C128.102,40.657 128.441,40.014 128.862,39.774 L134.607,36.489 C134.823,36.366 135.016,36.374 135.157,36.484 L135.157,36.483 L136.469,37.275 L135.385,40.544 L135.425,52.018 C135.428,52.57 135.088,53.213 134.667,53.453 L130.266,55.969 L129.735,57.57 L128.454,56.789 C128.422,56.775 128.391,56.758 128.365,56.735 C128.238,56.629 128.158,56.437 128.157,56.174 L128.103991,41.209 Z" id="Fill-59" fill="#FEBE2E"></path>
            <path d="M136.481,37.809 L135.169,37.017 L135.167,37.018 C135.029,36.908 134.834,36.9 134.619,37.023 L128.873,40.307 C128.453,40.548 128.113,41.191 128.114991,41.743 L128.114991,42.02 C128.171,42.034 129.581,42.881 129.581,42.881 L136.481,37.809 Z" id="Fill-60" fill="#FFEFCD"></path>
            <path d="M134.908,36.514 C134.834,36.514 134.751,36.539 134.664,36.588 L128.919,39.873 C128.531,40.095 128.217,40.694 128.217998,41.208 L128.271,56.173 C128.271,56.389 128.331,56.558 128.438,56.647 C128.455,56.661 128.475,56.673 128.501,56.685 L129.672,57.398 L130.172,55.891 L134.61,53.354 C134.998,53.132 135.313,52.533 135.31,52.019 L135.27,40.525 L136.331,37.326 L135.159,36.619 L135.151,36.625 L135.084,36.574 C135.034,36.534 134.975,36.514 134.908,36.514 Z M129.833,57.643 C129.816,57.694 129.755,57.716 129.709,57.688 L128.394,56.887 C128.362,56.873 128.323,56.85 128.292,56.823 C128.132,56.689 128.044,56.459 128.042,56.174 L127.988992,41.209 C127.987,40.611 128.346,39.937 128.805,39.674 L134.55,36.39 C134.792,36.251 135.034,36.25 135.216,36.385 L135.216,36.386 L136.607,37.225 L135.498,40.562 L135.54,52.018 C135.542,52.616 135.184,53.29 134.724,53.553 L130.362,56.046 L129.833,57.643 Z" id="Fill-61" fill="#171310"></path>
            <path d="M136.821,37.86 C136.82,37.531 136.704,37.275 136.502,37.159 C136.326,37.057 136.107,37.071 135.885,37.197 L130.139,40.482 C129.68,40.745 129.321,41.419 129.322992,42.017 L129.377,56.982 C129.378,57.311 129.495,57.567 129.696,57.684 C129.774,57.729 129.86,57.751 129.951,57.751 C130.067,57.751 130.19,57.715 130.313,57.645 L136.059,54.36 C136.518,54.097 136.876,53.423 136.873019,52.825 L136.821,37.86 Z" id="Fill-62" fill="#171310"></path>
            <path d="M135.635,41.664 C135.602,41.664 135.568,41.68 135.547,41.692 L130.729,44.446 C130.563,44.541 130.425,44.807 130.426979,45.029 L130.466,55.671 C130.466,55.763 130.492,55.835 130.533,55.859 C130.573,55.882 130.628,55.857 130.659,55.84 L135.477,53.085 C135.641,52.991 135.779,52.725 135.779,52.503 L135.74,41.861 C135.74,41.769 135.714,41.697 135.672,41.673 C135.661,41.666 135.648,41.664 135.635,41.664 Z M130.57,56.097 C130.516,56.097 130.464,56.084 130.419,56.057 C130.304,55.99 130.238,55.85 130.237,55.672 L130.197984,45.029 C130.196,44.725 130.38,44.382 130.615,44.248 L135.434,41.493 C135.559,41.422 135.684,41.416 135.787,41.475 C135.902,41.541 135.968,41.681 135.969,41.86 L136.008,52.502 C136.008,52.806 135.826,53.149 135.589,53.284 L130.771,56.038 C130.704,56.077 130.635,56.097 130.57,56.097 Z" id="Fill-63" fill="#FEBE2E"></path>
            <path d="M130.696,43.003 L135.514,40.248 C135.714,40.134 135.875,39.829 135.875,39.566 L135.873,39.3 C135.873,39.037 135.709,38.917 135.51,39.032 L130.692,41.786 C130.492,41.901 130.331,42.206 130.331,42.468 L130.331,42.735 C130.333,42.997 130.495,43.117 130.696,43.003 Z" id="Fill-64" fill="#FFEFCD"></path>
            <path d="M130.524,43.161 C130.471,43.161 130.419,43.148 130.373,43.12 C130.258,43.054 130.192,42.914 130.191,42.736 L130.189984,42.469 C130.188,42.165 130.373,41.821 130.607,41.687 L135.427,38.932 C135.55,38.861 135.677,38.855 135.779,38.914 C135.894,38.98 135.961,39.12 135.961,39.299 L135.962004,39.566 C135.963,39.87 135.779,40.213 135.544,40.348 L130.726,43.102 C130.658,43.141 130.589,43.161 130.524,43.161 Z" id="Fill-65" fill="#FEBE2E"></path>
            <polygon id="Fill-66" fill="#171310" points="132.125 56.444 132.125 57.778 132.849 57.398 134.446 56.484 134.446 55.15"></polygon>
            <polygon id="Fill-67" fill="#171310" points="131.105 59.475 131.105 60.238 131.834 60.07 137.396 56.881 137.425 56.037 131.877 59.269"></polygon>
            <polygon id="Fill-68" fill="#F1B837" points="132.383 56.428 132.383 56.177 134.303 55.095 134.303 55.346"></polygon>
            <polygon id="Fill-69" fill="#FEBD2D" points="114.49 66.451 111.31 64.63 111.307 65.282 114.481 67.111"></polygon>
            <polygon id="Fill-70" fill="#FEBD2D" points="116.29 66.024 116.29 68.85 113.318 67.111 113.318 66.44 114.481 67.111"></polygon>
            <path d="M113.447,67.037 L113.447,66.662 L114.483,67.26 L116.161,66.251 L116.161,68.626 L113.447,67.037 Z M117.012,65.442 L116.418,65.798 L114.48,66.962 L113.19,66.217 L113.19,67.185 L116.285,68.997 L117.012,68.626 L117.012,65.442 Z" id="Fill-71" fill="#171310"></path>
            <polygon id="Fill-72" fill="#FEBD2D" points="123.124 62.033 123.124 64.956 120.598 63.511 120.94 63.311 121.134 63.195"></polygon>
            <path d="M120.855,63.51 L122.996,62.256 L122.996,64.735 L120.855,63.51 Z M123.698,61.529 L122.996,61.904 L122.996,61.959 L120.342,63.511 L123.13,65.108 L123.698,64.721 L123.698,61.529 Z" id="Fill-73" fill="#171310"></path>
            <polygon id="Fill-74" fill="#FEBD2D" points="125.059 60.296 114.49 66.451 111.31 64.63 121.824 58.442"></polygon>
            <polygon id="Fill-75" fill="#FFEFCD" points="124.597 61.203 114.989 66.793 112.219 65.264 121.773 59.641"></polygon>
            <path d="M114.359,66.631 L114.356,66.89 L111.436,65.208 L111.437,64.851 L114.361,66.526 L114.359,66.631 Z M121.825,58.591 L124.802,60.298 L114.49,66.303 L111.566,64.628 L121.825,58.591 Z M121.823,58.294 L111.182,64.557 L111.178,65.356 L114.482,67.26 L125.152,60.99 L125.191,60.225 L121.823,58.294 Z" id="Fill-76" fill="#171310"></path>
            <polygon id="Fill-77" fill="#FEBD2D" points="116.29 66.451 116.29 66.167 116.848 65.839 116.848 66.123"></polygon>
            <polygon id="Fill-78" fill="#FEBD2D" points="123.054 62.488 123.054 62.204 123.613 61.876 123.613 62.16"></polygon>
            <path d="M98.773,74.814 L98.773,74.052 L102.643,73.351 L104.507,72.305 C104.838,72.119 105.413,72.145 105.793,72.363 L106.348,72.68 L108.282,72.33 L108.285,73.149 L108.279,73.15 C108.268,73.259 108.198,73.361 108.061,73.438 L102.547,76.533 C102.217,76.718 101.64,76.692 101.261,76.475 L99.083,75.227 C98.875,75.108 98.773,74.957 98.773,74.814 Z" id="Fill-79" fill="#FEBE2E"></path>
            <path d="M98.8879919,74.148 L98.8879919,74.814 C98.887,74.921 98.979,75.036 99.139,75.127 L101.318,76.375 C101.659,76.571 102.198,76.598 102.491,76.433 L108.005,73.338 C108.072,73.3 108.156,73.234 108.166,73.138 L108.17,73.097 L108.168,72.467 L106.327,72.8 L105.736,72.462 C105.394,72.266 104.856,72.24 104.563,72.405 L102.663,73.464 L98.8879919,74.148 Z M101.993,76.772 C101.719,76.772 101.432,76.705 101.204,76.574 L99.026,75.326 C98.792,75.192 98.659,75.006 98.659,74.813 L98.659,73.956 L102.603,73.242 L104.451,72.205 C104.818,71.999 105.433,72.024 105.85,72.264 L106.368,72.56 L108.396,72.324 L108.399,73.161 L108.377,73.24 C108.349,73.335 108.278,73.447 108.117,73.537 L102.603,76.632 C102.437,76.726 102.22,76.772 101.993,76.772 Z" id="Fill-80" fill="#171310"></path>
            <path d="M102.547,75.771 L108.061,72.676 C108.391,72.49 108.351,72.163 107.972,71.946 L105.793,70.698 C105.413,70.48 104.838,70.454 104.507,70.64 L98.993,73.735 C98.663,73.92 98.703,74.247 99.083,74.465 L101.261,75.713 C101.64,75.93 102.217,75.956 102.547,75.771 Z" id="Fill-81" fill="#FEBE2E"></path>
            <path d="M102.547,75.77 L107.967,72.728 L105.793,71.483 C105.413,71.265 104.838,71.239 104.507,71.425 L99.087,74.467 L101.261,75.713 C101.64,75.93 102.217,75.956 102.547,75.77 Z" id="Fill-82" fill="#FFEFCD"></path>
            <path d="M105.058,70.631 C104.87,70.631 104.693,70.667 104.563,70.74 L99.05,73.834 C98.974,73.877 98.8839923,73.948 98.8839923,74.051 C98.883,74.156 98.979,74.273 99.139,74.365 L101.318,75.613 C101.659,75.809 102.197,75.836 102.491,75.671 L108.005,72.576 C108.08,72.534 108.170008,72.462 108.170008,72.359 C108.171,72.255 108.075,72.137 107.915,72.045 L105.736,70.797 C105.546,70.688 105.294,70.631 105.058,70.631 Z M101.993,76.01 C101.72,76.01 101.432,75.943 101.204,75.812 L99.026,74.564 C98.789,74.429 98.654,74.241 98.6549945,74.05 C98.656,73.884 98.756,73.737 98.937,73.635 L104.451,70.54 C104.818,70.334 105.433,70.359 105.85,70.599 L108.028,71.847 C108.265,71.982 108.4,72.169 108.399006,72.36 C108.398,72.526 108.298,72.674 108.117,72.776 L102.603,75.871 C102.437,75.964 102.22,76.01 101.993,76.01 Z" id="Fill-83" fill="#171310"></path>
            <path d="M101.771,73.518 L101.771,72.069 L103.2,71.81 L103.889,71.424 C104.011,71.355 104.224,71.365 104.364,71.445 L104.569,71.562 L105.283,71.433 L105.284,72.903 L105.282,72.903 C105.278,72.943 105.252,72.981 105.201,73.009 L103.165,74.152 C103.043,74.221 102.83,74.211 102.69,74.131 L101.886,73.67 C101.809,73.626 101.771,73.57 101.771,73.518 Z" id="Fill-84" fill="#FEBE2E"></path>
            <path d="M101.886,73.517 C101.886,73.522 101.898,73.545 101.943,73.571 L102.747,74.032 C102.852,74.092 103.021,74.102 103.109,74.053 L105.145,72.91 C105.162,72.9 105.168,72.892 105.168,72.89 L105.17,72.879 L105.169,71.57 L104.548,71.682 L104.307,71.544 C104.202,71.484 104.032,71.474 103.945,71.523 L103.221,71.923 L101.886,72.164 L101.886,73.517 Z M102.96,74.313 C102.847,74.313 102.729,74.285 102.633,74.23 L101.829,73.769 C101.72,73.707 101.657,73.615 101.657,73.517 L101.657,71.973 L103.161,71.701 L103.833,71.324 C103.991,71.235 104.244,71.244 104.421,71.346 L104.589,71.442 L105.398,71.296 L105.399,72.884 L105.373,72.993 C105.35,73.04 105.31,73.08 105.257,73.109 L103.221,74.252 C103.148,74.293 103.056,74.313 102.96,74.313 Z" id="Fill-85" fill="#171310"></path>
            <path d="M103.165,72.704 L105.201,71.561 C105.323,71.492 105.309,71.371 105.168,71.291 L104.364,70.83 C104.224,70.75 104.011,70.74 103.889,70.809 L101.853,71.951 C101.731,72.02 101.745,72.141 101.886,72.221 L102.69,72.682 C102.83,72.762 103.043,72.772 103.165,72.704 Z" id="Fill-86" fill="#FEBE2E"></path>
            <path d="M104.092,70.877 C104.035,70.877 103.982,70.887 103.945,70.908 L101.909,72.051 C101.888,72.063 101.884,72.071 101.884,72.071 C101.885,72.073 101.897,72.096 101.943,72.122 L102.747,72.583 C102.852,72.643 103.021,72.653 103.109,72.604 L105.145,71.461 C105.166,71.449 105.17,71.441 105.17,71.441 C105.169,71.439 105.157,71.416 105.111,71.39 L104.307,70.929 C104.247,70.895 104.166,70.877 104.092,70.877 Z M102.96,72.864 C102.847,72.864 102.729,72.836 102.633,72.781 L101.829,72.32 C101.718,72.257 101.655,72.165 101.655,72.068 C101.656,71.981 101.707,71.902 101.797,71.852 L103.833,70.709 C103.991,70.62 104.244,70.629 104.421,70.731 L105.225,71.192 C105.336,71.255 105.399,71.347 105.399,71.445 C105.398,71.532 105.346,71.61 105.257,71.66 L103.221,72.803 C103.148,72.844 103.056,72.864 102.96,72.864 Z" id="Fill-87" fill="#171310"></path>
            <path d="M98.9389912,57.628 C98.937,57.076 99.277,56.434 99.697,56.193 L105.443,52.909 C105.658,52.785 105.853,52.793 105.992,52.903 L105.993,52.903 L107.304,53.695 L106.22,56.963 L106.261,68.438 C106.263,68.99 105.924,69.632 105.503,69.873 L101.103,72.389 L100.571,73.99 L99.289,73.209 C99.258,73.194 99.228,73.178 99.2,73.155 C99.073,73.049 98.993,72.856 98.993,72.593 L98.9389912,57.628 Z" id="Fill-88" fill="#FEBE2E"></path>
            <path d="M107.316,54.229 L106.004,53.437 C105.864,53.327 105.67,53.319 105.454,53.443 L99.709,56.727 C99.288,56.968 98.949,57.61 98.9509912,58.162 L98.952,58.44 C99.007,58.453 100.416,59.301 100.416,59.301 L107.316,54.229 Z" id="Fill-89" fill="#FFEFCD"></path>
            <path d="M105.744,52.933 C105.669,52.933 105.586,52.958 105.499,53.008 L99.754,56.292 C99.366,56.514 99.052,57.113 99.0539905,57.628 L99.107,72.593 C99.107,72.809 99.167,72.977 99.273,73.067 C99.29,73.08 99.31,73.092 99.337,73.105 L100.508,73.817 L101.008,72.311 L105.446,69.774 C105.834,69.552 106.148,68.953 106.147,68.438 L106.106,56.945 L107.167,53.746 L105.996,53.038 L105.987,53.045 L105.921,52.993 C105.87,52.953 105.81,52.933 105.744,52.933 Z M100.668,74.062 C100.651,74.114 100.591,74.136 100.544,74.107 L99.23,73.306 C99.197,73.292 99.16,73.27 99.127,73.243 C98.967,73.109 98.879,72.879 98.878,72.594 L98.8249917,57.629 C98.823,57.031 99.181,56.357 99.641,56.094 L105.386,52.809 C105.628,52.671 105.87,52.67 106.051,52.805 L106.052,52.805 L107.442,53.644 L106.335,56.982 L106.375,68.438 C106.378,69.035 106.019,69.709 105.56,69.972 L101.197,72.466 L100.668,74.062 Z" id="Fill-90" fill="#171310"></path>
            <path d="M107.657,54.28 C107.655,53.951 107.539,53.695 107.337,53.578 C107.161,53.477 106.942,53.49 106.72,53.617 L100.975,56.901 C100.515,57.164 100.157,57.838 100.158992,58.436 L100.212,73.402 C100.213,73.731 100.33,73.987 100.532,74.103 C100.61,74.148 100.696,74.171 100.787,74.171 C100.902,74.171 101.025,74.135 101.149,74.064 L106.894,70.78 C107.354,70.517 107.712,69.843 107.710008,69.245 L107.657,54.28 Z" id="Fill-91" fill="#171310"></path>
            <path d="M106.47,58.083 C106.438,58.083 106.404,58.099 106.383,58.111 L101.564,60.867 C101.4,60.96 101.261,61.227 101.261995,61.449 L101.302,72.09 C101.302,72.183 101.328,72.255 101.369,72.278 C101.408,72.301 101.464,72.276 101.494,72.26 L106.312,69.505 C106.477,69.411 106.615,69.144 106.615,68.923 L106.575,58.281 C106.575,58.189 106.549,58.116 106.508,58.093 C106.496,58.086 106.484,58.083 106.47,58.083 Z M101.406,72.517 C101.352,72.517 101.301,72.503 101.254,72.476 C101.139,72.41 101.073,72.27 101.073,72.091 L101.032996,61.449 C101.032,61.145 101.216,60.802 101.451,60.667 L106.269,57.913 C106.394,57.842 106.519,57.836 106.622,57.894 C106.737,57.961 106.803,58.101 106.804,58.28 L106.844004,68.922 C106.845,69.226 106.661,69.569 106.426,69.704 L101.607,72.458 C101.539,72.497 101.471,72.517 101.406,72.517 Z" id="Fill-92" fill="#FEBE2E"></path>
            <path d="M101.531,59.423 L106.35,56.668 C106.55,56.554 106.711,56.249 106.710005,55.986 L106.709,55.719 C106.708,55.457 106.545,55.337 106.345,55.451 L101.527,58.206 C101.327,58.32 101.166,58.626 101.166995,58.888 L101.168,59.155 C101.169,59.417 101.331,59.537 101.531,59.423 Z" id="Fill-93" fill="#FFEFCD"></path>
            <path d="M101.36,59.581 C101.306,59.581 101.255,59.567 101.208,59.54 C101.093,59.474 101.027,59.333 101.026,59.155 L101.024996,58.888 C101.024,58.584 101.208,58.241 101.443,58.107 L106.262,55.352 C106.386,55.281 106.512,55.275 106.615,55.334 C106.73,55.4 106.796,55.54 106.797,55.719 L106.798004,55.986 C106.799,56.289 106.615,56.633 106.38,56.767 L101.561,59.522 C101.493,59.561 101.425,59.581 101.36,59.581 Z" id="Fill-94" fill="#FEBE2E"></path>
            <polygon id="Fill-95" fill="#171310" points="102.96 72.864 102.96 74.198 103.685 73.817 105.282 72.903 105.282 71.57"></polygon>
            <polygon id="Fill-96" fill="#171310" points="101.94 75.894 101.94 76.656 102.669 76.489 108.232 73.3 108.261 72.456 102.712 75.688"></polygon>
            <polygon id="Fill-97" fill="#F1B837" points="103.218 72.848 103.218 72.597 105.138 71.514 105.138 71.765"></polygon>
        </g>
    </g>
</svg>