<?xml version="1.0" encoding="UTF-8"?>
<svg width="88px" height="67px" viewBox="0 0 88 67" version="1.1" xmlns="http://www.w3.org/2000/svg" xmlns:xlink="http://www.w3.org/1999/xlink">
    <!-- Generator: Sketch 57.1 (83088) - https://sketch.com -->
    <title>TrainFront</title>
    <desc>Created with Sketch.</desc>
    <g id="TrainFront" stroke="none" stroke-width="1" fill="none" fill-rule="evenodd">
        <g id="Group-59">
            <polygon id="Fill-1" fill="#FEBD2D" points="47.4325 47.5162 43.0995 45.2782 50.9375 44.0942"></polygon>
            <path d="M43.4695,45.3392 L47.4115,47.3752 L50.6005,44.2622 L43.4695,45.3392 Z M47.4535,47.6562 L42.7295,45.2172 L51.2745,43.9262 L47.4535,47.6562 Z" id="Fill-2" fill="#171310"></path>
            <polygon id="Fill-3" fill="#FEBD2D" points="80.9395 28.0652 76.6065 25.8272 84.4455 24.6432"></polygon>
            <path d="M76.9765,25.8882 L80.9185,27.9242 L84.1075,24.8112 L76.9765,25.8882 Z M80.9605,28.2062 L76.2375,25.7672 L84.7825,24.4752 L80.9605,28.2062 Z" id="Fill-4" fill="#171310"></path>
            <path d="M84.2365,4.3422 L77.6645,0.5482 C76.6665,-0.0278 75.7595,-0.0028 75.1045,0.4992 L17.7765,33.7942 L26.5695,52.9572 L29.1045,58.2102 L36.9495,53.6512 L37.5815,51.8052 C37.8005,51.1652 38.2525,50.5782 38.7485,50.2922 L45.7375,46.2572 C46.2325,45.9712 46.6855,46.0352 46.9045,46.4222 L47.5195,47.5082 L70.4135,34.2042 L71.0555,32.3312 C71.2745,31.6902 71.7265,31.1032 72.2225,30.8172 L79.2115,26.7822 C79.7065,26.4962 80.1595,26.5602 80.3785,26.9472 L81.0025,28.0512 L86.4675,24.8752 C86.5515,24.8352 86.6305,24.7882 86.7075,24.7352 L86.7085,24.7352 C87.4055,24.2592 87.8455,23.2722 87.8455,21.8992 L87.8455,11.2392 C87.8455,8.5922 86.2215,5.4892 84.2365,4.3422 Z" id="Fill-5" fill="#FEBD2D"></path>
            <path d="M17.9255,33.8412 L26.6745,52.9082 L29.1545,58.0472 L36.8545,53.5722 L37.4715,51.7682 C37.7015,51.0972 38.1685,50.4942 38.6905,50.1922 L45.6795,46.1572 C45.9855,45.9802 46.2815,45.9222 46.5395,45.9932 C46.7365,46.0472 46.8975,46.1752 47.0055,46.3652 L47.5625,47.3502 L70.3185,34.1252 L70.9465,32.2922 C71.1755,31.6222 71.6425,31.0192 72.1645,30.7172 L79.1535,26.6822 C79.4595,26.5052 79.7555,26.4482 80.0135,26.5172 C80.2105,26.5712 80.3715,26.7002 80.4795,26.8902 L81.0455,27.8922 L86.4095,24.7752 C86.4915,24.7352 86.5675,24.6912 86.6435,24.6402 C87.3335,24.1682 87.7295,23.1702 87.7295,21.8992 L87.7295,11.2392 C87.7295,8.6222 86.1365,5.5732 84.1775,4.4422 L77.6065,0.6482 C76.6845,0.1162 75.8215,0.0962 75.1755,0.5912 L17.9255,33.8412 Z M29.0545,58.3722 L26.4655,53.0072 L17.6275,33.7472 L17.7185,33.6942 L75.0465,0.3992 C75.7595,-0.1478 76.7135,-0.1338 77.7215,0.4482 L84.2935,4.2422 C86.3155,5.4102 87.9605,8.5482 87.9605,11.2392 L87.9605,21.8992 C87.9605,23.2672 87.5395,24.3082 86.7735,24.8312 C86.6875,24.8892 86.6015,24.9392 86.5175,24.9792 L80.9595,28.2092 L80.2785,27.0042 C80.2005,26.8672 80.0915,26.7782 79.9525,26.7412 C79.7595,26.6872 79.5175,26.7392 79.2695,26.8822 L72.2805,30.9172 C71.8115,31.1882 71.3735,31.7572 71.1645,32.3672 L70.5095,34.2832 L70.4725,34.3052 L47.4765,47.6672 L46.8045,46.4792 C46.7265,46.3422 46.6175,46.2542 46.4785,46.2162 C46.2855,46.1632 46.0435,46.2142 45.7955,46.3572 L38.8065,50.3922 C38.3375,50.6632 37.8995,51.2322 37.6905,51.8422 L37.0445,53.7292 L37.0075,53.7512 L29.0545,58.3722 Z" id="Fill-6" fill="#171310"></path>
            <path d="M87.8225,10.7002 L87.6865,9.2302 L86.9095,7.4782 L29.2195,40.6732 L29.9605,42.1272 L30.1665,43.4232 L30.2185,43.7622 L23.4755,46.2132 L26.5695,52.9572 L29.1045,58.2102 L36.9495,53.6512 L37.5815,51.8052 C37.8005,51.1652 38.2525,50.5782 38.7485,50.2922 L45.7375,46.2572 C46.2325,45.9712 46.6855,46.0352 46.9045,46.4222 L47.5195,47.5082 L70.4135,34.2042 L71.0555,32.3312 C71.2745,31.6902 71.7265,31.1032 72.2225,30.8172 L79.2115,26.7822 C79.7065,26.4962 80.1595,26.5602 80.3785,26.9472 L81.0025,28.0512 L86.4675,24.8752 C86.5515,24.8352 86.6305,24.7882 86.7075,24.7352 L86.7085,24.7352 C87.4055,24.2592 87.8455,23.2722 87.8455,21.8992 L87.8455,11.2392 C87.8455,11.0612 87.8365,10.8812 87.8225,10.7002 Z" id="Fill-7" fill="#171310"></path>
            <path d="M41.8655,50.0422 C41.8655,51.1272 41.1035,52.4472 40.1635,52.9902 C39.2235,53.5332 38.4605,53.0932 38.4605,52.0072 C38.4605,50.9222 39.2235,49.6022 40.1635,49.0592 C41.1035,48.5162 41.8655,48.9562 41.8655,50.0422 Z" id="Fill-8" fill="#171310"></path>
            <path d="M40.6995,50.1982 C40.8125,50.2632 40.8755,50.4142 40.8755,50.6222 C40.8755,51.1082 40.5195,51.7242 40.0995,51.9662 C39.9185,52.0702 39.7585,52.0912 39.6435,52.0262 C39.5295,51.9602 39.4675,51.8092 39.4675,51.6012 C39.4675,51.2952 39.6105,50.9392 39.8195,50.6562 L40.6215,50.1782 C40.6475,50.1842 40.6765,50.1852 40.6995,50.1982 Z M41.5625,49.2802 L38.7015,50.9882 L38.7015,51.3222 L39.3195,50.9542 C39.2315,51.1682 39.1785,51.3912 39.1785,51.6012 C39.1785,51.9172 39.2925,52.1562 39.4995,52.2762 C39.5875,52.3272 39.6865,52.3522 39.7915,52.3522 C39.9335,52.3522 40.0875,52.3072 40.2435,52.2162 C40.7595,51.9182 41.1645,51.2182 41.1645,50.6222 C41.1645,50.3472 41.0725,50.1352 40.9125,50.0052 L41.5625,49.6172 L41.5625,49.2802 Z" id="Fill-9" fill="#FEBE2E"></path>
            <path d="M45.5855,47.8432 C45.5855,48.9292 44.8225,50.2492 43.8825,50.7922 C42.9425,51.3352 42.1805,50.8952 42.1805,49.8092 C42.1805,48.7242 42.9425,47.4032 43.8825,46.8602 C44.8225,46.3182 45.5855,46.7582 45.5855,47.8432 Z" id="Fill-10" fill="#171310"></path>
            <path d="M44.4185,47.9992 C44.5325,48.0652 44.5945,48.2162 44.5945,48.4242 C44.5945,48.9102 44.2395,49.5252 43.8185,49.7682 C43.6385,49.8722 43.4775,49.8922 43.3625,49.8282 C43.2495,49.7622 43.1865,49.6112 43.1865,49.4032 C43.1865,49.0972 43.3295,48.7412 43.5395,48.4572 L44.3405,47.9802 C44.3675,47.9852 44.3955,47.9872 44.4185,47.9992 Z M45.2815,47.0822 L42.4205,48.7892 L42.4205,49.1242 L43.0385,48.7552 C42.9505,48.9702 42.8975,49.1932 42.8975,49.4032 C42.8975,49.7192 43.0115,49.9582 43.2185,50.0782 C43.3065,50.1292 43.4055,50.1542 43.5115,50.1542 C43.6525,50.1542 43.8065,50.1082 43.9625,50.0182 C44.4795,49.7202 44.8835,49.0202 44.8835,48.4242 C44.8835,48.1482 44.7925,47.9362 44.6325,47.8062 L45.2815,47.4192 L45.2815,47.0822 Z" id="Fill-11" fill="#FEBE2E"></path>
            <path d="M75.0955,30.6262 C75.0955,31.7122 74.3335,33.0332 73.3935,33.5762 C72.4525,34.1192 71.6905,33.6782 71.6905,32.5922 C71.6905,31.5072 72.4525,30.1862 73.3935,29.6432 C74.3335,29.1012 75.0955,29.5412 75.0955,30.6262 Z" id="Fill-12" fill="#171310"></path>
            <path d="M73.9285,30.7822 C74.0425,30.8482 74.1055,30.9992 74.1055,31.2072 C74.1055,31.6932 73.7495,32.3092 73.3285,32.5512 C73.1485,32.6552 72.9875,32.6762 72.8735,32.6112 C72.7595,32.5462 72.6965,32.3952 72.6965,32.1862 C72.6965,31.8802 72.8395,31.5252 73.0495,31.2412 L73.8515,30.7632 C73.8775,30.7682 73.9065,30.7692 73.9285,30.7822 Z M74.7925,29.8652 L71.9315,31.5732 L71.9315,31.9082 L72.5495,31.5392 C72.4615,31.7532 72.4085,31.9772 72.4085,32.1862 C72.4085,32.5032 72.5225,32.7412 72.7285,32.8612 C72.8175,32.9132 72.9155,32.9382 73.0215,32.9382 C73.1635,32.9382 73.3175,32.8912 73.4735,32.8012 C73.9895,32.5032 74.3945,31.8032 74.3945,31.2072 C74.3945,30.9312 74.3025,30.7192 74.1425,30.5892 L74.7925,30.2022 L74.7925,29.8652 Z" id="Fill-13" fill="#FEBE2E"></path>
            <path d="M78.8145,28.4282 C78.8145,29.5142 78.0525,30.8342 77.1125,31.3782 C76.1725,31.9192 75.4095,31.4792 75.4095,30.3942 C75.4095,29.3082 76.1725,27.9882 77.1125,27.4452 C78.0525,26.9022 78.8145,27.3422 78.8145,28.4282 Z" id="Fill-14" fill="#171310"></path>
            <path d="M77.6485,28.5842 C77.7615,28.6502 77.8245,28.8012 77.8245,29.0082 C77.8245,29.4952 77.4685,30.1102 77.0485,30.3532 C76.8685,30.4572 76.7075,30.4772 76.5925,30.4122 C76.4785,30.3472 76.4165,30.1962 76.4165,29.9882 C76.4165,29.6822 76.5585,29.3262 76.7685,29.0422 L77.5705,28.5652 C77.5965,28.5702 77.6255,28.5712 77.6485,28.5842 Z M78.5115,27.6662 L75.6505,29.3742 L75.6505,29.7082 L76.2685,29.3402 C76.1805,29.5542 76.1275,29.7772 76.1275,29.9882 C76.1275,30.3032 76.2415,30.5432 76.4485,30.6622 C76.5365,30.7132 76.6355,30.7392 76.7405,30.7392 C76.8825,30.7392 77.0365,30.6932 77.1925,30.6032 C77.7085,30.3052 78.1135,29.6052 78.1135,29.0082 C78.1135,28.7332 78.0215,28.5212 77.8615,28.3912 L78.5115,28.0042 L78.5115,27.6662 Z" id="Fill-15" fill="#FEBE2E"></path>
            <polygon id="Fill-16" fill="#FFEFCD" points="79.9985 3.9022 84.6065 6.5682 29.4745 38.1002 24.8655 35.4342"></polygon>
            <polygon id="Fill-17" fill="#FFEFCD" points="76.5435 1.8982 78.5365 3.0262 23.4045 34.5572 21.4105 33.4302"></polygon>
            <path d="M36.8485,40.6762 C36.7135,40.6762 36.5655,40.7202 36.4125,40.8082 L34.6545,41.8232 C34.0115,42.1942 33.4885,43.1982 33.4885,44.0612 L33.4885,50.4512 C33.4885,50.8872 33.6245,51.2162 33.8615,51.3522 C34.0525,51.4622 34.3005,51.4392 34.5625,51.2882 L36.3205,50.2732 C36.9635,49.9022 37.4875,48.8982 37.4875,48.0352 L37.4875,41.6452 C37.4875,41.2102 37.3515,40.8812 37.1145,40.7442 C37.0345,40.6982 36.9445,40.6762 36.8485,40.6762 Z M34.1265,51.6062 C33.9975,51.6062 33.8775,51.5752 33.7685,51.5132 C33.4725,51.3422 33.3035,50.9552 33.3035,50.4512 L33.3035,44.0612 C33.3035,43.1402 33.8685,42.0642 34.5625,41.6632 L36.3205,40.6482 C36.6415,40.4622 36.9565,40.4392 37.2065,40.5842 C37.5025,40.7552 37.6725,41.1422 37.6725,41.6452 L37.6725,48.0352 C37.6725,48.9572 37.1065,50.0332 36.4125,50.4342 L34.6545,51.4492 C34.4735,51.5532 34.2935,51.6062 34.1265,51.6062 Z" id="Fill-18" fill="#FEBD2D"></path>
            <path d="M33.9965,48.5892 L33.9965,49.3332 L34.5915,48.9892 C34.7355,48.9062 34.8565,48.6722 34.8565,48.4782 L34.8565,48.3842 C34.8565,48.2932 34.8295,48.2232 34.7835,48.1972 C34.7395,48.1712 34.6865,48.1912 34.6495,48.2122 L33.9965,48.5892 Z M33.8815,49.5332 L33.8815,48.5222 L34.5915,48.1122 C34.6815,48.0612 34.7705,48.0552 34.8415,48.0972 C34.9245,48.1442 34.9715,48.2492 34.9715,48.3842 L34.9715,48.4782 C34.9715,48.7162 34.8305,48.9852 34.6495,49.0892 L33.8815,49.5332 Z" id="Fill-19" fill="#FEBD2D"></path>
            <path d="M34.5195,44.1072 C34.5195,43.4622 34.9095,42.7122 35.3895,42.4352 L35.6775,42.2682 C35.7205,42.2442 35.7615,42.2282 35.8025,42.2132 C35.8615,42.3382 35.8995,42.4862 35.8995,42.6622 L35.8995,44.4272 C35.8995,45.0822 35.5015,45.8462 35.0115,46.1292 L34.7235,46.2952 C34.6905,46.3142 34.6545,46.3242 34.6205,46.3382 C34.5565,46.2172 34.5195,46.0612 34.5195,45.8722 L34.5195,44.1072 Z M35.9215,42.1832 C35.9465,42.1792 35.9725,42.1712 35.9965,42.1712 C36.0645,42.1712 36.1285,42.1872 36.1855,42.2202 C36.3575,42.3192 36.4565,42.5602 36.4565,42.8812 L36.4565,44.6462 C36.4565,45.2912 36.0655,46.0412 35.5855,46.3192 L35.2975,46.4852 C35.1065,46.5952 34.9255,46.6122 34.7895,46.5332 C34.7495,46.5102 34.7155,46.4782 34.6835,46.4412 C34.7165,46.4272 34.7495,46.4142 34.7805,46.3952 L35.0695,46.2292 C35.5905,45.9282 36.0155,45.1192 36.0155,44.4272 L36.0155,42.6622 C36.0155,42.4802 35.9805,42.3192 35.9215,42.1832 Z M36.2785,42.0602 C36.0815,41.9462 35.8355,41.9642 35.5855,42.1082 L35.2975,42.2752 C34.7655,42.5812 34.3335,43.4032 34.3335,44.1072 L34.3335,45.8722 C34.3335,46.2612 34.4665,46.5602 34.6965,46.6942 C34.7825,46.7432 34.8775,46.7682 34.9785,46.7682 C35.1095,46.7682 35.2485,46.7262 35.3895,46.6452 L35.6775,46.4792 C36.2095,46.1722 36.6415,45.3502 36.6415,44.6462 L36.6415,42.8812 C36.6415,42.4922 36.5085,42.1932 36.2785,42.0602 Z" id="Fill-20" fill="#FEBD2D"></path>
            <path d="M84.0875,13.3792 C83.9525,13.3792 83.8045,13.4232 83.6515,13.5112 L81.8945,14.5262 C81.2505,14.8982 80.7275,15.9012 80.7275,16.7642 L80.7275,23.1542 C80.7275,23.5902 80.8635,23.9192 81.1005,24.0552 C81.2915,24.1662 81.5405,24.1422 81.8015,23.9912 L83.5595,22.9772 C84.2025,22.6052 84.7265,21.6012 84.7265,20.7392 L84.7265,14.3482 C84.7265,13.9132 84.5905,13.5842 84.3535,13.4472 C84.2735,13.4022 84.1835,13.3792 84.0875,13.3792 Z M81.3655,24.3092 C81.2375,24.3092 81.1165,24.2782 81.0075,24.2162 C80.7115,24.0452 80.5425,23.6582 80.5425,23.1542 L80.5425,16.7642 C80.5425,15.8432 81.1075,14.7672 81.8015,14.3662 L83.5595,13.3512 C83.8805,13.1652 84.1955,13.1422 84.4455,13.2872 C84.7415,13.4582 84.9115,13.8452 84.9115,14.3482 L84.9115,20.7392 C84.9115,21.6602 84.3455,22.7362 83.6515,23.1372 L81.8945,24.1522 C81.7125,24.2572 81.5325,24.3092 81.3655,24.3092 Z" id="Fill-21" fill="#FEBD2D"></path>
            <path d="M81.2355,21.2922 L81.2355,22.0362 L81.8305,21.6922 C81.9745,21.6092 82.0955,21.3752 82.0955,21.1822 L82.0955,21.0872 C82.0955,20.9962 82.0685,20.9262 82.0225,20.9002 C81.9785,20.8742 81.9255,20.8942 81.8885,20.9152 L81.2355,21.2922 Z M81.1205,22.2362 L81.1205,21.2252 L81.8305,20.8152 C81.9205,20.7642 82.0095,20.7582 82.0805,20.8002 C82.1635,20.8482 82.2105,20.9522 82.2105,21.0872 L82.2105,21.1822 C82.2105,21.4192 82.0695,21.6882 81.8885,21.7922 L81.1205,22.2362 Z" id="Fill-22" fill="#FEBD2D"></path>
            <path d="M81.7585,16.8102 C81.7585,16.1652 82.1485,15.4152 82.6285,15.1382 L82.9165,14.9712 C82.9595,14.9472 83.0005,14.9312 83.0415,14.9162 C83.1005,15.0412 83.1385,15.1892 83.1385,15.3652 L83.1385,17.1302 C83.1385,17.7862 82.7405,18.5492 82.2505,18.8322 L81.9625,18.9992 C81.9295,19.0172 81.8935,19.0282 81.8595,19.0412 C81.7955,18.9202 81.7585,18.7642 81.7585,18.5752 L81.7585,16.8102 Z M83.1605,14.8862 C83.1855,14.8822 83.2115,14.8742 83.2355,14.8742 C83.3035,14.8742 83.3685,14.8902 83.4245,14.9232 C83.5965,15.0222 83.6955,15.2642 83.6955,15.5852 L83.6955,17.3492 C83.6955,17.9942 83.3045,18.7442 82.8255,19.0222 L82.5365,19.1882 C82.3455,19.2982 82.1645,19.3162 82.0285,19.2362 C81.9895,19.2132 81.9545,19.1812 81.9225,19.1442 C81.9555,19.1302 81.9885,19.1172 82.0195,19.0992 L82.3085,18.9322 C82.8295,18.6312 83.2545,17.8222 83.2545,17.1302 L83.2545,15.3652 C83.2545,15.1832 83.2195,15.0222 83.1605,14.8862 Z M83.5175,14.7632 C83.3205,14.6492 83.0755,14.6672 82.8255,14.8112 L82.5365,14.9782 C82.0045,15.2842 81.5725,16.1062 81.5725,16.8102 L81.5725,18.5752 C81.5725,18.9642 81.7055,19.2632 81.9355,19.3972 C82.0215,19.4462 82.1165,19.4712 82.2175,19.4712 C82.3485,19.4712 82.4875,19.4302 82.6285,19.3482 L82.9165,19.1822 C83.4485,18.8752 83.8805,18.0532 83.8805,17.3492 L83.8805,15.5852 C83.8805,15.1952 83.7475,14.8962 83.5175,14.7632 Z" id="Fill-23" fill="#FEBD2D"></path>
            <path d="M40.4945,40.6652 C40.4945,40.0212 40.8845,39.2712 41.3655,38.9932 L41.6535,38.8272 C41.6955,38.8022 41.7375,38.7872 41.7785,38.7712 C41.8375,38.8962 41.8745,39.0442 41.8745,39.2202 L41.8745,40.9852 C41.8745,41.6412 41.4765,42.4052 40.9865,42.6872 L40.6985,42.8542 C40.6665,42.8732 40.6295,42.8832 40.5955,42.8972 C40.5325,42.7762 40.4945,42.6192 40.4945,42.4302 L40.4945,40.6652 Z M41.8965,38.7412 C41.9215,38.7372 41.9475,38.7292 41.9715,38.7292 C42.0405,38.7292 42.1045,38.7462 42.1615,38.7782 C42.3335,38.8782 42.4315,39.1192 42.4315,39.4402 L42.4315,41.2052 C42.4315,41.8502 42.0415,42.6002 41.5615,42.8772 L41.2735,43.0432 C41.0825,43.1532 40.9025,43.1712 40.7655,43.0922 C40.7255,43.0692 40.6905,43.0372 40.6595,43.0002 C40.6925,42.9862 40.7245,42.9722 40.7565,42.9542 L41.0445,42.7872 C41.5665,42.4862 41.9905,41.6782 41.9905,40.9852 L41.9905,39.2202 C41.9905,39.0382 41.9555,38.8772 41.8965,38.7412 Z M42.2535,38.6182 C42.0565,38.5042 41.8105,38.5222 41.5615,38.6662 L41.2735,38.8332 C40.7415,39.1402 40.3095,39.9622 40.3095,40.6652 L40.3095,42.4302 C40.3095,42.8192 40.4415,43.1182 40.6725,43.2522 C40.7585,43.3012 40.8535,43.3262 40.9545,43.3262 C41.0845,43.3262 41.2245,43.2852 41.3655,43.2042 L41.6535,43.0372 C42.1845,42.7302 42.6165,41.9092 42.6165,41.2052 L42.6165,39.4402 C42.6165,39.0512 42.4845,38.7512 42.2535,38.6182 Z" id="Fill-24" fill="#FEBD2D"></path>
            <path d="M43.6605,38.7772 C43.6605,38.1332 44.0505,37.3832 44.5305,37.1052 L44.8185,36.9392 C44.8615,36.9142 44.9025,36.9002 44.9435,36.8842 C45.0025,37.0082 45.0405,37.1562 45.0405,37.3322 L45.0405,39.0972 C45.0405,39.7532 44.6425,40.5172 44.1525,40.7992 L43.8645,40.9662 C43.8315,40.9852 43.7955,40.9952 43.7615,41.0092 C43.6975,40.8882 43.6605,40.7322 43.6605,40.5422 L43.6605,38.7772 Z M45.0625,36.8532 C45.0875,36.8502 45.1135,36.8422 45.1375,36.8422 C45.2065,36.8422 45.2705,36.8582 45.3265,36.8912 C45.4985,36.9902 45.5975,37.2322 45.5975,37.5522 L45.5975,39.3172 C45.5975,39.9622 45.2065,40.7122 44.7265,40.9892 L44.4385,41.1562 C44.2475,41.2652 44.0675,41.2832 43.9305,41.2042 C43.8915,41.1812 43.8565,41.1492 43.8255,41.1122 C43.8575,41.0982 43.8905,41.0842 43.9225,41.0662 L44.2105,40.9002 C44.7315,40.5982 45.1565,39.7902 45.1565,39.0972 L45.1565,37.3322 C45.1565,37.1502 45.1215,36.9902 45.0625,36.8532 Z M45.4195,36.7302 C45.2225,36.6172 44.9765,36.6342 44.7265,36.7792 L44.4385,36.9452 C43.9075,37.2532 43.4745,38.0742 43.4745,38.7772 L43.4745,40.5422 C43.4745,40.9312 43.6075,41.2312 43.8385,41.3642 C43.9245,41.4142 44.0195,41.4382 44.1205,41.4382 C44.2505,41.4382 44.3905,41.3972 44.5315,41.3162 L44.8185,41.1492 C45.3505,40.8432 45.7825,40.0212 45.7825,39.3172 L45.7825,37.5522 C45.7825,37.1632 45.6505,36.8652 45.4195,36.7302 Z" id="Fill-25" fill="#FEBD2D"></path>
            <path d="M46.8255,36.8892 C46.8255,36.2452 47.2165,35.4952 47.6965,35.2172 L47.9845,35.0512 C48.0275,35.0262 48.0685,35.0122 48.1095,34.9962 C48.1685,35.1202 48.2065,35.2682 48.2065,35.4442 L48.2065,37.2102 C48.2065,37.8652 47.8085,38.6292 47.3185,38.9112 L47.0305,39.0782 C46.9975,39.0972 46.9615,39.1072 46.9265,39.1212 C46.8635,39.0002 46.8255,38.8442 46.8255,38.6552 L46.8255,36.8892 Z M48.2275,34.9662 C48.2525,34.9622 48.2795,34.9542 48.3025,34.9542 C48.3725,34.9542 48.4365,34.9702 48.4925,35.0032 C48.6645,35.1022 48.7635,35.3442 48.7635,35.6642 L48.7635,37.4292 C48.7635,38.0742 48.3725,38.8242 47.8925,39.1012 L47.6045,39.2682 C47.4135,39.3782 47.2335,39.3952 47.0965,39.3162 C47.0565,39.2932 47.0225,39.2612 46.9905,39.2242 C47.0235,39.2102 47.0565,39.1962 47.0885,39.1782 L47.3765,39.0122 C47.8975,38.7112 48.3215,37.9022 48.3215,37.2102 L48.3215,35.4442 C48.3215,35.2622 48.2875,35.1022 48.2275,34.9662 Z M48.5855,34.8422 C48.3885,34.7292 48.1425,34.7462 47.8925,34.8912 L47.6045,35.0572 C47.0735,35.3652 46.6405,36.1862 46.6405,36.8892 L46.6405,38.6552 C46.6405,39.0432 46.7725,39.3432 47.0045,39.4762 C47.0895,39.5262 47.1855,39.5502 47.2855,39.5502 C47.4165,39.5502 47.5555,39.5092 47.6975,39.4282 L47.9845,39.2612 C48.5165,38.9552 48.9485,38.1332 48.9485,37.4292 L48.9485,35.6642 C48.9485,35.2752 48.8155,34.9772 48.5855,34.8422 Z" id="Fill-26" fill="#FEBD2D"></path>
            <path d="M49.9975,35.0202 C49.9975,34.3742 50.3875,33.6242 50.8685,33.3482 L51.1565,33.1802 C51.1985,33.1562 51.2405,33.1412 51.2815,33.1252 C51.3405,33.2492 51.3785,33.3972 51.3785,33.5742 L51.3785,35.3392 C51.3785,35.9952 50.9795,36.7582 50.4905,37.0422 L50.2015,37.2072 C50.1695,37.2272 50.1335,37.2362 50.0985,37.2502 C50.0355,37.1292 49.9975,36.9732 49.9975,36.7842 L49.9975,35.0202 Z M51.3995,33.0952 C51.4245,33.0912 51.4505,33.0832 51.4745,33.0832 C51.5435,33.0832 51.6075,33.0992 51.6645,33.1322 C51.8365,33.2322 51.9345,33.4732 51.9345,33.7932 L51.9345,35.5592 C51.9345,36.2032 51.5445,36.9532 51.0645,37.2302 L50.7765,37.3972 C50.5855,37.5072 50.4055,37.5242 50.2685,37.4452 C50.2285,37.4222 50.1945,37.3902 50.1625,37.3532 C50.1955,37.3392 50.2285,37.3262 50.2595,37.3072 L50.5475,37.1412 C51.0695,36.8402 51.4935,36.0312 51.4935,35.3392 L51.4935,33.5742 C51.4935,33.3912 51.4595,33.2302 51.3995,33.0952 Z M51.7565,32.9732 C51.5605,32.8582 51.3145,32.8762 51.0645,33.0202 L50.7765,33.1862 C50.2445,33.4942 49.8125,34.3152 49.8125,35.0202 L49.8125,36.7842 C49.8125,37.1732 49.9445,37.4722 50.1755,37.6052 C50.2615,37.6552 50.3565,37.6802 50.4575,37.6802 C50.5885,37.6802 50.7275,37.6382 50.8685,37.5572 L51.1565,37.3912 C51.6875,37.0852 52.1195,36.2622 52.1195,35.5592 L52.1195,33.7932 C52.1195,33.4042 51.9875,33.1052 51.7565,32.9732 Z" id="Fill-27" fill="#FEBD2D"></path>
            <path d="M53.1605,33.1882 C53.1605,32.5442 53.5505,31.7932 54.0315,31.5162 L54.3195,31.3502 C54.3615,31.3262 54.4025,31.3092 54.4435,31.2942 C54.5035,31.4192 54.5405,31.5682 54.5405,31.7442 L54.5405,33.5082 C54.5405,34.1642 54.1425,34.9272 53.6525,35.2102 L53.3645,35.3782 C53.3315,35.3952 53.2955,35.4062 53.2615,35.4192 C53.1975,35.2982 53.1605,35.1422 53.1605,34.9532 L53.1605,33.1882 Z M54.5625,31.2642 C54.5875,31.2602 54.6135,31.2532 54.6375,31.2532 C54.7065,31.2532 54.7705,31.2682 54.8265,31.3012 C54.9995,31.4012 55.0975,31.6422 55.0975,31.9642 L55.0975,33.7282 C55.0975,34.3722 54.7065,35.1242 54.2265,35.4002 L53.9385,35.5662 C53.7475,35.6762 53.5675,35.6942 53.4305,35.6152 C53.3915,35.5922 53.3565,35.5592 53.3255,35.5222 C53.3575,35.5082 53.3905,35.4952 53.4225,35.4772 L53.7105,35.3102 C54.2315,35.0092 54.6565,34.2012 54.6565,33.5082 L54.6565,31.7442 C54.6565,31.5612 54.6215,31.4002 54.5625,31.2642 Z M54.9195,31.1412 C54.7225,31.0272 54.4765,31.0452 54.2265,31.1892 L53.9385,31.3572 C53.4075,31.6632 52.9755,32.4842 52.9755,33.1882 L52.9755,34.9532 C52.9755,35.3422 53.1075,35.6412 53.3385,35.7752 C53.4245,35.8242 53.5195,35.8492 53.6205,35.8492 C53.7505,35.8492 53.8905,35.8092 54.0315,35.7272 L54.3195,35.5602 C54.8505,35.2532 55.2825,34.4312 55.2825,33.7282 L55.2825,31.9642 C55.2825,31.5742 55.1505,31.2752 54.9195,31.1412 Z" id="Fill-28" fill="#FEBD2D"></path>
            <path d="M56.3255,31.3792 C56.3255,30.7352 56.7165,29.9852 57.1965,29.7072 L57.4845,29.5412 C57.5275,29.5162 57.5685,29.5012 57.6095,29.4862 C57.6685,29.6102 57.7065,29.7582 57.7065,29.9342 L57.7065,31.6992 C57.7065,32.3552 57.3085,33.1192 56.8185,33.4012 L56.5305,33.5682 C56.4975,33.5872 56.4615,33.5982 56.4265,33.6112 C56.3635,33.4902 56.3255,33.3332 56.3255,33.1452 L56.3255,31.3792 Z M57.7285,29.4562 C57.7535,29.4522 57.7795,29.4442 57.8035,29.4442 C57.8725,29.4442 57.9365,29.4602 57.9925,29.4932 C58.1645,29.5922 58.2635,29.8332 58.2635,30.1542 L58.2635,31.9192 C58.2635,32.5642 57.8725,33.3142 57.3925,33.5912 L57.1045,33.7582 C56.9135,33.8672 56.7335,33.8852 56.5965,33.8062 C56.5575,33.7832 56.5225,33.7512 56.4905,33.7142 C56.5235,33.7012 56.5565,33.6862 56.5885,33.6682 L56.8765,33.5032 C57.3975,33.2012 57.8225,32.3922 57.8225,31.6992 L57.8225,29.9342 C57.8225,29.7522 57.7875,29.5912 57.7285,29.4562 Z M58.0855,29.3322 C57.8885,29.2192 57.6425,29.2362 57.3925,29.3812 L57.1045,29.5472 C56.5735,29.8542 56.1405,30.6762 56.1405,31.3792 L56.1405,33.1452 C56.1405,33.5332 56.2735,33.8332 56.5045,33.9662 C56.5895,34.0162 56.6855,34.0402 56.7855,34.0402 C56.9165,34.0402 57.0555,33.9992 57.1975,33.9182 L57.4845,33.7512 C58.0165,33.4452 58.4485,32.6242 58.4485,31.9192 L58.4485,30.1542 C58.4485,29.7652 58.3155,29.4662 58.0855,29.3322 Z" id="Fill-29" fill="#FEBD2D"></path>
            <path d="M59.4915,29.4912 C59.4915,28.8472 59.8825,28.0972 60.3625,27.8192 L60.6505,27.6532 C60.6935,27.6292 60.7345,27.6132 60.7755,27.5982 C60.8345,27.7222 60.8725,27.8702 60.8725,28.0472 L60.8725,29.8122 C60.8725,30.4672 60.4735,31.2322 59.9845,31.5132 L59.6965,31.6802 C59.6635,31.6992 59.6275,31.7102 59.5925,31.7232 C59.5295,31.6022 59.4915,31.4472 59.4915,31.2572 L59.4915,29.4912 Z M60.8935,27.5682 C60.9185,27.5642 60.9445,27.5562 60.9685,27.5562 C61.0375,27.5562 61.1015,27.5722 61.1585,27.6052 C61.3305,27.7042 61.4285,27.9452 61.4285,28.2662 L61.4285,30.0312 C61.4285,30.6762 61.0385,31.4262 60.5585,31.7032 L60.2705,31.8702 C60.0795,31.9802 59.8995,31.9972 59.7625,31.9182 C59.7225,31.8952 59.6885,31.8632 59.6565,31.8262 C59.6895,31.8132 59.7225,31.7982 59.7535,31.7802 L60.0415,31.6152 C60.5635,31.3132 60.9875,30.5042 60.9875,29.8122 L60.9875,28.0472 C60.9875,27.8642 60.9535,27.7032 60.8935,27.5682 Z M61.2505,27.4452 C61.0545,27.3312 60.8085,27.3492 60.5585,27.4932 L60.2705,27.6592 C59.7395,27.9662 59.3065,28.7882 59.3065,29.4912 L59.3065,31.2572 C59.3065,31.6452 59.4385,31.9452 59.6695,32.0782 C59.7555,32.1282 59.8515,32.1522 59.9515,32.1522 C60.0825,32.1522 60.2215,32.1112 60.3625,32.0302 L60.6505,31.8632 C61.1815,31.5572 61.6145,30.7352 61.6145,30.0312 L61.6145,28.2662 C61.6145,27.8772 61.4815,27.5782 61.2505,27.4452 Z" id="Fill-30" fill="#FEBD2D"></path>
            <path d="M62.6635,27.6352 C62.6635,26.9912 63.0535,26.2412 63.5345,25.9632 L63.8225,25.7972 C63.8645,25.7722 63.9065,25.7572 63.9475,25.7422 C64.0065,25.8662 64.0435,26.0142 64.0435,26.1902 L64.0435,27.9562 C64.0435,28.6112 63.6455,29.3752 63.1555,29.6572 L62.8675,29.8242 C62.8345,29.8432 62.7985,29.8532 62.7645,29.8672 C62.7015,29.7462 62.6635,29.5902 62.6635,29.4002 L62.6635,27.6352 Z M64.0655,25.7122 C64.0905,25.7082 64.1165,25.7002 64.1405,25.7002 C64.2095,25.7002 64.2735,25.7162 64.3305,25.7492 C64.5025,25.8482 64.6005,26.0892 64.6005,26.4102 L64.6005,28.1752 C64.6005,28.8202 64.2105,29.5702 63.7305,29.8472 L63.4425,30.0142 C63.2515,30.1242 63.0715,30.1412 62.9345,30.0622 C62.8945,30.0392 62.8595,30.0072 62.8285,29.9702 C62.8615,29.9562 62.8945,29.9422 62.9255,29.9242 L63.2135,29.7582 C63.7355,29.4562 64.1595,28.6482 64.1595,27.9562 L64.1595,26.1902 C64.1595,26.0082 64.1245,25.8472 64.0655,25.7122 Z M64.4225,25.5882 C64.2255,25.4752 63.9795,25.4922 63.7305,25.6372 L63.4425,25.8032 C62.9105,26.1102 62.4785,26.9322 62.4785,27.6352 L62.4785,29.4002 C62.4785,29.7892 62.6105,30.0892 62.8415,30.2222 C62.9275,30.2722 63.0225,30.2962 63.1235,30.2962 C63.2535,30.2962 63.3935,30.2552 63.5345,30.1742 L63.8225,30.0072 C64.3535,29.7012 64.7855,28.8792 64.7855,28.1752 L64.7855,26.4102 C64.7855,26.0212 64.6535,25.7222 64.4225,25.5882 Z" id="Fill-31" fill="#FEBD2D"></path>
            <path d="M65.8285,25.8132 C65.8285,25.1682 66.2195,24.4182 66.7005,24.1412 L66.9875,23.9742 C67.0305,23.9502 67.0715,23.9342 67.1125,23.9192 C67.1715,24.0432 67.2095,24.1922 67.2095,24.3682 L67.2095,26.1332 C67.2095,26.7892 66.8115,27.5522 66.3215,27.8352 L66.0335,28.0012 C66.0005,28.0202 65.9645,28.0302 65.9305,28.0442 C65.8665,27.9232 65.8285,27.7672 65.8285,27.5782 L65.8285,25.8132 Z M67.2315,23.8892 C67.2565,23.8852 67.2825,23.8772 67.3065,23.8772 C67.3755,23.8772 67.4395,23.8932 67.4955,23.9262 C67.6675,24.0252 67.7665,24.2672 67.7665,24.5882 L67.7665,26.3532 C67.7665,26.9972 67.3755,27.7472 66.8955,28.0252 L66.6075,28.1912 C66.4165,28.3012 66.2365,28.3192 66.0995,28.2392 C66.0605,28.2172 66.0255,28.1842 65.9945,28.1472 C66.0265,28.1332 66.0595,28.1202 66.0915,28.1022 L66.3795,27.9352 C66.9005,27.6342 67.3255,26.8252 67.3255,26.1332 L67.3255,24.3682 C67.3255,24.1852 67.2905,24.0252 67.2315,23.8892 Z M67.5885,23.7662 C67.3915,23.6522 67.1455,23.6702 66.8955,23.8142 L66.6075,23.9802 C66.0765,24.2882 65.6435,25.1092 65.6435,25.8132 L65.6435,27.5782 C65.6435,27.9672 65.7765,28.2662 66.0075,28.3992 C66.0935,28.4492 66.1885,28.4742 66.2895,28.4742 C66.4195,28.4742 66.5595,28.4332 66.7005,28.3512 L66.9875,28.1852 C67.5195,27.8782 67.9515,27.0562 67.9515,26.3532 L67.9515,24.5882 C67.9515,24.1992 67.8195,23.8992 67.5885,23.7662 Z" id="Fill-32" fill="#FEBD2D"></path>
            <path d="M68.9945,24.0002 C68.9945,23.3552 69.3855,22.6052 69.8655,22.3282 L70.1535,22.1612 C70.1965,22.1372 70.2375,22.1212 70.2785,22.1062 C70.3375,22.2302 70.3755,22.3792 70.3755,22.5552 L70.3755,24.3202 C70.3755,24.9762 69.9775,25.7392 69.4875,26.0222 L69.1995,26.1892 C69.1665,26.2072 69.1305,26.2172 69.0955,26.2312 C69.0325,26.1102 68.9945,25.9542 68.9945,25.7652 L68.9945,24.0002 Z M70.3965,22.0762 C70.4215,22.0722 70.4485,22.0642 70.4715,22.0642 C70.5415,22.0642 70.6055,22.0812 70.6615,22.1132 C70.8335,22.2132 70.9325,22.4542 70.9325,22.7752 L70.9325,24.5402 C70.9325,25.1842 70.5415,25.9352 70.0615,26.2112 L69.7735,26.3782 C69.5825,26.4882 69.4025,26.5062 69.2655,26.4262 C69.2265,26.4042 69.1915,26.3712 69.1595,26.3342 C69.1925,26.3202 69.2255,26.3072 69.2575,26.2892 L69.5455,26.1222 C70.0665,25.8212 70.4905,25.0132 70.4905,24.3202 L70.4905,22.5552 C70.4905,22.3732 70.4565,22.2122 70.3965,22.0762 Z M70.7545,21.9532 C70.5575,21.8392 70.3115,21.8572 70.0615,22.0012 L69.7735,22.1682 C69.2425,22.4752 68.8095,23.2972 68.8095,24.0002 L68.8095,25.7652 C68.8095,26.1542 68.9415,26.4532 69.1735,26.5862 C69.2585,26.6362 69.3545,26.6612 69.4545,26.6612 C69.5855,26.6612 69.7245,26.6202 69.8665,26.5382 L70.1535,26.3722 C70.6855,26.0652 71.1175,25.2432 71.1175,24.5402 L71.1175,22.7752 C71.1175,22.3862 70.9845,22.0862 70.7545,21.9532 Z" id="Fill-33" fill="#FEBD2D"></path>
            <path d="M72.1665,22.1442 C72.1665,21.4992 72.5575,20.7492 73.0375,20.4722 L73.3255,20.3052 C73.3685,20.2812 73.4095,20.2652 73.4505,20.2502 C73.5095,20.3742 73.5475,20.5232 73.5475,20.6992 L73.5475,22.4642 C73.5475,23.1202 73.1485,23.8832 72.6595,24.1662 L72.3705,24.3322 C72.3385,24.3512 72.3025,24.3612 72.2675,24.3752 C72.2045,24.2542 72.1665,24.0982 72.1665,23.9092 L72.1665,22.1442 Z M73.5685,20.2202 C73.5935,20.2162 73.6195,20.2082 73.6435,20.2082 C73.7125,20.2082 73.7765,20.2242 73.8335,20.2572 C74.0055,20.3562 74.1035,20.5982 74.1035,20.9182 L74.1035,22.6842 C74.1035,23.3282 73.7135,24.0782 73.2335,24.3552 L72.9455,24.5222 C72.7545,24.6322 72.5745,24.6502 72.4375,24.5702 C72.3975,24.5472 72.3635,24.5152 72.3315,24.4782 C72.3645,24.4642 72.3975,24.4512 72.4285,24.4332 L72.7165,24.2662 C73.2385,23.9652 73.6625,23.1572 73.6625,22.4642 L73.6625,20.6992 C73.6625,20.5172 73.6285,20.3562 73.5685,20.2202 Z M73.9255,20.0972 C73.7295,19.9832 73.4835,20.0012 73.2335,20.1452 L72.9455,20.3112 C72.4135,20.6182 71.9815,21.4402 71.9815,22.1442 L71.9815,23.9092 C71.9815,24.2982 72.1135,24.5972 72.3445,24.7302 C72.4305,24.7802 72.5255,24.8052 72.6265,24.8052 C72.7565,24.8052 72.8965,24.7642 73.0375,24.6822 L73.3255,24.5162 C73.8565,24.2092 74.2885,23.3872 74.2885,22.6842 L74.2885,20.9182 C74.2885,20.5302 74.1565,20.2302 73.9255,20.0972 Z" id="Fill-34" fill="#FEBD2D"></path>
            <path d="M75.3325,20.3212 C75.3325,19.6772 75.7225,18.9272 76.2035,18.6492 L76.4915,18.4832 C76.5335,18.4582 76.5745,18.4432 76.6155,18.4282 C76.6755,18.5522 76.7125,18.7002 76.7125,18.8762 L76.7125,20.6412 C76.7125,21.2972 76.3145,22.0612 75.8245,22.3432 L75.5365,22.5102 C75.5035,22.5292 75.4675,22.5392 75.4335,22.5532 C75.3695,22.4322 75.3325,22.2752 75.3325,22.0862 L75.3325,20.3212 Z M76.7345,18.3972 C76.7595,18.3942 76.7855,18.3862 76.8095,18.3862 C76.8785,18.3862 76.9425,18.4022 76.9995,18.4352 C77.1715,18.5342 77.2695,18.7752 77.2695,19.0962 L77.2695,20.8612 C77.2695,21.5062 76.8785,22.2562 76.3995,22.5332 L76.1115,22.7002 C75.9205,22.8092 75.7395,22.8272 75.6035,22.7482 C75.5635,22.7252 75.5285,22.6932 75.4975,22.6562 C75.5295,22.6422 75.5625,22.6282 75.5945,22.6102 L75.8825,22.4432 C76.4035,22.1422 76.8285,21.3342 76.8285,20.6412 L76.8285,18.8762 C76.8285,18.6942 76.7935,18.5332 76.7345,18.3972 Z M77.0915,18.2742 C76.8945,18.1612 76.6485,18.1782 76.3995,18.3232 L76.1115,18.4892 C75.5795,18.7962 75.1475,19.6182 75.1475,20.3212 L75.1475,22.0862 C75.1475,22.4752 75.2795,22.7752 75.5105,22.9082 C75.5965,22.9572 75.6915,22.9822 75.7925,22.9822 C75.9225,22.9822 76.0625,22.9412 76.2035,22.8602 L76.4915,22.6932 C77.0225,22.3872 77.4545,21.5652 77.4545,20.8612 L77.4545,19.0962 C77.4545,18.7072 77.3225,18.4082 77.0915,18.2742 Z" id="Fill-35" fill="#FEBD2D"></path>
            <path d="M49.7335,46.3602 L49.6185,46.4222 L49.6185,44.5362 C49.6185,44.2962 49.7455,44.0702 49.9505,43.9452 L67.4715,33.6022 C67.5765,33.5382 67.7035,33.5382 67.8105,33.5962 C67.9185,33.6582 67.9825,33.7672 67.9825,33.8912 L67.9825,35.7512 L67.8655,35.8192 L67.8665,33.8912 C67.8665,33.8092 67.8245,33.7372 67.7535,33.6972 C67.6835,33.6582 67.6005,33.6592 67.5305,33.7012 L50.0095,44.0442 C49.8395,44.1482 49.7335,44.3362 49.7335,44.5362 L49.7335,46.3602 Z" id="Fill-36" fill="#FEBD2D"></path>
            <path d="M26.8615,31.1632 C26.5565,31.1632 26.2335,31.2382 25.9815,31.3832 L24.9235,31.9942 C24.7015,32.1222 24.5755,32.2832 24.5755,32.4362 C24.5755,32.5872 24.6995,32.6912 24.8045,32.7512 L28.5865,34.9352 C28.9785,35.1632 29.6705,35.1302 30.1285,34.8662 L31.1865,34.2552 C31.4075,34.1282 31.5345,33.9672 31.5345,33.8142 C31.5345,33.6632 31.4095,33.5592 31.3055,33.4992 L27.5235,31.3152 C27.3465,31.2142 27.1105,31.1632 26.8615,31.1632 Z M29.2495,35.3182 C28.9605,35.3182 28.6825,35.2582 28.4705,35.1352 L24.6885,32.9512 C24.4665,32.8232 24.3445,32.6412 24.3435,32.4362 C24.3435,32.1982 24.5125,31.9642 24.8075,31.7942 L25.8655,31.1842 C26.3965,30.8772 27.1745,30.8472 27.6385,31.1152 L31.4215,33.2982 C31.6435,33.4272 31.7655,33.6112 31.7655,33.8142 C31.7655,34.0522 31.5965,34.2852 31.3015,34.4562 L30.2435,35.0662 C29.9555,35.2332 29.5945,35.3182 29.2495,35.3182 Z" id="Fill-37" fill="#171310"></path>
            <path d="M27.7715,33.8422 C27.8315,33.8762 27.9635,33.8762 28.0505,33.8262 L28.2225,33.7272 C28.2555,33.7072 28.2625,33.6932 28.2625,33.6932 L27.1765,33.0782 C27.1175,33.0442 26.9855,33.0442 26.8975,33.0952 L26.7255,33.1942 C26.6925,33.2142 26.6865,33.2282 26.6865,33.2282 L27.7715,33.8422 Z M27.8865,34.0982 C27.8015,34.0982 27.7205,34.0792 27.6555,34.0422 L26.5815,33.4222 C26.5015,33.3762 26.4555,33.3032 26.4555,33.2232 C26.4555,33.1342 26.5115,33.0512 26.6105,32.9942 L26.7815,32.8952 C26.9355,32.8062 27.1555,32.8002 27.2925,32.8782 L28.3665,33.4992 C28.4465,33.5462 28.4925,33.6172 28.4925,33.6982 C28.4925,33.7882 28.4365,33.8702 28.3385,33.9272 L28.1665,34.0262 C28.0845,34.0732 27.9835,34.0982 27.8865,34.0982 Z" id="Fill-38" fill="#171310"></path>
            <path d="M77.1385,6.8832 C77.5305,7.1092 78.2225,7.0782 78.6805,6.8142 L79.7385,6.2032 C79.9595,6.0752 80.0865,5.9152 80.0865,5.7622 C80.0865,5.6102 79.9615,5.5062 79.8575,5.4462 L76.0755,3.2632 C75.6825,3.0362 74.9915,3.0672 74.5335,3.3312 L73.4755,3.9422 C73.2535,4.0702 73.1275,4.2312 73.1275,4.3832 C73.1275,4.5352 73.2525,4.6392 73.3565,4.6992 L77.1385,6.8832 Z M77.8025,7.2652 C77.5125,7.2652 77.2345,7.2052 77.0225,7.0832 L73.2405,4.8992 C73.0185,4.7712 72.8965,4.5882 72.8965,4.3832 C72.8965,4.1462 73.0655,3.9122 73.3595,3.7422 L74.4185,3.1312 C74.9475,2.8252 75.7265,2.7942 76.1905,3.0632 L79.9735,5.2462 C80.1955,5.3742 80.3175,5.5582 80.3175,5.7622 C80.3175,5.9992 80.1485,6.2332 79.8545,6.4032 L78.7955,7.0142 C78.5075,7.1802 78.1465,7.2652 77.8025,7.2652 Z" id="Fill-39" fill="#171310"></path>
            <path d="M76.3235,5.7902 C76.3845,5.8242 76.5155,5.8242 76.6035,5.7732 L76.7745,5.6742 C76.8075,5.6552 76.8145,5.6402 76.8145,5.6402 L75.7285,5.0262 C75.6705,4.9932 75.5375,4.9912 75.4495,5.0422 L75.2775,5.1422 C75.2445,5.1612 75.2385,5.1762 75.2385,5.1762 L76.3235,5.7902 Z M76.4385,6.0452 C76.3535,6.0452 76.2725,6.0272 76.2075,5.9902 L75.1335,5.3702 C75.0535,5.3232 75.0075,5.2512 75.0075,5.1702 C75.0075,5.0812 75.0645,4.9982 75.1625,4.9412 L75.3335,4.8422 C75.4865,4.7542 75.7055,4.7472 75.8445,4.8262 L76.9185,5.4462 C76.9985,5.4932 77.0445,5.5652 77.0445,5.6452 C77.0445,5.7342 76.9885,5.8182 76.8905,5.8742 L76.7195,5.9732 C76.6365,6.0212 76.5355,6.0452 76.4385,6.0452 Z" id="Fill-40" fill="#171310"></path>
            <path d="M33.4955,52.9262 C33.4615,52.9262 33.4275,52.9412 33.4015,52.9562 L32.0535,53.7342 C31.8995,53.8232 31.7695,54.0732 31.7695,54.2802 L31.7695,55.1082 C31.7695,55.2062 31.7995,55.2822 31.8485,55.3102 C31.8985,55.3392 31.9555,55.3172 31.9955,55.2942 L33.3435,54.5162 L33.3725,54.5662 L33.3435,54.5162 C33.4965,54.4272 33.6265,54.1772 33.6265,53.9702 L33.6265,53.1422 C33.6265,53.0442 33.5975,52.9682 33.5475,52.9402 C33.5315,52.9302 33.5135,52.9262 33.4955,52.9262 Z M31.9005,55.4392 C31.8615,55.4392 31.8245,55.4302 31.7915,55.4102 C31.7045,55.3602 31.6545,55.2502 31.6545,55.1082 L31.6545,54.2802 C31.6545,54.0282 31.8045,53.7452 31.9955,53.6342 L33.3435,52.8562 C33.4375,52.8022 33.5295,52.7962 33.6055,52.8392 C33.6925,52.8892 33.7425,53.0002 33.7425,53.1422 L33.7425,53.9702 C33.7425,54.2222 33.5925,54.5052 33.4015,54.6162 L32.0535,55.3942 C32.0015,55.4242 31.9495,55.4392 31.9005,55.4392 Z" id="Fill-41" fill="#FEBE2E"></path>
            <path d="M86.9535,22.4932 C86.9185,22.4932 86.8845,22.5072 86.8585,22.5232 L85.5105,23.3012 C85.3575,23.3892 85.2275,23.6392 85.2275,23.8472 L85.2275,24.6752 C85.2275,24.7732 85.2575,24.8492 85.3065,24.8772 C85.3545,24.9062 85.4135,24.8832 85.4535,24.8612 L86.8005,24.0822 C86.9545,23.9942 87.0835,23.7442 87.0835,23.5362 L87.0835,22.7082 C87.0835,22.6102 87.0545,22.5352 87.0045,22.5062 C86.9885,22.4972 86.9705,22.4932 86.9535,22.4932 Z M85.3575,25.0062 C85.3185,25.0062 85.2825,24.9972 85.2485,24.9772 C85.1615,24.9272 85.1125,24.8172 85.1125,24.6752 L85.1125,23.8472 C85.1125,23.5952 85.2615,23.3112 85.4535,23.2012 L86.8005,22.4222 C86.8945,22.3682 86.9875,22.3632 87.0625,22.4062 C87.1495,22.4562 87.1995,22.5662 87.1995,22.7082 L87.1995,23.5362 C87.1995,23.7882 87.0495,24.0722 86.8585,24.1832 L85.5105,24.9612 C85.4585,24.9912 85.4065,25.0062 85.3575,25.0062 Z" id="Fill-42" fill="#FEBE2E"></path>
            <path d="M26.7305,37.6912 L20.1585,33.8972 C19.2575,33.3782 18.3795,33.3132 17.6855,33.7122 C17.6855,33.7122 12.4445,36.9042 5.2205,47.6562 C-2.0035,58.4102 -0.1535,60.9722 2.2735,62.5812 C4.7005,64.1892 8.1685,65.9212 8.1685,65.9212 C8.1685,65.9212 11.8665,67.2862 16.8945,64.8712 C21.0205,62.8892 28.8925,58.4752 29.0875,58.3632 C29.9205,57.8822 30.3975,56.7832 30.3975,55.3482 L30.3975,44.6882 C30.3975,41.9982 28.7525,38.8592 26.7305,37.6912 Z" id="Fill-43" fill="#FEBD2D"></path>
            <path d="M18.6745,33.5692 C18.3395,33.5692 18.0245,33.6502 17.7435,33.8132 C17.6935,33.8422 12.4385,37.1192 5.3165,47.7212 C1.4695,53.4482 -0.1655,57.4042 0.3155,59.8182 C0.5845,61.1662 1.4885,61.9222 2.3375,62.4842 C4.7305,64.0712 8.1845,65.8012 8.2195,65.8182 C8.2445,65.8262 11.9235,67.1302 16.8445,64.7672 C20.9865,62.7772 28.9625,58.3022 29.0295,58.2632 C29.8255,57.8032 30.2815,56.7412 30.2815,55.3482 L30.2815,44.6882 C30.2815,42.0352 28.6625,38.9412 26.6725,37.7912 L20.1005,33.9972 C19.6075,33.7142 19.1225,33.5692 18.6745,33.5692 Z M10.9385,66.4142 C9.2055,66.4142 8.1475,66.0372 8.1285,66.0302 C8.0815,66.0072 4.6145,64.2712 2.2095,62.6772 C1.3215,62.0882 0.3745,61.2942 0.0895,59.8632 C-0.4125,57.3522 1.1875,53.4532 5.1245,47.5922 C12.2795,36.9402 17.5725,33.6452 17.6255,33.6132 C18.3595,33.1902 19.2785,33.2572 20.2165,33.7972 L26.7875,37.5912 C28.8415,38.7772 30.5125,41.9612 30.5125,44.6882 L30.5125,55.3482 C30.5125,56.8262 30.0145,57.9612 29.1455,58.4632 C29.0785,58.5012 21.0925,62.9822 16.9445,64.9752 C14.5775,66.1122 12.4885,66.4142 10.9385,66.4142 Z" id="Fill-44" fill="#171310"></path>
            <path d="M29.6185,58.4662 L29.4825,58.2782 C30.3475,57.6542 30.2825,54.5132 30.2825,54.4822 L30.2825,44.7512 C30.2825,42.1562 29.2935,40.5672 29.2835,40.5522 L29.4785,40.4282 C29.5215,40.4952 30.5135,42.0892 30.5135,44.7512 L30.5135,54.4792 C30.5165,54.6112 30.5805,57.7702 29.6185,58.4662 Z" id="Fill-45" fill="#FEBD2D"></path>
            <path d="M7.8655,51.0192 L10.9595,52.7722 C12.7215,53.7692 14.8375,53.9212 16.7235,53.1852 C18.9085,52.3332 20.8205,50.9022 22.2555,49.0472 L25.3555,45.0372 C26.1975,43.9472 26.5495,42.5572 26.3275,41.1982 C26.1905,40.3602 25.6845,39.6292 24.9485,39.2072 L19.4505,36.0552 C18.3915,35.4472 17.1065,35.3782 15.9875,35.8672 C14.6915,36.4342 13.5205,37.2502 12.5525,38.2822 C11.0115,39.9252 9.1825,42.0872 7.1525,44.8812 C6.4055,45.9072 6.0615,47.1742 6.1975,48.4362 L6.2025,48.4812 C6.3185,49.5522 6.9365,50.4932 7.8655,51.0192 Z" id="Fill-46" fill="#FEBE2E"></path>
            <path d="M7.8675,51.0192 L7.9425,51.0622 C9.1625,49.6732 10.9945,47.0632 13.2725,44.4832 C15.2405,42.2552 17.5205,40.0812 19.4525,38.0422 C18.3935,37.4352 17.1085,37.3652 15.9905,37.8542 C14.6935,38.4212 13.5225,39.2372 12.5545,40.2692 C11.0135,41.9132 9.1845,44.0742 7.1545,46.8682 C6.7145,47.4732 6.4185,48.1632 6.2735,48.8852 C6.4845,49.7862 7.0575,50.5602 7.8675,51.0192 Z" id="Fill-47" fill="#FFEFCD"></path>
            <path d="M24.9505,41.1942 L21.0785,38.9752 C19.8605,39.8712 17.3245,42.5762 14.7365,45.5622 C13.3405,47.1732 11.9245,49.0692 10.9395,50.5482 C10.5355,51.1552 10.1815,51.6862 9.8705,52.1542 L10.9625,52.7722 C12.7235,53.7692 14.8395,53.9212 16.7255,53.1852 C18.9105,52.3332 20.8225,50.9022 22.2575,49.0472 L25.3575,45.0372 C25.8265,44.4302 26.1365,43.7292 26.2875,42.9942 C26.1095,42.2382 25.6295,41.5842 24.9505,41.1942 Z" id="Fill-48" fill="#FFEFCD"></path>
            <path d="M25.2645,44.9632 L22.1645,48.9732 C22.1625,48.9752 22.1615,48.9772 22.1605,48.9782 C21.9235,49.2842 21.6525,49.5632 21.3545,49.8092 C20.2545,50.7162 19.0115,51.4432 17.6625,51.9442 C15.8325,52.6242 13.7885,52.4202 12.0895,51.4572 L8.9945,49.7042 C8.0665,49.1782 7.4475,48.2382 7.3325,47.1672 L7.3275,47.1222 C7.1945,45.8802 7.5165,44.6272 8.2475,43.6142 C8.3665,43.4492 8.4815,43.2962 8.5985,43.1372 C9.9505,41.3822 11.3035,39.7802 12.6375,38.3582 C13.6045,37.3282 14.7665,36.5162 16.0905,35.9472 C17.1585,35.4862 18.3815,35.5722 19.3905,36.1512 C21.0025,37.0762 23.5685,38.5462 24.8925,39.3052 C25.5785,39.6992 26.0655,40.3722 26.2035,41.1512 C26.4415,42.4932 26.0975,43.8862 25.2645,44.9632 Z M26.4425,41.1762 C26.2995,40.3012 25.7755,39.5452 25.0065,39.1042 L19.5085,35.9522 C18.4225,35.3292 17.0895,35.2572 15.9415,35.7582 C14.6115,36.3402 13.4435,37.1612 12.4685,38.2002 C10.6835,40.1042 8.8635,42.3282 7.0585,44.8102 C6.2905,45.8672 5.9445,47.1582 6.0835,48.4462 L6.0885,48.4912 C6.2075,49.5922 6.8495,50.5742 7.8085,51.1172 L10.9035,52.8702 C11.9485,53.4622 13.1075,53.7622 14.2735,53.7622 C15.1145,53.7622 15.9585,53.6062 16.7655,53.2902 C18.9695,52.4312 20.8995,50.9872 22.3475,49.1152 L25.4475,45.1052 C26.3065,43.9942 26.6685,42.5622 26.4425,41.1762 Z" id="Fill-49" fill="#171310"></path>
            <path d="M28.1415,38.9462 C28.6545,40.0422 29.0565,41.2372 27.4745,46.1122 C26.0405,50.5302 19.5845,57.3602 15.1475,60.8142 C13.0735,61.8262 9.1755,62.8302 6.1015,61.4072 C0.7435,58.9242 0.7365,56.2302 0.7375,56.2032 L0.5065,56.1972 C0.5035,56.3132 0.4905,59.0612 6.0045,61.6162 C7.1105,62.1292 8.3495,62.3332 9.5855,62.3332 C11.2925,62.3322 12.9905,61.9432 14.3185,61.4382 C13.6855,61.8952 13.1105,62.2652 12.6185,62.5262 C8.6885,64.6142 6.6655,63.6752 3.2565,61.6522 C0.0925,59.7762 0.1975,58.0362 0.2295,57.7942 C-0.2555,60.5482 0.9175,61.7462 2.2735,62.6442 C4.7005,64.2532 8.1685,65.9842 8.1685,65.9842 C8.1685,65.9842 11.8665,67.3502 16.8945,64.9342 C21.0205,62.9522 28.8925,58.5392 29.0875,58.4262 C29.9205,57.9452 30.3975,56.8472 30.3975,55.4122 L30.3975,44.7522 C30.3975,42.7262 29.4645,40.4472 28.1415,38.9462 Z" id="Fill-50" fill="#171310"></path>
            <path d="M27.9405,52.1552 C27.8775,52.1552 27.8075,52.1752 27.7365,52.2172 L26.3645,53.0092 C26.0605,53.1842 25.8035,53.6782 25.8035,54.0862 L25.8035,57.0842 C25.8035,57.2902 25.8675,57.4452 25.9785,57.5102 C26.0675,57.5612 26.1845,57.5512 26.3065,57.4802 L27.6785,56.6882 C27.9825,56.5122 28.2395,56.0192 28.2395,55.6102 L28.2395,52.6132 C28.2395,52.4062 28.1755,52.2512 28.0635,52.1862 C28.0275,52.1652 27.9855,52.1552 27.9405,52.1552 Z M26.1025,57.6582 C26.0375,57.6582 25.9765,57.6422 25.9215,57.6102 C25.7725,57.5242 25.6875,57.3332 25.6875,57.0842 L25.6875,54.0862 C25.6875,53.6342 25.9655,53.1052 26.3065,52.9082 L27.6785,52.1172 C27.8385,52.0252 27.9955,52.0132 28.1215,52.0862 C28.2705,52.1722 28.3555,52.3632 28.3555,52.6132 L28.3555,55.6102 C28.3555,56.0622 28.0775,56.5912 27.7365,56.7882 L26.3645,57.5802 C26.2745,57.6322 26.1855,57.6582 26.1025,57.6582 Z" id="Fill-51" fill="#FEBE2E"></path>
            <path d="M1.6035,62.4092 C1.1815,62.1262 0.6215,61.4202 0.5945,61.3882 L0.7805,61.2742 C0.7865,61.2812 1.3805,62.0252 1.7755,62.2892 L1.6035,62.4092 Z" id="Fill-52" fill="#FEBD2D"></path>
            <path d="M17.5515,57.8752 C17.9795,57.3592 17.3775,56.6302 16.7905,56.9552 C16.2925,57.2322 15.7015,57.5472 15.0005,57.9022 C11.5175,59.6662 9.0095,58.4312 9.0095,58.4312 C9.0095,58.4312 6.1605,56.8632 4.1195,55.6142 C2.1475,54.4062 3.5295,51.4832 3.6235,51.2902 C2.9125,52.4422 2.3305,53.4782 1.8605,54.4112 C1.3735,56.6052 3.1605,57.8542 3.1605,57.8542 C3.1605,57.8542 6.3255,59.8682 8.3885,60.7412 C10.4505,61.6132 13.0255,61.3022 15.2955,59.9262 C16.1485,59.4092 16.9205,58.6382 17.5515,57.8752 Z" id="Fill-53" fill="#FEBD2D"></path>
            <path d="M17.2895,58.5492 C17.7175,58.0332 17.1145,57.3042 16.5285,57.6292 C16.0305,57.9062 15.4395,58.2212 14.7385,58.5762 C11.2555,60.3402 8.7475,59.1052 8.7475,59.1052 C8.7475,59.1052 5.8985,57.5372 3.8575,56.2882 C1.8855,55.0802 3.2675,52.1572 3.3615,51.9642 C2.6505,53.1162 2.0685,54.1522 1.5985,55.0852 C1.1115,57.2792 2.8985,58.5272 2.8985,58.5272 C2.8985,58.5272 6.0635,60.5422 8.1265,61.4142 C10.1885,62.2872 12.7635,61.9762 15.0335,60.6002 C15.8865,60.0832 16.6575,59.3112 17.2895,58.5492 Z" id="Fill-54" fill="#FFEFCD"></path>
            <path d="M3.1395,52.3062 C2.6925,53.0682 2.2975,53.7892 1.9595,54.4602 C1.5025,56.5322 3.2065,57.7512 3.2235,57.7632 C3.2515,57.7812 6.4005,59.7802 8.4315,60.6392 C10.4505,61.4922 12.9945,61.1912 15.2385,59.8322 C15.9705,59.3882 16.7205,58.7062 17.4665,57.8052 C17.6605,57.5702 17.5875,57.3162 17.4655,57.1692 C17.3445,57.0232 17.1095,56.9052 16.8445,57.0522 C16.3035,57.3532 15.6995,57.6712 15.0505,58.0002 C11.5585,59.7692 8.9865,58.5422 8.9605,58.5302 C8.9275,58.5122 6.0815,56.9442 4.0625,55.7072 C2.7395,54.8982 2.8625,53.3502 3.1395,52.3062 Z M10.8835,61.3382 C9.9915,61.3382 9.1305,61.1742 8.3455,60.8422 C6.2975,59.9762 3.1335,57.9672 3.1015,57.9472 C3.0795,57.9312 1.2565,56.6272 1.7525,54.3872 C2.2415,53.4092 2.8365,52.3562 3.5295,51.2322 L3.7225,51.3382 C3.6625,51.4612 2.2785,54.3572 4.1775,55.5202 C6.1925,56.7532 9.0345,58.3182 9.0625,58.3342 C9.0825,58.3442 11.5625,59.5202 14.9505,57.8032 C15.5975,57.4762 16.1985,57.1582 16.7375,56.8592 C17.0955,56.6612 17.4465,56.8002 17.6355,57.0282 C17.8255,57.2572 17.8985,57.6292 17.6365,57.9452 C16.8745,58.8662 16.1055,59.5642 15.3525,60.0202 C13.9175,60.8902 12.3585,61.3382 10.8835,61.3382 Z" id="Fill-55" fill="#171310"></path>
            <path d="M16.2265,58.7792 C16.0695,58.8032 15.9355,58.7802 15.8515,58.7012 C15.6835,58.5442 15.7085,58.2162 15.9015,57.8922 C15.9335,57.8872 15.9675,57.8782 15.9975,57.8782 C16.1055,57.8782 16.1995,57.9092 16.2685,57.9722 C16.4395,58.1332 16.4105,58.4642 16.2265,58.7792 Z M16.4185,57.8112 C16.2695,57.6722 16.0575,57.6322 15.8295,57.6752 L15.8155,57.6692 C15.5475,57.7242 15.2785,57.8852 15.0585,58.1212 C14.7555,58.4452 14.6185,58.8282 14.6595,59.1342 C14.6765,59.2852 14.7325,59.4162 14.8345,59.5102 C14.9445,59.6122 15.0895,59.6652 15.2555,59.6652 C15.3305,59.6652 15.4095,59.6542 15.4925,59.6332 C15.7395,59.5682 15.9895,59.4112 16.1945,59.1912 C16.6385,58.7142 16.7375,58.1082 16.4185,57.8112 Z" id="Fill-56" fill="#171310"></path>
            <path d="M13.8215,59.8272 C13.6645,59.8512 13.5315,59.8282 13.4465,59.7502 C13.2785,59.5922 13.3045,59.2652 13.4965,58.9402 C13.5285,58.9352 13.5625,58.9262 13.5925,58.9262 C13.7005,58.9262 13.7945,58.9572 13.8635,59.0212 C14.0345,59.1812 14.0055,59.5122 13.8215,59.8272 Z M14.0135,58.8592 C13.8645,58.7202 13.6525,58.6802 13.4255,58.7232 L13.4105,58.7182 C13.1425,58.7722 12.8735,58.9332 12.6535,59.1692 C12.3515,59.4942 12.2135,59.8762 12.2545,60.1822 C12.2715,60.3332 12.3285,60.4642 12.4295,60.5592 C12.5395,60.6612 12.6845,60.7132 12.8505,60.7132 C12.9255,60.7132 13.0045,60.7032 13.0875,60.6812 C13.3345,60.6162 13.5845,60.4592 13.7895,60.2392 C14.2335,59.7622 14.3325,59.1562 14.0135,58.8592 Z" id="Fill-57" fill="#171310"></path>
            <path d="M3.2215,54.6082 C3.1005,54.2712 3.0595,53.9122 3.0685,53.5592 C2.9665,53.7282 2.8385,53.8452 2.7095,53.8602 C2.6135,53.8712 2.5265,53.8192 2.4565,53.7242 C2.5565,53.4152 2.7515,53.1732 2.9475,53.1512 C3.0015,53.1442 3.0495,53.1612 3.0945,53.1862 C3.1035,53.1162 3.1145,53.0482 3.1255,52.9802 C3.0765,52.9662 3.0245,52.9582 2.9675,52.9642 C2.8155,52.9822 2.6695,53.0782 2.5455,53.2202 C2.4565,53.3802 2.3685,53.5392 2.2855,53.6932 C2.2515,53.7972 2.2245,53.9072 2.2115,54.0222 C2.1835,54.2762 2.2185,54.5102 2.3125,54.6802 C2.3435,54.7362 2.3795,54.7832 2.4205,54.8212 C2.5115,54.9062 2.6235,54.9432 2.7475,54.9282 C2.8635,54.9152 2.9775,54.8542 3.0825,54.7602 C3.1315,54.7172 3.1775,54.6642 3.2215,54.6082 Z" id="Fill-58" fill="#171310"></path>
        </g>
    </g>
</svg>