<?xml version="1.0" encoding="UTF-8"?>
<svg width="76px" height="61px" viewBox="0 0 76 61" version="1.1" xmlns="http://www.w3.org/2000/svg" xmlns:xlink="http://www.w3.org/1999/xlink">
    <!-- Generator: Sketch 57.1 (83088) - https://sketch.com -->
    <title>TrainWagon</title>
    <desc>Created with Sketch.</desc>
    <g id="TrainWagon" stroke="none" stroke-width="1" fill="none" fill-rule="evenodd">
        <g id="Group-51">
            <polygon id="Fill-1" fill="#FEBD2D" points="34.9 47.5156 30.567 45.2786 38.406 44.0936"></polygon>
            <path d="M30.938,45.3396 L34.879,47.3746 L38.068,44.2616 L30.938,45.3396 Z M34.922,47.6566 L30.197,45.2176 L38.743,43.9256 L34.922,47.6566 Z" id="Fill-2" fill="#171310"></path>
            <polygon id="Fill-3" fill="#FEBD2D" points="68.408 28.0656 64.075 25.8276 71.913 24.6436"></polygon>
            <path d="M64.445,25.8886 L68.387,27.9246 L71.576,24.8116 L64.445,25.8886 Z M68.429,28.2066 L63.705,25.7666 L72.25,24.4756 L68.429,28.2066 Z" id="Fill-4" fill="#171310"></path>
            <path d="M71.704,4.3426 L65.132,0.5486 C64.134,-0.0274 63.228,-0.0034 62.573,0.4996 L5.244,33.7946 L14.038,52.9566 L16.573,58.2096 L24.417,53.6506 L25.049,51.8056 C25.268,51.1656 25.721,50.5786 26.216,50.2926 L33.205,46.2576 C33.701,45.9716 34.153,46.0356 34.373,46.4226 L34.987,47.5086 L57.882,34.2046 L58.523,32.3296 C58.742,31.6896 59.195,31.1036 59.69,30.8166 L66.679,26.7816 C67.175,26.4956 67.628,26.5596 67.847,26.9466 L68.471,28.0506 L73.936,24.8746 C74.019,24.8356 74.099,24.7876 74.176,24.7356 C74.874,24.2596 75.313,23.2726 75.313,21.8996 L75.313,11.2396 C75.313,8.5926 73.689,5.4886 71.704,4.3426 Z" id="Fill-5" fill="#FEBD2D"></path>
            <path d="M5.393,33.8416 L14.143,52.9086 L16.622,58.0466 L24.322,53.5726 L24.94,51.7676 C25.169,51.0976 25.636,50.4946 26.159,50.1926 L33.147,46.1576 C33.453,45.9806 33.749,45.9226 34.007,45.9926 C34.205,46.0466 34.366,46.1756 34.473,46.3656 L35.03,47.3496 L57.787,34.1256 L58.414,32.2926 C58.643,31.6226 59.11,31.0186 59.633,30.7166 L66.621,26.6826 C66.927,26.5046 67.223,26.4476 67.481,26.5176 C67.679,26.5716 67.84,26.7006 67.947,26.8896 L68.513,27.8916 L73.878,24.7746 C73.96,24.7356 74.035,24.6916 74.111,24.6396 C74.802,24.1686 75.198,23.1696 75.198,21.8996 L75.198,11.2396 C75.198,8.6226 73.604,5.5736 71.646,4.4426 L65.074,0.6486 C64.153,0.1166 63.289,0.0966 62.643,0.5916 L5.393,33.8416 Z M16.523,58.3716 L13.934,53.0076 L5.095,33.7476 L5.186,33.6946 L62.515,0.3996 C63.227,-0.1474 64.181,-0.1344 65.19,0.4486 L71.762,4.2426 C73.784,5.4096 75.429,8.5486 75.429,11.2396 L75.429,21.8996 C75.429,23.2676 75.007,24.3086 74.241,24.8306 C74.156,24.8896 74.07,24.9386 73.986,24.9796 L68.428,28.2096 L67.746,27.0036 C67.669,26.8666 67.559,26.7786 67.421,26.7406 C67.227,26.6876 66.986,26.7386 66.737,26.8826 L59.748,30.9176 C59.279,31.1886 58.841,31.7576 58.632,32.3676 L57.977,34.2826 L57.94,34.3036 L34.944,47.6676 L34.272,46.4796 C34.195,46.3426 34.085,46.2536 33.946,46.2156 C33.754,46.1636 33.512,46.2146 33.263,46.3576 L26.274,50.3926 C25.805,50.6636 25.367,51.2326 25.158,51.8426 L24.513,53.7296 L24.476,53.7506 L16.523,58.3716 Z" id="Fill-6" fill="#171310"></path>
            <path d="M75.291,10.7006 L75.155,9.2306 L74.377,7.4776 L16.687,40.6726 L17.428,42.1266 L17.634,43.4236 L17.686,43.7616 L10.943,46.2126 L14.038,52.9566 L16.573,58.2096 L24.417,53.6506 L25.049,51.8056 C25.268,51.1656 25.721,50.5786 26.216,50.2926 L33.205,46.2576 C33.701,45.9716 34.153,46.0356 34.373,46.4226 L34.987,47.5086 L57.882,34.2046 L58.523,32.3296 C58.742,31.6896 59.195,31.1036 59.69,30.8166 L66.679,26.7816 C67.175,26.4956 67.628,26.5596 67.847,26.9466 L68.471,28.0506 L73.936,24.8746 C74.019,24.8356 74.099,24.7876 74.176,24.7356 C74.874,24.2596 75.313,23.2726 75.313,21.8996 L75.313,11.2396 C75.313,11.0616 75.305,10.8816 75.291,10.7006 Z" id="Fill-7" fill="#171310"></path>
            <path d="M29.334,50.0416 C29.334,51.1276 28.571,52.4476 27.631,52.9906 C26.691,53.5336 25.929,53.0936 25.929,52.0076 C25.929,50.9216 26.691,49.6016 27.631,49.0586 C28.571,48.5166 29.334,48.9566 29.334,50.0416 Z" id="Fill-8" fill="#171310"></path>
            <path d="M28.167,50.1976 C28.281,50.2636 28.343,50.4146 28.343,50.6226 C28.343,51.1086 27.988,51.7236 27.567,51.9666 C27.387,52.0706 27.226,52.0906 27.111,52.0256 C26.998,51.9606 26.935,51.8096 26.935,51.6016 C26.935,51.2956 27.078,50.9396 27.288,50.6556 L28.089,50.1786 C28.116,50.1836 28.144,50.1846 28.167,50.1976 Z M29.03,49.2806 L26.169,50.9886 L26.169,51.3226 L26.788,50.9536 C26.699,51.1686 26.646,51.3916 26.646,51.6016 C26.646,51.9176 26.76,52.1566 26.967,52.2766 C27.055,52.3276 27.154,52.3526 27.26,52.3526 C27.401,52.3526 27.555,52.3066 27.712,52.2166 C28.228,51.9186 28.632,51.2186 28.632,50.6226 C28.632,50.3466 28.541,50.1346 28.381,50.0046 L29.03,49.6176 L29.03,49.2806 Z" id="Fill-9" fill="#FEBE2E"></path>
            <path d="M33.053,47.8436 C33.053,48.9296 32.291,50.2496 31.351,50.7926 C30.41,51.3356 29.648,50.8946 29.648,49.8096 C29.648,48.7236 30.41,47.4036 31.351,46.8606 C32.291,46.3176 33.053,46.7576 33.053,47.8436 Z" id="Fill-10" fill="#171310"></path>
            <path d="M31.886,47.9996 C32,48.0656 32.063,48.2166 32.063,48.4236 C32.063,48.9106 31.707,49.5256 31.287,49.7686 C31.106,49.8726 30.945,49.8926 30.831,49.8276 C30.717,49.7626 30.654,49.6116 30.654,49.4036 C30.654,49.0976 30.797,48.7416 31.007,48.4576 L31.808,47.9806 C31.835,47.9856 31.864,47.9866 31.886,47.9996 Z M32.75,47.0816 L29.889,48.7896 L29.889,49.1246 L30.507,48.7556 C30.419,48.9696 30.366,49.1926 30.366,49.4036 C30.366,49.7186 30.48,49.9586 30.686,50.0776 C30.775,50.1286 30.873,50.1546 30.979,50.1546 C31.121,50.1546 31.274,50.1086 31.431,50.0186 C31.947,49.7206 32.351,49.0206 32.351,48.4236 C32.351,48.1486 32.26,47.9366 32.1,47.8066 L32.75,47.4196 L32.75,47.0816 Z" id="Fill-11" fill="#FEBE2E"></path>
            <path d="M62.564,30.6266 C62.564,31.7126 61.801,33.0326 60.861,33.5756 C59.921,34.1176 59.159,33.6776 59.159,32.5926 C59.159,31.5066 59.921,30.1866 60.861,29.6436 C61.801,29.1006 62.564,29.5406 62.564,30.6266 Z" id="Fill-12" fill="#171310"></path>
            <path d="M61.397,30.7826 C61.51,30.8486 61.573,30.9996 61.573,31.2066 C61.573,31.6936 61.218,32.3086 60.797,32.5516 C60.616,32.6556 60.456,32.6756 60.341,32.6106 C60.228,32.5446 60.165,32.3946 60.165,32.1866 C60.165,31.8806 60.308,31.5246 60.517,31.2406 L61.319,30.7636 C61.345,30.7686 61.374,30.7696 61.397,30.7826 Z M62.26,29.8646 L59.399,31.5726 L59.399,31.9066 L60.017,31.5386 C59.929,31.7526 59.876,31.9756 59.876,32.1866 C59.876,32.5016 59.99,32.7416 60.197,32.8606 C60.285,32.9116 60.384,32.9376 60.489,32.9376 C60.631,32.9376 60.785,32.8916 60.941,32.8016 C61.457,32.5036 61.862,31.8036 61.862,31.2066 C61.862,30.9316 61.77,30.7196 61.611,30.5896 L62.26,30.2026 L62.26,29.8646 Z" id="Fill-13" fill="#FEBE2E"></path>
            <path d="M66.283,28.4286 C66.283,29.5136 65.52,30.8346 64.58,31.3766 C63.64,31.9196 62.878,31.4796 62.878,30.3936 C62.878,29.3086 63.64,27.9886 64.58,27.4456 C65.52,26.9026 66.283,27.3426 66.283,28.4286 Z" id="Fill-14" fill="#171310"></path>
            <path d="M65.116,28.5846 C65.23,28.6506 65.292,28.8006 65.292,29.0086 C65.292,29.4946 64.937,30.1106 64.516,30.3526 C64.336,30.4566 64.175,30.4776 64.06,30.4126 C63.947,30.3466 63.884,30.1966 63.884,29.9886 C63.884,29.6826 64.027,29.3266 64.237,29.0426 L65.038,28.5646 C65.065,28.5706 65.093,28.5716 65.116,28.5846 Z M65.979,27.6666 L63.118,29.3746 L63.118,29.7086 L63.737,29.3406 C63.648,29.5546 63.595,29.7776 63.595,29.9886 C63.595,30.3036 63.709,30.5426 63.916,30.6626 C64.004,30.7136 64.103,30.7386 64.209,30.7386 C64.35,30.7386 64.504,30.6936 64.66,30.6036 C65.177,30.3056 65.581,29.6046 65.581,29.0086 C65.581,28.7336 65.49,28.5216 65.33,28.3916 L65.979,28.0036 L65.979,27.6666 Z" id="Fill-15" fill="#FEBE2E"></path>
            <path d="M14.14,58.0776 L7.568,54.2836 C5.583,53.1366 3.959,50.0336 3.959,47.3866 L3.959,36.7266 C3.959,34.0796 5.583,32.8516 7.568,33.9976 L14.14,37.7916 C16.125,38.9386 17.75,42.0416 17.75,44.6886 L17.75,55.3486 C17.75,57.9956 16.125,59.2236 14.14,58.0776 Z" id="Fill-16" fill="#FEBD2D"></path>
            <path d="M6.142,33.6856 C5.827,33.6856 5.532,33.7606 5.269,33.9126 C4.51,34.3506 4.074,35.3766 4.074,36.7266 L4.074,47.3866 C4.074,50.0036 5.668,53.0526 7.626,54.1836 L14.198,57.9766 C15.025,58.4546 15.821,58.5206 16.44,58.1626 C17.199,57.7246 17.634,56.6986 17.634,55.3486 L17.634,44.6886 C17.634,42.0716 16.041,39.0226 14.083,37.8916 L7.511,34.0976 C7.035,33.8236 6.57,33.6856 6.142,33.6856 Z M15.567,58.6216 C15.099,58.6216 14.594,58.4726 14.083,58.1776 L7.511,54.3836 C5.488,53.2156 3.843,50.0776 3.843,47.3866 L3.843,36.7266 C3.843,35.2916 4.321,34.1926 5.153,33.7126 C5.847,33.3126 6.725,33.3776 7.626,33.8976 L14.198,37.6916 C16.22,38.8596 17.865,41.9976 17.865,44.6886 L17.865,55.3486 C17.865,56.7836 17.388,57.8826 16.555,58.3626 C16.256,58.5356 15.922,58.6216 15.567,58.6216 Z" id="Fill-17" fill="#171310"></path>
            <polygon id="Fill-18" fill="#FFEFCD" points="67.466 3.9026 72.075 6.5686 16.942 38.1006 12.333 35.4346"></polygon>
            <polygon id="Fill-19" fill="#FFEFCD" points="64.011 1.8976 66.005 3.0256 10.872 34.5576 8.878 33.4286"></polygon>
            <path d="M24.316,40.6756 C24.182,40.6756 24.033,40.7206 23.88,40.8086 L22.123,41.8226 C21.479,42.1946 20.956,43.1986 20.956,44.0616 L20.956,50.4516 C20.956,50.8876 21.092,51.2156 21.329,51.3526 C21.52,51.4626 21.769,51.4396 22.031,51.2886 L23.788,50.2736 C24.432,49.9026 24.955,48.8986 24.955,48.0356 L24.955,41.6456 C24.955,41.2096 24.819,40.8816 24.582,40.7446 C24.503,40.6986 24.413,40.6756 24.316,40.6756 Z M21.595,51.6066 C21.466,51.6066 21.345,51.5756 21.237,51.5126 C20.941,51.3416 20.771,50.9556 20.771,50.4516 L20.771,44.0616 C20.771,43.1396 21.336,42.0636 22.031,41.6626 L23.788,40.6476 C24.109,40.4626 24.424,40.4396 24.675,40.5846 C24.97,40.7556 25.14,41.1416 25.14,41.6456 L25.14,48.0356 C25.14,48.9566 24.575,50.0326 23.88,50.4336 L22.123,51.4486 C21.941,51.5536 21.762,51.6066 21.595,51.6066 Z" id="Fill-20" fill="#FEBD2D"></path>
            <path d="M21.465,48.5896 L21.465,49.3326 L22.06,48.9896 C22.203,48.9066 22.324,48.6726 22.324,48.4786 L22.324,48.3846 C22.324,48.2936 22.297,48.2236 22.251,48.1976 C22.207,48.1716 22.154,48.1906 22.117,48.2126 L21.465,48.5896 Z M21.349,49.5326 L21.349,48.5226 L22.06,48.1126 C22.149,48.0606 22.239,48.0556 22.309,48.0966 C22.392,48.1446 22.44,48.2496 22.44,48.3846 L22.44,48.4786 C22.44,48.7166 22.298,48.9846 22.117,49.0896 L21.349,49.5326 Z" id="Fill-21" fill="#FEBD2D"></path>
            <path d="M21.987,44.1066 C21.987,43.4626 22.377,42.7126 22.857,42.4346 L23.146,42.2686 C23.188,42.2436 23.23,42.2286 23.271,42.2136 C23.33,42.3376 23.367,42.4866 23.367,42.6626 L23.367,44.4266 C23.367,45.0826 22.969,45.8466 22.479,46.1286 L22.191,46.2956 C22.158,46.3146 22.122,46.3246 22.088,46.3386 C22.025,46.2176 21.987,46.0616 21.987,45.8716 L21.987,44.1066 Z M23.389,42.1826 C23.414,42.1796 23.44,42.1716 23.464,42.1716 C23.533,42.1716 23.597,42.1876 23.653,42.2206 C23.826,42.3196 23.924,42.5606 23.924,42.8816 L23.924,44.6466 C23.924,45.2916 23.534,46.0416 23.054,46.3186 L22.765,46.4856 C22.575,46.5956 22.394,46.6126 22.257,46.5336 C22.218,46.5106 22.183,46.4786 22.152,46.4416 C22.184,46.4276 22.218,46.4136 22.249,46.3956 L22.537,46.2296 C23.059,45.9276 23.483,45.1196 23.483,44.4266 L23.483,42.6626 C23.483,42.4806 23.448,42.3196 23.389,42.1826 Z M23.746,42.0596 C23.55,41.9466 23.304,41.9646 23.054,42.1086 L22.765,42.2746 C22.234,42.5816 21.802,43.4036 21.802,44.1066 L21.802,45.8716 C21.802,46.2606 21.934,46.5606 22.165,46.6936 C22.251,46.7436 22.346,46.7676 22.446,46.7676 C22.577,46.7676 22.716,46.7266 22.857,46.6456 L23.146,46.4796 C23.677,46.1716 24.109,45.3506 24.109,44.6466 L24.109,42.8816 C24.109,42.4926 23.977,42.1936 23.746,42.0596 Z" id="Fill-22" fill="#FEBD2D"></path>
            <path d="M71.555,13.3786 C71.421,13.3786 71.272,13.4236 71.119,13.5116 L69.362,14.5266 C68.718,14.8976 68.195,15.9016 68.195,16.7646 L68.195,23.1546 C68.195,23.5906 68.331,23.9186 68.568,24.0556 C68.759,24.1656 69.008,24.1426 69.27,23.9916 L71.027,22.9766 C71.671,22.6056 72.194,21.6016 72.194,20.7386 L72.194,14.3486 C72.194,13.9126 72.058,13.5846 71.821,13.4476 C71.742,13.4016 71.652,13.3786 71.555,13.3786 Z M68.834,24.3096 C68.705,24.3096 68.584,24.2786 68.476,24.2156 C68.18,24.0446 68.01,23.6586 68.01,23.1546 L68.01,16.7646 C68.01,15.8426 68.575,14.7666 69.27,14.3656 L71.027,13.3516 C71.348,13.1656 71.663,13.1426 71.914,13.2876 C72.209,13.4586 72.379,13.8446 72.379,14.3486 L72.379,20.7386 C72.379,21.6606 71.814,22.7356 71.119,23.1376 L69.362,24.1516 C69.18,24.2566 69.001,24.3096 68.834,24.3096 Z" id="Fill-23" fill="#FEBD2D"></path>
            <path d="M68.704,21.2926 L68.704,22.0356 L69.299,21.6926 C69.442,21.6096 69.563,21.3756 69.563,21.1816 L69.563,21.0876 C69.563,20.9966 69.536,20.9266 69.491,20.9006 C69.446,20.8746 69.393,20.8936 69.356,20.9156 L68.704,21.2926 Z M68.588,22.2356 L68.588,21.2256 L69.299,20.8156 C69.388,20.7646 69.478,20.7586 69.548,20.8006 C69.631,20.8476 69.679,20.9526 69.679,21.0876 L69.679,21.1816 C69.679,21.4196 69.537,21.6886 69.356,21.7926 L68.588,22.2356 Z" id="Fill-24" fill="#FEBD2D"></path>
            <path d="M69.226,16.8096 C69.226,16.1656 69.616,15.4156 70.096,15.1386 L70.385,14.9716 C70.427,14.9476 70.469,14.9316 70.51,14.9166 C70.569,15.0416 70.607,15.1896 70.607,15.3656 L70.607,17.1306 C70.607,17.7856 70.208,18.5496 69.719,18.8326 L69.43,18.9986 C69.397,19.0176 69.361,19.0276 69.327,19.0416 C69.264,18.9206 69.226,18.7646 69.226,18.5756 L69.226,16.8096 Z M70.628,14.8866 C70.653,14.8826 70.679,14.8746 70.703,14.8746 C70.772,14.8746 70.836,14.8906 70.892,14.9236 C71.065,15.0226 71.163,15.2636 71.163,15.5846 L71.163,17.3496 C71.163,17.9946 70.773,18.7446 70.293,19.0216 L70.004,19.1886 C69.814,19.2986 69.633,19.3156 69.496,19.2366 C69.457,19.2136 69.422,19.1816 69.391,19.1446 C69.423,19.1306 69.457,19.1176 69.488,19.0986 L69.776,18.9326 C70.298,18.6306 70.722,17.8226 70.722,17.1306 L70.722,15.3656 C70.722,15.1836 70.688,15.0226 70.628,14.8866 Z M70.985,14.7626 C70.789,14.6496 70.543,14.6676 70.293,14.8116 L70.004,14.9776 C69.473,15.2846 69.041,16.1066 69.041,16.8096 L69.041,18.5756 C69.041,18.9646 69.173,19.2636 69.404,19.3966 C69.49,19.4466 69.585,19.4706 69.686,19.4706 C69.816,19.4706 69.956,19.4296 70.096,19.3486 L70.385,19.1826 C70.916,18.8756 71.348,18.0536 71.348,17.3496 L71.348,15.5846 C71.348,15.1956 71.216,14.8966 70.985,14.7626 Z" id="Fill-25" fill="#FEBD2D"></path>
            <path d="M27.962,40.6656 C27.962,40.0206 28.353,39.2706 28.833,38.9936 L29.121,38.8266 C29.164,38.8026 29.205,38.7866 29.246,38.7716 C29.305,38.8956 29.343,39.0446 29.343,39.2206 L29.343,40.9856 C29.343,41.6416 28.945,42.4046 28.455,42.6876 L28.167,42.8536 C28.134,42.8726 28.098,42.8826 28.063,42.8966 C28,42.7756 27.962,42.6196 27.962,42.4306 L27.962,40.6656 Z M29.364,38.7416 C29.389,38.7376 29.416,38.7296 29.439,38.7296 C29.509,38.7296 29.573,38.7456 29.629,38.7786 C29.801,38.8776 29.9,39.1196 29.9,39.4406 L29.9,41.2056 C29.9,41.8496 29.509,42.5996 29.029,42.8766 L28.741,43.0436 C28.55,43.1536 28.37,43.1716 28.233,43.0916 C28.193,43.0686 28.159,43.0366 28.127,42.9996 C28.16,42.9856 28.193,42.9726 28.225,42.9546 L28.513,42.7876 C29.034,42.4866 29.458,41.6776 29.458,40.9856 L29.458,39.2206 C29.458,39.0376 29.424,38.8776 29.364,38.7416 Z M29.722,38.6186 C29.525,38.5046 29.279,38.5226 29.029,38.6666 L28.741,38.8336 C28.21,39.1396 27.777,39.9616 27.777,40.6656 L27.777,42.4306 C27.777,42.8196 27.909,43.1186 28.14,43.2516 C28.226,43.3016 28.322,43.3266 28.422,43.3266 C28.553,43.3266 28.692,43.2856 28.834,43.2036 L29.121,43.0376 C29.653,42.7306 30.085,41.9086 30.085,41.2056 L30.085,39.4406 C30.085,39.0506 29.952,38.7516 29.722,38.6186 Z" id="Fill-26" fill="#FEBD2D"></path>
            <path d="M31.128,38.7776 C31.128,38.1326 31.518,37.3826 31.999,37.1056 L32.287,36.9386 C32.329,36.9146 32.371,36.8996 32.412,36.8836 C32.471,37.0076 32.508,37.1566 32.508,37.3326 L32.508,39.0976 C32.508,39.7536 32.11,40.5166 31.62,40.7996 L31.332,40.9666 C31.3,40.9846 31.263,40.9956 31.229,41.0096 C31.166,40.8876 31.128,40.7316 31.128,40.5426 L31.128,38.7776 Z M32.53,36.8536 C32.555,36.8496 32.581,36.8416 32.605,36.8416 C32.674,36.8416 32.738,36.8586 32.795,36.8906 C32.967,36.9906 33.065,37.2316 33.065,37.5526 L33.065,39.3176 C33.065,39.9626 32.675,40.7126 32.195,40.9896 L31.907,41.1556 C31.716,41.2656 31.536,41.2836 31.399,41.2036 C31.359,41.1816 31.324,41.1496 31.293,41.1116 C31.326,41.0976 31.358,41.0846 31.39,41.0666 L31.678,40.8996 C32.2,40.5986 32.624,39.7906 32.624,39.0976 L32.624,37.3326 C32.624,37.1506 32.589,36.9896 32.53,36.8536 Z M32.887,36.7306 C32.691,36.6166 32.444,36.6346 32.195,36.7786 L31.907,36.9456 C31.375,37.2526 30.943,38.0746 30.943,38.7776 L30.943,40.5426 C30.943,40.9316 31.075,41.2306 31.306,41.3646 C31.392,41.4136 31.487,41.4386 31.588,41.4386 C31.718,41.4386 31.858,41.3976 31.999,41.3156 L32.287,41.1496 C32.818,40.8426 33.25,40.0206 33.25,39.3176 L33.25,37.5526 C33.25,37.1636 33.118,36.8636 32.887,36.7306 Z" id="Fill-27" fill="#FEBD2D"></path>
            <path d="M34.294,36.8896 C34.294,36.2456 34.684,35.4946 35.165,35.2176 L35.453,35.0516 C35.495,35.0266 35.536,35.0116 35.577,34.9956 C35.636,35.1206 35.674,35.2686 35.674,35.4446 L35.674,37.2096 C35.674,37.8656 35.276,38.6286 34.786,38.9116 L34.498,39.0786 C34.465,39.0976 34.429,39.1076 34.395,39.1216 C34.331,39.0006 34.294,38.8436 34.294,38.6546 L34.294,36.8896 Z M35.696,34.9656 C35.721,34.9626 35.747,34.9536 35.771,34.9536 C35.84,34.9536 35.904,34.9706 35.96,35.0036 C36.132,35.1026 36.231,35.3436 36.231,35.6646 L36.231,37.4296 C36.231,38.0746 35.84,38.8246 35.36,39.1016 L35.072,39.2676 C34.882,39.3776 34.701,39.3956 34.564,39.3166 C34.525,39.2936 34.49,39.2616 34.459,39.2246 C34.491,39.2106 34.524,39.1966 34.556,39.1786 L34.844,39.0116 C35.365,38.7106 35.79,37.9026 35.79,37.2096 L35.79,35.4446 C35.79,35.2626 35.755,35.1016 35.696,34.9656 Z M36.053,34.8426 C35.856,34.7286 35.61,34.7466 35.36,34.8916 L35.072,35.0576 C34.541,35.3646 34.108,36.1866 34.108,36.8896 L34.108,38.6546 C34.108,39.0436 34.241,39.3436 34.472,39.4766 C34.558,39.5256 34.653,39.5506 34.754,39.5506 C34.884,39.5506 35.024,39.5096 35.165,39.4286 L35.453,39.2616 C35.984,38.9556 36.416,38.1336 36.416,37.4296 L36.416,35.6646 C36.416,35.2756 36.284,34.9756 36.053,34.8426 Z" id="Fill-28" fill="#FEBD2D"></path>
            <path d="M37.465,35.0186 C37.465,34.3746 37.856,33.6246 38.336,33.3466 L38.624,33.1806 C38.667,33.1556 38.708,33.1406 38.749,33.1256 C38.808,33.2496 38.846,33.3976 38.846,33.5736 L38.846,35.3386 C38.846,35.9946 38.448,36.7586 37.958,37.0406 L37.67,37.2076 C37.637,37.2266 37.601,37.2366 37.567,37.2506 C37.503,37.1296 37.465,36.9736 37.465,36.7836 L37.465,35.0186 Z M38.868,33.0946 C38.893,33.0916 38.919,33.0836 38.943,33.0836 C39.012,33.0836 39.076,33.0996 39.132,33.1326 C39.304,33.2316 39.403,33.4726 39.403,33.7936 L39.403,35.5586 C39.403,36.2036 39.012,36.9536 38.532,37.2306 L38.244,37.3976 C38.053,37.5076 37.873,37.5246 37.736,37.4456 C37.697,37.4226 37.662,37.3906 37.63,37.3536 C37.663,37.3396 37.696,37.3256 37.728,37.3076 L38.016,37.1416 C38.537,36.8396 38.962,36.0316 38.962,35.3386 L38.962,33.5736 C38.962,33.3916 38.927,33.2306 38.868,33.0946 Z M39.225,32.9716 C39.028,32.8586 38.782,32.8756 38.532,33.0206 L38.244,33.1866 C37.713,33.4936 37.28,34.3156 37.28,35.0186 L37.28,36.7836 C37.28,37.1726 37.413,37.4726 37.644,37.6056 C37.729,37.6556 37.825,37.6796 37.925,37.6796 C38.056,37.6796 38.195,37.6386 38.337,37.5576 L38.624,37.3906 C39.156,37.0846 39.588,36.2626 39.588,35.5586 L39.588,33.7936 C39.588,33.4046 39.455,33.1056 39.225,32.9716 Z" id="Fill-29" fill="#FEBD2D"></path>
            <path d="M40.628,33.1886 C40.628,32.5436 41.019,31.7936 41.499,31.5166 L41.787,31.3496 C41.83,31.3256 41.871,31.3096 41.912,31.2946 C41.97,31.4186 42.009,31.5666 42.009,31.7436 L42.009,33.5086 C42.009,34.1646 41.611,34.9276 41.121,35.2106 L40.833,35.3766 C40.8,35.3956 40.764,35.4056 40.729,35.4196 C40.666,35.2986 40.628,35.1426 40.628,34.9536 L40.628,33.1886 Z M42.03,31.2646 C42.055,31.2606 42.081,31.2526 42.105,31.2526 C42.173,31.2526 42.238,31.2686 42.295,31.3016 C42.467,31.4006 42.564,31.6416 42.564,31.9626 L42.564,33.7276 C42.564,34.3726 42.175,35.1226 41.694,35.3996 L41.407,35.5666 C41.216,35.6766 41.036,35.6936 40.899,35.6146 C40.859,35.5916 40.825,35.5596 40.793,35.5226 C40.826,35.5086 40.859,35.4956 40.89,35.4776 L41.178,35.3106 C41.7,35.0096 42.124,34.2006 42.124,33.5086 L42.124,31.7436 C42.124,31.5606 42.09,31.3996 42.03,31.2646 Z M42.387,31.1416 C42.191,31.0276 41.944,31.0456 41.694,31.1896 L41.407,31.3556 C40.875,31.6626 40.443,32.4846 40.443,33.1886 L40.443,34.9536 C40.443,35.3416 40.575,35.6416 40.806,35.7746 C40.892,35.8246 40.987,35.8486 41.088,35.8486 C41.219,35.8486 41.358,35.8076 41.499,35.7266 L41.787,35.5606 C42.318,35.2536 42.749,34.4316 42.749,33.7276 L42.749,31.9626 C42.749,31.5736 42.618,31.2746 42.387,31.1416 Z" id="Fill-30" fill="#FEBD2D"></path>
            <path d="M43.793,31.3796 C43.793,30.7346 44.184,29.9846 44.665,29.7076 L44.952,29.5416 C44.995,29.5166 45.035,29.5016 45.077,29.4856 C45.137,29.6106 45.173,29.7586 45.173,29.9346 L45.173,31.6996 C45.173,32.3556 44.775,33.1186 44.285,33.4016 L43.998,33.5686 C43.965,33.5876 43.929,33.5976 43.895,33.6116 C43.832,33.4906 43.793,33.3336 43.793,33.1446 L43.793,31.3796 Z M45.196,29.4556 C45.22,29.4516 45.246,29.4436 45.271,29.4436 C45.34,29.4436 45.404,29.4606 45.46,29.4926 C45.633,29.5926 45.731,29.8336 45.731,30.1546 L45.731,31.9196 C45.731,32.5636 45.34,33.3146 44.861,33.5916 L44.572,33.7576 C44.382,33.8676 44.202,33.8856 44.064,33.8056 C44.025,33.7836 43.99,33.7516 43.959,33.7146 C43.991,33.6996 44.024,33.6866 44.056,33.6686 L44.344,33.5016 C44.866,33.2006 45.29,32.3926 45.29,31.6996 L45.29,29.9346 C45.29,29.7526 45.254,29.5916 45.196,29.4556 Z M45.553,29.3326 C45.356,29.2186 45.11,29.2366 44.861,29.3806 L44.572,29.5476 C44.041,29.8546 43.608,30.6766 43.608,31.3796 L43.608,33.1446 C43.608,33.5336 43.741,33.8326 43.972,33.9666 C44.058,34.0156 44.153,34.0406 44.254,34.0406 C44.384,34.0406 44.524,33.9996 44.665,33.9176 L44.952,33.7516 C45.483,33.4446 45.916,32.6226 45.916,31.9196 L45.916,30.1546 C45.916,29.7656 45.784,29.4656 45.553,29.3326 Z" id="Fill-31" fill="#FEBD2D"></path>
            <path d="M46.959,29.4916 C46.959,28.8476 47.35,28.0976 47.83,27.8196 L48.118,27.6536 C48.16,27.6286 48.202,27.6136 48.243,27.5976 C48.301,27.7226 48.34,27.8706 48.34,28.0466 L48.34,29.8116 C48.34,30.4676 47.942,31.2316 47.452,31.5136 L47.163,31.6806 C47.131,31.6996 47.095,31.7096 47.061,31.7236 C46.996,31.6026 46.959,31.4456 46.959,31.2566 L46.959,29.4916 Z M48.361,27.5676 C48.387,27.5636 48.413,27.5556 48.436,27.5556 C48.506,27.5556 48.569,27.5726 48.626,27.6046 C48.798,27.7046 48.897,27.9456 48.897,28.2666 L48.897,30.0316 C48.897,30.6766 48.506,31.4266 48.025,31.7036 L47.738,31.8696 C47.547,31.9796 47.366,31.9976 47.23,31.9186 C47.191,31.8956 47.155,31.8636 47.124,31.8266 C47.157,31.8126 47.189,31.7986 47.222,31.7806 L47.509,31.6136 C48.03,31.3126 48.456,30.5046 48.456,29.8116 L48.456,28.0466 C48.456,27.8646 48.421,27.7036 48.361,27.5676 Z M48.719,27.4446 C48.522,27.3306 48.275,27.3486 48.025,27.4926 L47.738,27.6596 C47.207,27.9666 46.774,28.7886 46.774,29.4916 L46.774,31.2566 C46.774,31.6456 46.907,31.9456 47.137,32.0786 C47.223,32.1286 47.319,32.1526 47.418,32.1526 C47.55,32.1526 47.689,32.1116 47.831,32.0306 L48.118,31.8636 C48.65,31.5576 49.082,30.7356 49.082,30.0316 L49.082,28.2666 C49.082,27.8776 48.95,27.5786 48.719,27.4446 Z" id="Fill-32" fill="#FEBD2D"></path>
            <path d="M50.131,27.6356 C50.131,26.9916 50.522,26.2406 51.002,25.9636 L51.29,25.7976 C51.332,25.7726 51.374,25.7576 51.415,25.7416 C51.473,25.8666 51.512,26.0146 51.512,26.1906 L51.512,27.9556 C51.512,28.6116 51.114,29.3746 50.624,29.6576 L50.335,29.8246 C50.303,29.8436 50.267,29.8536 50.232,29.8676 C50.168,29.7466 50.131,29.5896 50.131,29.4006 L50.131,27.6356 Z M51.533,25.7116 C51.559,25.7076 51.585,25.6996 51.608,25.6996 C51.678,25.6996 51.741,25.7166 51.798,25.7486 C51.97,25.8486 52.069,26.0896 52.069,26.4106 L52.069,28.1756 C52.069,28.8206 51.678,29.5706 51.197,29.8476 L50.91,30.0136 C50.719,30.1236 50.538,30.1416 50.402,30.0626 C50.361,30.0396 50.327,30.0076 50.296,29.9696 C50.329,29.9556 50.361,29.9426 50.394,29.9246 L50.681,29.7576 C51.202,29.4566 51.627,28.6486 51.627,27.9556 L51.627,26.1906 C51.627,26.0086 51.593,25.8476 51.533,25.7116 Z M51.891,25.5886 C51.694,25.4746 51.447,25.4926 51.197,25.6366 L50.91,25.8036 C50.379,26.1106 49.946,26.9326 49.946,27.6356 L49.946,29.4006 C49.946,29.7896 50.077,30.0886 50.309,30.2226 C50.395,30.2716 50.491,30.2966 50.59,30.2966 C50.722,30.2966 50.861,30.2556 51.003,30.1746 L51.29,30.0076 C51.822,29.7006 52.254,28.8786 52.254,28.1756 L52.254,26.4106 C52.254,26.0216 52.121,25.7216 51.891,25.5886 Z" id="Fill-33" fill="#FEBD2D"></path>
            <path d="M53.297,25.8136 C53.297,25.1686 53.687,24.4186 54.168,24.1416 L54.456,23.9746 C54.498,23.9506 54.54,23.9346 54.581,23.9196 C54.64,24.0436 54.678,24.1916 54.678,24.3686 L54.678,26.1336 C54.678,26.7886 54.279,27.5526 53.789,27.8356 L53.501,28.0016 C53.469,28.0206 53.431,28.0306 53.397,28.0446 C53.335,27.9236 53.297,27.7676 53.297,27.5786 L53.297,25.8136 Z M54.699,23.8896 C54.724,23.8856 54.75,23.8776 54.774,23.8776 C54.843,23.8776 54.907,23.8936 54.964,23.9266 C55.136,24.0256 55.234,24.2666 55.234,24.5876 L55.234,26.3526 C55.234,26.9976 54.844,27.7476 54.364,28.0246 L54.076,28.1916 C53.885,28.3016 53.705,28.3186 53.568,28.2396 C53.528,28.2166 53.494,28.1846 53.462,28.1476 C53.495,28.1336 53.528,28.1206 53.559,28.1016 L53.847,27.9356 C54.369,27.6346 54.793,26.8256 54.793,26.1336 L54.793,24.3686 C54.793,24.1856 54.759,24.0246 54.699,23.8896 Z M55.056,23.7666 C54.859,23.6526 54.613,23.6706 54.364,23.8146 L54.076,23.9806 C53.544,24.2876 53.111,25.1096 53.111,25.8136 L53.111,27.5786 C53.111,27.9666 53.244,28.2666 53.475,28.3996 C53.561,28.4496 53.656,28.4736 53.757,28.4736 C53.887,28.4736 54.027,28.4326 54.168,28.3516 L54.456,28.1846 C54.987,27.8786 55.419,27.0566 55.419,26.3526 L55.419,24.5876 C55.419,24.1986 55.287,23.8996 55.056,23.7666 Z" id="Fill-34" fill="#FEBD2D"></path>
            <path d="M56.463,24.0006 C56.463,23.3556 56.853,22.6056 57.334,22.3286 L57.622,22.1616 C57.664,22.1376 57.705,22.1216 57.746,22.1066 C57.806,22.2306 57.843,22.3786 57.843,22.5556 L57.843,24.3206 C57.843,24.9756 57.445,25.7396 56.955,26.0226 L56.667,26.1886 C56.634,26.2076 56.598,26.2176 56.564,26.2316 C56.5,26.1106 56.463,25.9546 56.463,25.7656 L56.463,24.0006 Z M57.865,22.0766 C57.89,22.0726 57.916,22.0646 57.94,22.0646 C58.009,22.0646 58.073,22.0806 58.129,22.1136 C58.301,22.2126 58.4,22.4536 58.4,22.7746 L58.4,24.5396 C58.4,25.1846 58.009,25.9346 57.53,26.2116 L57.241,26.3786 C57.05,26.4886 56.87,26.5056 56.733,26.4266 C56.694,26.4036 56.659,26.3716 56.628,26.3346 C56.66,26.3206 56.693,26.3076 56.725,26.2886 L57.013,26.1226 C57.534,25.8216 57.959,25.0126 57.959,24.3206 L57.959,22.5556 C57.959,22.3726 57.924,22.2116 57.865,22.0766 Z M58.222,21.9536 C58.025,21.8396 57.779,21.8576 57.53,22.0016 L57.241,22.1676 C56.71,22.4746 56.277,23.2966 56.277,24.0006 L56.277,25.7656 C56.277,26.1536 56.41,26.4536 56.641,26.5866 C56.727,26.6366 56.822,26.6606 56.923,26.6606 C57.053,26.6606 57.193,26.6196 57.334,26.5386 L57.622,26.3716 C58.153,26.0656 58.585,25.2436 58.585,24.5396 L58.585,22.7746 C58.585,22.3856 58.453,22.0866 58.222,21.9536 Z" id="Fill-35" fill="#FEBD2D"></path>
            <path d="M59.634,22.1436 C59.634,21.4996 60.025,20.7496 60.505,20.4716 L60.793,20.3056 C60.836,20.2816 60.877,20.2656 60.918,20.2506 C60.977,20.3746 61.015,20.5226 61.015,20.6996 L61.015,22.4646 C61.015,23.1196 60.617,23.8836 60.127,24.1656 L59.839,24.3326 C59.806,24.3516 59.77,24.3616 59.736,24.3756 C59.672,24.2546 59.634,24.0986 59.634,23.9096 L59.634,22.1436 Z M61.037,20.2206 C61.062,20.2166 61.088,20.2086 61.112,20.2086 C61.181,20.2086 61.245,20.2246 61.301,20.2576 C61.473,20.3566 61.572,20.5976 61.572,20.9186 L61.572,22.6836 C61.572,23.3286 61.181,24.0786 60.701,24.3556 L60.413,24.5226 C60.222,24.6326 60.042,24.6496 59.905,24.5706 C59.866,24.5476 59.831,24.5156 59.799,24.4786 C59.832,24.4646 59.865,24.4516 59.897,24.4326 L60.185,24.2666 C60.706,23.9646 61.131,23.1566 61.131,22.4646 L61.131,20.6996 C61.131,20.5166 61.096,20.3556 61.037,20.2206 Z M61.394,20.0966 C61.197,19.9836 60.951,20.0016 60.701,20.1456 L60.413,20.3116 C59.882,20.6186 59.449,21.4406 59.449,22.1436 L59.449,23.9096 C59.449,24.2976 59.582,24.5976 59.813,24.7306 C59.898,24.7806 59.994,24.8046 60.094,24.8046 C60.225,24.8046 60.364,24.7636 60.506,24.6826 L60.793,24.5156 C61.325,24.2096 61.757,23.3876 61.757,22.6836 L61.757,20.9186 C61.757,20.5296 61.624,20.2306 61.394,20.0966 Z" id="Fill-36" fill="#FEBD2D"></path>
            <path d="M62.8,20.3216 C62.8,19.6776 63.191,18.9266 63.671,18.6496 L63.959,18.4836 C64.002,18.4586 64.043,18.4436 64.084,18.4276 C64.143,18.5526 64.181,18.7006 64.181,18.8766 L64.181,20.6416 C64.181,21.2976 63.783,22.0606 63.293,22.3436 L63.005,22.5096 C62.972,22.5286 62.936,22.5386 62.901,22.5526 C62.838,22.4316 62.8,22.2756 62.8,22.0866 L62.8,20.3216 Z M64.202,18.3976 C64.227,18.3936 64.253,18.3856 64.277,18.3856 C64.346,18.3856 64.411,18.4016 64.467,18.4346 C64.639,18.5336 64.737,18.7756 64.737,19.0966 L64.737,20.8616 C64.737,21.5056 64.347,22.2566 63.867,22.5336 L63.579,22.6996 C63.388,22.8096 63.208,22.8276 63.071,22.7476 C63.031,22.7256 62.997,22.6936 62.965,22.6556 C62.998,22.6416 63.031,22.6286 63.062,22.6106 L63.35,22.4436 C63.872,22.1426 64.296,21.3346 64.296,20.6416 L64.296,18.8766 C64.296,18.6946 64.262,18.5336 64.202,18.3976 Z M64.56,18.2746 C64.363,18.1606 64.117,18.1786 63.867,18.3226 L63.579,18.4896 C63.047,18.7966 62.615,19.6186 62.615,20.3216 L62.615,22.0866 C62.615,22.4756 62.747,22.7746 62.978,22.9086 C63.064,22.9576 63.159,22.9826 63.26,22.9826 C63.391,22.9826 63.53,22.9416 63.671,22.8596 L63.959,22.6936 C64.49,22.3866 64.922,21.5646 64.922,20.8616 L64.922,19.0966 C64.922,18.7076 64.79,18.4076 64.56,18.2746 Z" id="Fill-37" fill="#FEBD2D"></path>
            <path d="M37.202,46.3606 L37.086,46.4226 L37.086,44.5366 C37.086,44.2966 37.213,44.0706 37.418,43.9456 L54.939,33.6026 C55.045,33.5386 55.171,33.5376 55.279,33.5966 C55.386,33.6576 55.45,33.7666 55.45,33.8906 L55.45,35.7506 L55.333,35.8186 L55.335,33.8906 C55.335,33.8096 55.293,33.7376 55.222,33.6976 C55.152,33.6586 55.068,33.6596 54.999,33.7016 L37.477,44.0446 C37.308,44.1476 37.202,44.3366 37.202,44.5366 L37.202,46.3606 Z" id="Fill-38" fill="#FEBD2D"></path>
            <path d="M14.329,31.1636 C14.024,31.1636 13.701,31.2386 13.449,31.3836 L12.391,31.9946 C12.17,32.1226 12.043,32.2836 12.043,32.4366 C12.043,32.5876 12.168,32.6916 12.272,32.7516 L16.054,34.9356 C16.447,35.1616 17.138,35.1306 17.596,34.8666 L18.654,34.2556 C18.875,34.1276 19.002,33.9666 19.002,33.8146 C19.002,33.6626 18.878,33.5596 18.774,33.4986 L14.991,31.3156 C14.815,31.2136 14.578,31.1636 14.329,31.1636 Z M16.718,35.3176 C16.428,35.3176 16.151,35.2576 15.939,35.1356 L12.157,32.9516 C11.934,32.8236 11.812,32.6406 11.812,32.4366 C11.812,32.1986 11.981,31.9646 12.275,31.7946 L13.334,31.1836 C13.864,30.8776 14.643,30.8476 15.107,31.1156 L18.889,33.2986 C19.111,33.4266 19.234,33.6096 19.2330061,33.8146 C19.2330061,34.0516 19.064,34.2856 18.77,34.4556 L17.712,35.0666 C17.423,35.2336 17.062,35.3176 16.718,35.3176 Z" id="Fill-39" fill="#171310"></path>
            <path d="M15.239,33.8426 C15.299,33.8766 15.431,33.8766 15.519,33.8256 L15.69,33.7266 C15.723,33.7076 15.73,33.6926 15.73,33.6926 L14.645,33.0786 C14.586,33.0446 14.453,33.0446 14.365,33.0946 L14.194,33.1936 C14.16,33.2126 14.154,33.2276 14.154,33.2286 L15.239,33.8426 Z M15.354,34.0976 C15.27,34.0976 15.188,34.0796 15.124,34.0426 L14.05,33.4216 C13.969,33.3756 13.923,33.3036 13.923984,33.2226 C13.923984,33.1346 13.98,33.0506 14.078,32.9936 L14.249,32.8946 C14.403,32.8056 14.623,32.7996 14.76,32.8786 L15.834,33.4986 C15.914,33.5446 15.96,33.6176 15.96,33.6976 C15.96,33.7866 15.904,33.8706 15.806,33.9266 L15.634,34.0256 C15.552,34.0736 15.451,34.0976 15.354,34.0976 Z" id="Fill-40" fill="#171310"></path>
            <path d="M64.606,6.8836 C64.998,7.1096 65.69,7.0786 66.148,6.8146 L67.207,6.2036 C67.428,6.0756 67.554,5.9146 67.554,5.7616 C67.554,5.6106 67.43,5.5066 67.326,5.4466 L63.543,3.2626 C63.15,3.0366 62.46,3.0666 62.002,3.3316 L60.943,3.9426 C60.722,4.0706 60.595,4.2316 60.595,4.3836 C60.595,4.5356 60.72,4.6386 60.824,4.6996 L64.606,6.8836 Z M65.27,7.2656 C64.98,7.2656 64.702,7.2056 64.491,7.0836 L60.709,4.8996 C60.487,4.7706 60.364,4.5876 60.364,4.3836 C60.364,4.1466 60.533,3.9126 60.827,3.7426 L61.886,3.1316 C62.416,2.8246 63.195,2.7946 63.659,3.0626 L67.441,5.2466 C67.663,5.3746 67.786,5.5576 67.7850061,5.7626 C67.7850061,5.9996 67.616,6.2336 67.322,6.4036 L66.264,7.0146 C65.976,7.1806 65.614,7.2656 65.27,7.2656 Z" id="Fill-41" fill="#171310"></path>
            <path d="M63.791,5.7906 C63.852,5.8246 63.984,5.8236 64.071,5.7736 L64.242,5.6746 C64.275,5.6556 64.282,5.6406 64.282,5.6406 L63.197,5.0266 C63.138,4.9926 63.005,4.9916 62.917,5.0426 L62.746,5.1416 C62.713,5.1606 62.706,5.1756 62.706,5.1756 L63.791,5.7906 Z M63.906,6.0456 C63.822,6.0456 63.74,6.0276 63.676,5.9906 L62.602,5.3696 C62.521,5.3236 62.476,5.2516 62.476,5.1706 C62.476,5.0816 62.532,4.9986 62.63,4.9416 L62.802,4.8426 C62.955,4.7536 63.174,4.7466 63.312,4.8266 L64.387,5.4466 C64.467,5.4926 64.512,5.5656 64.512,5.6456 C64.512,5.7346 64.456,5.8186 64.358,5.8746 L64.187,5.9736 C64.105,6.0216 64.004,6.0456 63.906,6.0456 Z" id="Fill-42" fill="#171310"></path>
            <path d="M20.346,53.2806 C20.312,53.2806 20.277,53.2956 20.251,53.3106 L18.903,54.0886 C18.75,54.1776 18.62,54.4276 18.62,54.6346 L18.62,55.4626 C18.62,55.5606 18.649,55.6366 18.699,55.6646 C18.749,55.6936 18.806,55.6716 18.845,55.6486 L20.193,54.8706 L20.222,54.9206 L20.193,54.8706 C20.347,54.7816 20.476,54.5316 20.476,54.3246 L20.476,53.4966 C20.476,53.3986 20.447,53.3226 20.397,53.2946 C20.381,53.2846 20.364,53.2806 20.346,53.2806 Z M18.75,55.7936 C18.712,55.7936 18.675,55.7846 18.641,55.7656 C18.554,55.7146 18.504,55.6046 18.504,55.4626 L18.504,54.6346 C18.504,54.3836 18.654,54.0996 18.845,53.9886 L20.193,53.2106 C20.287,53.1566 20.38,53.1506 20.455,53.1936 C20.542,53.2446 20.592,53.3546 20.592,53.4966 L20.592,54.3246 C20.592,54.5766 20.442,54.8606 20.251,54.9706 L18.903,55.7486 C18.851,55.7786 18.799,55.7936 18.75,55.7936 Z" id="Fill-43" fill="#FEBE2E"></path>
            <path d="M74.421,22.4926 C74.387,22.4926 74.353,22.5076 74.326,22.5226 L72.979,23.3016 C72.825,23.3896 72.696,23.6396 72.696,23.8476 L72.696,24.6756 C72.696,24.7736 72.725,24.8486 72.775,24.8776 C72.822,24.9056 72.881,24.8836 72.921,24.8606 L74.269,24.0826 C74.422,23.9946 74.552,23.7446 74.552,23.5366 L74.552,22.7086 C74.552,22.6106 74.522,22.5356 74.473,22.5066 C74.456,22.4966 74.439,22.4926 74.421,22.4926 Z M72.826,25.0066 C72.787,25.0066 72.75,24.9966 72.717,24.9776 C72.63,24.9276 72.58,24.8166 72.58,24.6756 L72.58,23.8476 C72.58,23.5946 72.73,23.3116 72.921,23.2006 L74.269,22.4226 C74.362,22.3686 74.455,22.3626 74.53,22.4066 C74.618,22.4566 74.667,22.5666 74.667,22.7086 L74.667,23.5366 C74.667,23.7886 74.517,24.0726 74.326,24.1826 L72.979,24.9606 C72.926,24.9906 72.874,25.0066 72.826,25.0066 Z" id="Fill-44" fill="#FEBE2E"></path>
            <path d="M12.876,38.4026 L6.304,34.6076 C5.306,34.0316 4.4,34.0566 3.744,34.5586 L1.401,35.8636 L10.195,55.0256 L12.73,60.2786 L15.107,58.9346 C15.191,58.8946 15.27,58.8476 15.348,58.7946 C16.046,58.3186 16.485,57.3326 16.485,55.9586 L16.485,45.2986 C16.485,42.6516 14.861,39.5486 12.876,38.4026 Z" id="Fill-45" fill="#FEBD2D"></path>
            <path d="M1.55,35.9106 L10.3,54.9776 L12.78,60.1156 L15.049,58.8346 C15.132,58.7946 15.207,58.7506 15.283,58.6996 C15.973,58.2286 16.369,57.2296 16.369,55.9586 L16.369,45.2986 C16.369,42.6816 14.776,39.6326 12.818,38.5026 L6.246,34.7076 C5.324,34.1756 4.461,34.1556 3.815,34.6506 L1.55,35.9106 Z M12.68,60.4406 L10.091,55.0766 L1.253,35.8156 L1.343,35.7636 L3.686,34.4586 C4.399,33.9116 5.353,33.9256 6.361,34.5076 L12.933,38.3026 C14.955,39.4696 16.601,42.6086 16.601,45.2986 L16.601,55.9586 C16.601,57.3266 16.179,58.3676 15.413,58.8906 C15.327,58.9486 15.242,58.9986 15.157,59.0386 L12.68,60.4406 Z" id="Fill-46" fill="#171310"></path>
            <path d="M16.462,44.7606 L16.326,43.2896 L15.419,41.2786 L12.844,42.7416 L13.585,44.1956 L13.791,45.4926 L13.843,45.8306 L7.1,48.2816 L10.195,55.0256 L12.73,60.2786 L15.107,58.9346 C15.191,58.8946 15.27,58.8476 15.348,58.7946 C16.046,58.3186 16.485,57.3326 16.485,55.9586 L16.485,45.2986 C16.485,45.1216 16.477,44.9416 16.462,44.7606 Z" id="Fill-47" fill="#171310"></path>
            <path d="M10.297,60.1466 L3.726,56.3526 C1.74,55.2056 0.116,52.1026 0.116,49.4556 L0.116,38.7956 C0.116,36.1486 1.74,34.9206 3.726,36.0666 L10.297,39.8606 C12.283,41.0066 13.907,44.1106 13.907,46.7576 L13.907,57.4176 C13.907,60.0646 12.283,61.2926 10.297,60.1466 Z" id="Fill-48" fill="#FEBD2D"></path>
            <path d="M2.3,35.7536 C1.984,35.7536 1.689,35.8296 1.426,35.9816 C0.667,36.4196 0.232,37.4456 0.232,38.7956 L0.232,49.4556 C0.232,52.0726 1.825,55.1216 3.783,56.2516 L10.355,60.0456 C11.182,60.5236 11.978,60.5896 12.597,60.2316 C13.356,59.7936 13.791,58.7676 13.791,57.4176 L13.791,46.7576 C13.791,44.1406 12.198,41.0916 10.24,39.9606 L3.668,36.1666 C3.192,35.8926 2.727,35.7536 2.3,35.7536 Z M11.724,60.6906 C11.256,60.6906 10.752,60.5416 10.24,60.2466 L3.668,56.4516 C1.646,55.2846 0,52.1456 0,49.4556 L0,38.7956 C0,37.3606 0.478,36.2616 1.31,35.7816 C2.005,35.3806 2.883,35.4466 3.783,35.9666 L10.355,39.7606 C12.377,40.9286 14.022,44.0666 14.022,46.7576 L14.022,57.4176 C14.022,58.8526 13.545,59.9516 12.712,60.4316 C12.413,60.6046 12.079,60.6906 11.724,60.6906 Z" id="Fill-49" fill="#171310"></path>
            <polygon id="Fill-50" fill="#171310" points="3.3 35.9806 5.949 34.4666 4.446 34.1786 2.177 35.5436 1.643 35.7536 2.547 35.6376"></polygon>
        </g>
    </g>
</svg>