<?xml version="1.0" encoding="UTF-8"?>
<svg width="213px" height="71px" viewBox="0 0 213 71" version="1.1" xmlns="http://www.w3.org/2000/svg" xmlns:xlink="http://www.w3.org/1999/xlink">
    <!-- Generator: Sketch 57.1 (83088) - https://sketch.com -->
    <title>Fill 1</title>
    <desc>Created with Sketch.</desc>
    <defs>
        <linearGradient x1="20.8173269%" y1="48.9596719%" x2="77.6716829%" y2="51.3255096%" id="linearGradient-1">
            <stop stop-color="#FFFFFF" offset="0%"></stop>
            <stop stop-color="#FFFFFF" stop-opacity="0" offset="100%"></stop>
        </linearGradient>
    </defs>
    <g id="Page-1" stroke="none" stroke-width="1" fill="none" fill-rule="evenodd">
        <g id="Artboard" transform="translate(-80.000000, -176.000000)" fill="url(#linearGradient-1)">
            <path d="M351.544,228.818974 L92.4603,246.554574 L154.1029,238.419774 L154.585,235.621274 C158.9947,234.574874 162.5715,230.556074 162.5715,230.556074 L351.544,228.818974 Z M350.798,228.602474 L351.544,228.818974 L161.6091,228.793674 C157.0893,233.858974 152.1103,234.850774 152.1103,234.850774 L151.118,237.493274 L114.1319,237.686274 L80,239.799774 L114.1925,236.559774 L114.2963,234.630774 L119.2007,234.217474 C107.1296,234.217474 104.2358,224.058774 104.2358,224.058774 C107.1328,229.922674 114.8378,228.463674 114.8378,228.463674 C100.6168,228.463674 104.7942,216.019974 104.7942,216.019974 C109.6448,201.044274 126.2681,186.657674 126.2681,186.657674 C143.9066,171.312474 173.1616,177.050474 173.1616,177.050474 L335.77,224.241074 L190.363,183.642874 C170.8857,178.859574 158.6622,193.422174 158.6622,193.422174 C174.7988,179.670574 190.281,185.030274 190.281,185.030274 L342.804,226.282474 L349.359,228.184674 L323.662,222.678274 L323.662,225.225274 L350.614,228.549074 L350.724,228.580974 L181.098,210.977874 C181.098,210.977874 166.8845,209.072374 147.7962,214.872174 C147.7962,214.872174 132.096,221.417674 123.1715,221.748774 C123.1715,221.748774 107.6541,221.867274 105.6622,221.228374 C105.6622,221.228374 105.696,222.804474 106.6532,223.798174 C106.6532,223.798174 124.7414,225.560174 136.1448,221.748774 C136.1448,221.748774 153.9108,215.783274 168.2891,214.872174 C168.2891,214.872174 181.208,214.402874 190.599,215.475474 C216.389,216.836074 339.296,227.593674 350.798,228.602474 Z M167.5699,239.540774 C165.8798,239.540774 164.51,237.811374 164.51,235.678274 C164.51,233.545174 165.8798,231.816474 167.5699,231.816474 C167.6009,231.816474 167.6312,231.820974 167.6622,231.821674 C167.397,231.731474 167.1193,231.678274 166.8313,231.678274 C165.0812,231.678274 163.6622,233.469274 163.6622,235.678274 C163.6622,237.887674 165.0812,239.678274 166.8313,239.678274 C167.1193,239.678274 167.397,239.625874 167.6622,239.534874 C167.6312,239.535974 167.6009,239.540774 167.5699,239.540774 Z M168.6622,235.678274 C168.6622,236.230574 168.4383,236.678274 168.1623,236.678274 C167.8861,236.678274 167.6622,236.230574 167.6622,235.678274 C167.6622,235.125974 167.8861,234.678274 168.1623,234.678274 C168.4383,234.678274 168.6622,235.125974 168.6622,235.678274 Z M123.6622,233.678274 C148.1618,231.073374 146.9553,222.608774 172.6622,221.678274 C150.3561,223.406174 147.536,232.701474 123.6622,233.678274 Z M321.662,222.350974 L317.662,221.678274 L317.662,224.281674 L321.662,224.678274 L321.662,222.350974 Z M313.662,221.269774 L306.662,219.678274 L306.662,223.739874 L313.662,224.678274 L313.662,221.269774 Z M302.662,218.145174 L291.662,215.678274 L291.662,221.224874 L302.662,222.678274 L302.662,218.145174 Z M285.662,214.872374 L261.662,209.678274 L261.662,217.617774 L285.662,220.678274 L285.662,214.872374 Z M206.662,210.221874 L250.662,215.678274 L250.662,206.937774 L206.662,197.678274 L206.662,210.221874 Z M121.6622,214.183174 L129.024,206.678274 L136.6622,206.678274 L128.0268,214.678274 L122.2995,214.288174 L127.8336,213.926774 L134.3972,207.158774 L129.8285,207.388274 L121.6622,214.183174 Z M113.6622,206.678274 L110.3068,206.678274 L107.6622,213.507974 L110.6622,213.616874 L108.474,213.060874 L110.6622,207.122974 L112.7583,207.183674 L111.4209,213.678274 L113.6622,206.678274 Z M192.662,194.542474 L185.864,193.035574 C185.864,193.035574 175.0989,189.434874 164.6622,205.094674 L192.662,208.678282 L192.662,194.542474 Z M162.6622,180.782174 C162.6622,180.782174 151.917,188.528374 146.0881,196.776674 C146.0881,196.776674 127.9691,201.366974 116.6622,199.000474 C116.6622,199.000474 134.3856,170.907274 162.6622,180.782174 Z" id="Fill-1"></path>
        </g>
    </g>
</svg>