<?xml version="1.0" standalone="no"?>
<!DOCTYPE svg PUBLIC "-//W3C//DTD SVG 20010904//EN"
 "http://www.w3.org/TR/2001/REC-SVG-20010904/DTD/svg10.dtd">
<svg version="1.0" xmlns="http://www.w3.org/2000/svg"
 width="124.000000pt" height="124.000000pt" viewBox="0 0 124.000000 124.000000"
 preserveAspectRatio="xMidYMid meet">
<metadata>
Created by potrace 1.11, written by Peter Selinger 2001-2013
</metadata>
<g transform="translate(0.000000,124.000000) scale(0.100000,-0.100000)"
fill="#000000" stroke="none">
<path d="M1150 1003 c-115 -18 -252 -48 -287 -64 -23 -10 -45 -19 -49 -19 -4
0 -36 -13 -71 -30 -34 -16 -65 -30 -67 -30 -9 0 -197 -106 -245 -139 -87 -59
-95 -65 -136 -96 -158 -119 -181 -226 -61 -281 28 -12 68 -26 89 -30 l38 -7
-32 -33 c-27 -28 -30 -36 -19 -49 10 -12 42 -15 192 -15 l179 0 35 34 36 35
45 -35 c24 -19 56 -34 70 -34 41 0 91 29 112 66 25 42 66 47 81 10 11 -30 76
-76 107 -76 12 0 34 5 48 12 20 9 25 18 25 45 l0 34 -26 -20 c-32 -25 -52 -26
-82 -5 -36 25 -25 34 43 34 l65 0 0 350 0 350 -32 -1 c-18 -1 -44 -3 -58 -6z
m-175 -124 c-28 -28 -73 -61 -100 -74 -58 -28 -268 -83 -319 -85 -30 0 -1 26
50 46 24 9 44 21 44 25 0 5 5 9 10 9 6 0 34 12 63 26 97 47 242 99 292 103 5
1 -13 -22 -40 -50z m225 -218 c0 -39 -4 -72 -8 -75 -4 -2 -44 -6 -87 -7 l-80
-2 -3 66 c-3 78 -7 76 151 85 l27 2 0 -69z m-230 -20 l0 -69 -61 -7 c-33 -4
-62 -6 -63 -4 -2 2 -7 27 -11 55 l-7 52 49 15 c26 9 57 18 68 20 11 3 21 5 23
6 1 0 2 -30 2 -68z m-183 -45 c6 -46 5 -46 -24 -46 -17 0 -50 -3 -74 -6 -36
-5 -48 -2 -66 16 -13 11 -23 25 -23 29 0 13 164 70 174 61 4 -5 11 -29 13 -54z
m-142 -261 c0 -19 -8 -20 -132 -23 -73 -1 -133 1 -133 4 0 4 8 16 17 26 15 16
30 18 132 16 108 -3 116 -4 116 -23z m295 -31 c0 -13 -46 -43 -65 -43 -19 0
-65 30 -65 43 0 3 29 6 65 6 36 0 65 -3 65 -6z"/>
</g>
</svg>
